<svg width="108" height="108" viewBox="0 0 108 108" fill="none" xmlns="http://www.w3.org/2000/svg">
<g clip-path="url(#clip0_135_18756)">
<path d="M20.6946 82.8661C24.2732 82.8865 84.0091 82.8554 87.7249 82.8808C88.5725 82.8859 89.4358 82.9418 90.2581 83.1347C92.8467 83.7489 95.1507 84.9274 97.0491 86.8359C99.8815 89.6835 102.734 92.5105 105.562 95.3632L105.557 95.374C107.181 97.0135 107.958 99.0439 107.998 101.328C108.039 103.602 106.699 104.912 104.425 104.912H53.9944C37.2687 104.912 20.5375 104.871 3.81177 104.947C0.695041 104.957 -0.254711 102.546 0.0549316 100.541C0.384867 98.4243 1.20748 96.5768 2.79614 95.0439C5.55243 92.3891 8.20742 89.6326 10.9231 86.9423C13.6236 84.2672 16.852 82.8408 20.6946 82.8661ZM47.7756 90.3837C46.7504 90.3787 46.0447 90.7999 45.5168 91.622C44.9534 92.5002 44.359 93.3636 43.8616 94.2773C43.5927 94.7695 43.4203 95.348 43.3391 95.9062C43.197 96.8452 43.5574 97.206 44.5217 97.206H63.5627V97.2011C64.4963 97.201 64.7346 96.942 64.7092 96.0185C64.6991 95.775 64.7046 95.4957 64.5881 95.2978C63.7303 93.8359 62.9127 92.3478 61.928 90.9824C61.6487 90.5968 60.8622 90.424 60.304 90.4189C56.1314 90.3732 51.9533 90.4142 47.7756 90.3837ZM89.0081 19.8007C92.8659 19.7855 97.1049 22.5827 97.0745 27.8466C97.0339 36.1002 97.0436 44.3538 97.0334 52.6074C97.0334 59.3484 97.0081 66.0899 97.0334 72.831C97.0435 75.521 96.2469 77.805 94.095 79.5156C92.6584 80.6577 90.9931 81.1406 89.1809 81.1406H54.0393C47.6891 81.1406 23.4152 81.1458 19.3694 81.1357C18.7399 81.1357 18.1051 81.0946 17.4807 81.0185C13.9936 80.597 11.1412 77.4598 11.0549 73.9218C11.0143 72.3026 11.0442 70.6779 11.0442 69.0536C11.0391 55.2114 11.0247 41.3742 11.0247 27.537C11.0247 23.6944 13.5268 20.6639 17.2932 19.9482C17.8566 19.8467 18.4453 19.8466 19.0188 19.8466C42.3485 19.8415 65.6784 19.8819 89.0081 19.8007ZM20.5774 28.2119C19.7958 28.2119 19.4047 28.6093 19.4045 29.4042V29.4101C19.3944 43.4657 19.3842 57.5264 19.3792 71.582C19.3792 72.7545 19.3795 72.7548 20.552 72.7548H87.4856C88.6428 72.7548 88.6428 72.7495 88.6428 71.5722C88.6327 57.5165 88.6276 43.4551 88.6174 29.3994C88.614 28.6078 88.2166 28.212 87.425 28.2119H20.5774Z" fill="#FFBE00"/>
</g>
<defs>
<clipPath id="clip0_135_18756">
<rect width="108" height="108" fill="white"/>
</clipPath>
</defs>
</svg>
