<svg width="548" height="617" viewBox="0 0 548 617" fill="none" xmlns="http://www.w3.org/2000/svg">
<g clip-path="url(#clip0_4029_3653)">
<rect y="256.875" width="355.81" height="355.81" rx="177.905" fill="#71E0AA" fill-opacity="0.4"/>
<path d="M146.702 404.53V427.28H143.686V404.53H146.702ZM160.718 404.53L150.843 417.046H145.499L145.03 414.546H149.046L156.983 404.53H160.718ZM157.686 427.28L149.139 416.655L150.827 414.014L161.374 427.28H157.686ZM166.421 422.702L174.218 410.374H177.124V427.28H174.218V414.952L166.421 427.28H163.546V410.374H166.421V422.702ZM188.78 427.593C187.603 427.593 186.535 427.395 185.577 426.999C184.629 426.593 183.811 426.025 183.124 425.296C182.447 424.567 181.926 423.702 181.561 422.702C181.197 421.702 181.014 420.608 181.014 419.421V418.764C181.014 417.389 181.218 416.166 181.624 415.093C182.03 414.009 182.582 413.093 183.28 412.343C183.978 411.593 184.77 411.025 185.655 410.639C186.54 410.254 187.457 410.061 188.405 410.061C189.613 410.061 190.655 410.27 191.53 410.686C192.415 411.103 193.139 411.686 193.702 412.436C194.264 413.176 194.681 414.051 194.952 415.061C195.223 416.061 195.358 417.155 195.358 418.343V419.639H182.733V417.28H192.468V417.061C192.426 416.311 192.27 415.582 191.999 414.874C191.738 414.166 191.322 413.582 190.749 413.124C190.176 412.666 189.395 412.436 188.405 412.436C187.749 412.436 187.145 412.577 186.593 412.858C186.04 413.129 185.566 413.535 185.171 414.077C184.775 414.619 184.468 415.28 184.249 416.061C184.03 416.843 183.921 417.744 183.921 418.764V419.421C183.921 420.223 184.03 420.978 184.249 421.686C184.478 422.384 184.806 422.999 185.233 423.53C185.671 424.061 186.197 424.478 186.811 424.78C187.436 425.082 188.145 425.233 188.936 425.233C189.957 425.233 190.822 425.025 191.53 424.608C192.238 424.192 192.858 423.634 193.389 422.936L195.139 424.327C194.775 424.879 194.311 425.405 193.749 425.905C193.186 426.405 192.494 426.811 191.671 427.124C190.858 427.436 189.895 427.593 188.78 427.593ZM206.671 419.843H201.124L201.093 417.53H205.624C206.52 417.53 207.264 417.442 207.858 417.264C208.462 417.087 208.915 416.822 209.218 416.468C209.52 416.113 209.671 415.676 209.671 415.155C209.671 414.749 209.582 414.395 209.405 414.093C209.238 413.78 208.983 413.525 208.639 413.327C208.296 413.119 207.869 412.968 207.358 412.874C206.858 412.77 206.27 412.718 205.593 412.718H201.889V427.28H198.999V410.374H205.593C206.665 410.374 207.629 410.468 208.483 410.655C209.348 410.843 210.082 411.129 210.686 411.514C211.301 411.889 211.77 412.369 212.093 412.952C212.415 413.535 212.577 414.223 212.577 415.014C212.577 415.525 212.473 416.009 212.264 416.468C212.056 416.926 211.749 417.332 211.343 417.686C210.936 418.041 210.436 418.332 209.843 418.561C209.249 418.78 208.566 418.921 207.796 418.983L206.671 419.843ZM206.671 427.28H200.077L201.514 424.936H206.671C207.473 424.936 208.139 424.837 208.671 424.639C209.202 424.431 209.598 424.139 209.858 423.764C210.129 423.379 210.264 422.921 210.264 422.389C210.264 421.858 210.129 421.405 209.858 421.03C209.598 420.645 209.202 420.353 208.671 420.155C208.139 419.947 207.473 419.843 206.671 419.843H202.28L202.311 417.53H207.796L208.843 418.405C209.77 418.478 210.556 418.707 211.202 419.093C211.848 419.478 212.337 419.968 212.671 420.561C213.004 421.145 213.171 421.78 213.171 422.468C213.171 423.259 213.02 423.957 212.718 424.561C212.426 425.166 211.999 425.671 211.436 426.077C210.874 426.473 210.191 426.775 209.389 426.983C208.587 427.181 207.681 427.28 206.671 427.28Z" fill="black"/>
<path d="M154.731 453.399H156.973C157.548 453.399 158.017 453.299 158.382 453.098C158.755 452.889 159.033 452.597 159.216 452.223C159.398 451.841 159.489 451.389 159.489 450.87C159.489 450.469 159.402 450.1 159.229 449.763C159.065 449.425 158.81 449.156 158.464 448.956C158.117 448.746 157.675 448.641 157.137 448.641C156.773 448.641 156.417 448.719 156.071 448.874C155.725 449.02 155.438 449.229 155.21 449.503C154.991 449.776 154.882 450.109 154.882 450.501H150.26C150.26 449.371 150.57 448.404 151.19 447.602C151.819 446.791 152.644 446.171 153.665 445.743C154.695 445.305 155.802 445.087 156.987 445.087C158.4 445.087 159.639 445.305 160.706 445.743C161.772 446.171 162.602 446.809 163.194 447.657C163.796 448.496 164.096 449.535 164.096 450.774C164.096 451.458 163.937 452.1 163.618 452.702C163.299 453.304 162.852 453.832 162.278 454.288C161.704 454.744 161.029 455.104 160.255 455.368C159.489 455.623 158.65 455.751 157.739 455.751H154.731V453.399ZM154.731 456.831V454.534H157.739C158.733 454.534 159.639 454.648 160.46 454.876C161.28 455.095 161.986 455.423 162.579 455.86C163.171 456.298 163.627 456.84 163.946 457.487C164.265 458.125 164.425 458.859 164.425 459.688C164.425 460.618 164.238 461.447 163.864 462.177C163.49 462.906 162.966 463.521 162.292 464.022C161.617 464.524 160.829 464.906 159.927 465.171C159.024 465.426 158.044 465.554 156.987 465.554C156.158 465.554 155.328 465.444 154.499 465.225C153.669 464.998 152.913 464.651 152.229 464.186C151.546 463.712 150.994 463.111 150.575 462.382C150.165 461.643 149.96 460.764 149.96 459.743H154.581C154.581 460.162 154.695 460.545 154.923 460.891C155.16 461.229 155.474 461.498 155.866 461.698C156.258 461.899 156.682 461.999 157.137 461.999C157.703 461.999 158.181 461.894 158.573 461.684C158.974 461.466 159.279 461.174 159.489 460.809C159.699 460.445 159.803 460.039 159.803 459.593C159.803 458.918 159.69 458.38 159.462 457.979C159.243 457.578 158.919 457.287 158.491 457.104C158.072 456.922 157.566 456.831 156.973 456.831H154.731ZM180.667 461.725V465.28H166.776V462.272L173.175 455.546C173.74 454.899 174.195 454.32 174.542 453.809C174.888 453.29 175.139 452.82 175.294 452.401C175.458 451.982 175.54 451.604 175.54 451.266C175.54 450.692 175.453 450.214 175.28 449.831C175.116 449.439 174.87 449.143 174.542 448.942C174.223 448.742 173.826 448.641 173.352 448.641C172.878 448.641 172.464 448.778 172.108 449.052C171.753 449.325 171.475 449.699 171.274 450.173C171.083 450.647 170.987 451.18 170.987 451.772H166.366C166.366 450.551 166.662 449.434 167.255 448.423C167.856 447.411 168.69 446.604 169.757 446.003C170.823 445.392 172.058 445.087 173.462 445.087C174.929 445.087 176.16 445.315 177.153 445.77C178.147 446.226 178.894 446.887 179.395 447.753C179.906 448.61 180.161 449.644 180.161 450.856C180.161 451.549 180.052 452.214 179.833 452.852C179.614 453.49 179.3 454.124 178.889 454.753C178.479 455.373 177.978 456.011 177.385 456.667C176.802 457.323 176.137 458.02 175.389 458.759L172.819 461.725H180.667ZM183.387 463.12C183.387 462.464 183.624 461.917 184.098 461.479C184.572 461.033 185.183 460.809 185.93 460.809C186.687 460.809 187.298 461.033 187.762 461.479C188.236 461.917 188.473 462.464 188.473 463.12C188.473 463.776 188.236 464.328 187.762 464.774C187.298 465.212 186.687 465.43 185.93 465.43C185.183 465.43 184.572 465.212 184.098 464.774C183.624 464.328 183.387 463.776 183.387 463.12ZM205.331 445.374V447.835L197.893 465.28H193.026L200.477 448.929H190.975V445.374H205.331Z" fill="black"/>
<g opacity="0.2">
<path d="M214.656 115.854L-129.703 314.67" stroke="#1563EA"/>
<path d="M219.251 123.812L-125.108 322.628" stroke="#1563EA"/>
<path d="M223.846 131.771L-120.513 330.586" stroke="#1563EA"/>
<path d="M228.44 139.729L-115.918 338.545" stroke="#1563EA"/>
<path d="M233.035 147.687L-111.324 346.503" stroke="#1563EA"/>
<path d="M237.63 155.646L-106.729 354.461" stroke="#1563EA"/>
<path d="M242.224 163.604L-102.135 362.419" stroke="#1563EA"/>
<path d="M246.819 171.562L-97.5398 370.378" stroke="#1563EA"/>
<path d="M251.414 179.52L-92.9451 378.336" stroke="#1563EA"/>
<path d="M256.009 187.479L-88.3504 386.294" stroke="#1563EA"/>
<path d="M260.603 195.437L-83.7556 394.253" stroke="#1563EA"/>
<path d="M265.198 203.395L-79.1609 402.211" stroke="#1563EA"/>
<path d="M269.793 211.353L-74.5662 410.169" stroke="#1563EA"/>
<path d="M274.387 219.312L-69.9715 418.127" stroke="#1563EA"/>
<path d="M278.982 227.27L-65.3767 426.086" stroke="#1563EA"/>
<path d="M283.577 235.228L-60.782 434.044" stroke="#1563EA"/>
<path d="M288.172 243.186L-56.1873 442.002" stroke="#1563EA"/>
<path d="M292.766 251.145L-51.5926 449.96" stroke="#1563EA"/>
<path d="M297.361 259.103L-46.9981 457.919" stroke="#1563EA"/>
<path d="M301.956 267.061L-42.4033 465.877" stroke="#1563EA"/>
<path d="M306.55 275.019L-37.8086 473.835" stroke="#1563EA"/>
<path d="M311.145 282.978L-33.2139 481.793" stroke="#1563EA"/>
<path d="M315.74 290.936L-28.6192 489.752" stroke="#1563EA"/>
<path d="M320.334 298.894L-24.0244 497.71" stroke="#1563EA"/>
<path d="M324.929 306.852L-19.4297 505.668" stroke="#1563EA"/>
<path d="M329.524 314.811L-14.835 513.626" stroke="#1563EA"/>
<path d="M334.119 322.769L-10.2403 521.585" stroke="#1563EA"/>
<path d="M338.713 330.727L-5.64553 529.543" stroke="#1563EA"/>
<path d="M343.308 338.686L-1.0508 537.501" stroke="#1563EA"/>
<path d="M347.903 346.644L3.54368 545.459" stroke="#1563EA"/>
<path d="M352.497 354.602L8.13841 553.418" stroke="#1563EA"/>
<path d="M357.092 362.56L12.7331 561.376" stroke="#1563EA"/>
<path d="M361.687 370.519L17.3279 569.334" stroke="#1563EA"/>
<path d="M366.281 378.477L21.9226 577.293" stroke="#1563EA"/>
<path d="M370.876 386.435L26.5173 585.251" stroke="#1563EA"/>
<path d="M375.471 394.393L31.112 593.209" stroke="#1563EA"/>
<path d="M380.066 402.352L35.7068 601.167" stroke="#1563EA"/>
<path d="M384.66 410.31L40.3015 609.126" stroke="#1563EA"/>
<path d="M389.255 418.268L44.8962 617.084" stroke="#1563EA"/>
<path d="M393.85 426.227L49.4909 625.042" stroke="#1563EA"/>
<path d="M398.445 434.185L54.0857 633.001" stroke="#1563EA"/>
<path d="M403.039 442.143L58.6804 640.959" stroke="#1563EA"/>
<path d="M407.634 450.101L63.2751 648.917" stroke="#1563EA"/>
<path d="M412.229 458.06L67.8699 656.875" stroke="#1563EA"/>
<path d="M416.823 466.018L72.4646 664.834" stroke="#1563EA"/>
<path d="M421.418 473.976L77.0591 672.792" stroke="#1563EA"/>
<path d="M426.013 481.934L81.6538 680.75" stroke="#1563EA"/>
<path d="M430.607 489.893L86.2485 688.708" stroke="#1563EA"/>
</g>
</g>
<g clip-path="url(#clip1_4029_3653)">
<rect x="123" y="0.875" width="237.207" height="237.207" rx="118.603" fill="#71E0AA" fill-opacity="0.4"/>
<path d="M218.4 103.103H219.861L223.588 112.377L227.306 103.103H228.775L224.15 114.478H223.01L218.4 103.103ZM217.924 103.103H219.213L219.424 110.041V114.478H217.924V103.103ZM227.955 103.103H229.244V114.478H227.744V110.041L227.955 103.103ZM233.236 112.189L237.135 106.025H238.588V114.478H237.135V108.314L233.236 114.478H231.799V106.025H233.236V112.189ZM246.642 109.689V110.861H242.174V109.689H246.642ZM242.478 106.025V114.478H241.033V106.025H242.478ZM247.814 106.025V114.478H246.361V106.025H247.814ZM253.525 113.447C253.869 113.447 254.187 113.377 254.478 113.236C254.77 113.096 255.01 112.903 255.197 112.658C255.385 112.408 255.491 112.124 255.517 111.807H256.892C256.866 112.307 256.697 112.773 256.385 113.205C256.077 113.632 255.674 113.978 255.174 114.244C254.674 114.504 254.124 114.635 253.525 114.635C252.89 114.635 252.335 114.523 251.861 114.299C251.392 114.075 251.002 113.767 250.689 113.377C250.382 112.986 250.15 112.538 249.994 112.033C249.843 111.523 249.767 110.984 249.767 110.416V110.088C249.767 109.52 249.843 108.984 249.994 108.478C250.15 107.968 250.382 107.517 250.689 107.127C251.002 106.736 251.392 106.429 251.861 106.205C252.335 105.981 252.89 105.869 253.525 105.869C254.187 105.869 254.765 106.004 255.26 106.275C255.754 106.541 256.142 106.905 256.424 107.369C256.71 107.827 256.866 108.348 256.892 108.932H255.517C255.491 108.583 255.392 108.267 255.22 107.986C255.054 107.705 254.825 107.481 254.533 107.314C254.247 107.142 253.911 107.057 253.525 107.057C253.082 107.057 252.71 107.145 252.408 107.322C252.111 107.494 251.874 107.728 251.697 108.025C251.525 108.317 251.4 108.642 251.322 109.002C251.249 109.356 251.213 109.718 251.213 110.088V110.416C251.213 110.786 251.249 111.15 251.322 111.51C251.395 111.869 251.517 112.195 251.689 112.486C251.866 112.778 252.103 113.012 252.4 113.189C252.702 113.361 253.077 113.447 253.525 113.447ZM260.088 106.025V114.478H258.642V106.025H260.088ZM265.635 106.025L261.627 110.869H259.603L259.385 109.603H261.041L263.877 106.025H265.635ZM264.08 114.478L260.97 110.65L261.9 109.603L265.916 114.478H264.08Z" fill="black"/>
<path d="M227.955 132.447V134.478H220.017V132.76L223.674 128.916C223.997 128.546 224.257 128.215 224.455 127.924C224.653 127.627 224.796 127.359 224.885 127.119C224.978 126.879 225.025 126.663 225.025 126.471C225.025 126.142 224.976 125.869 224.877 125.65C224.783 125.426 224.642 125.257 224.455 125.142C224.273 125.028 224.046 124.971 223.775 124.971C223.504 124.971 223.267 125.049 223.064 125.205C222.861 125.361 222.702 125.575 222.588 125.846C222.478 126.116 222.424 126.421 222.424 126.76H219.783C219.783 126.062 219.952 125.424 220.291 124.846C220.635 124.267 221.111 123.807 221.72 123.463C222.33 123.114 223.036 122.939 223.838 122.939C224.676 122.939 225.379 123.07 225.947 123.33C226.515 123.59 226.942 123.968 227.228 124.463C227.52 124.952 227.666 125.543 227.666 126.236C227.666 126.632 227.603 127.012 227.478 127.377C227.353 127.741 227.174 128.103 226.939 128.463C226.705 128.817 226.418 129.182 226.08 129.557C225.747 129.932 225.366 130.33 224.939 130.752L223.47 132.447H227.955ZM235.127 123.103V134.478H232.494V126.072L229.9 126.83V124.83L234.885 123.103H235.127ZM238.791 133.244C238.791 132.869 238.926 132.557 239.197 132.307C239.468 132.051 239.817 131.924 240.244 131.924C240.676 131.924 241.025 132.051 241.291 132.307C241.562 132.557 241.697 132.869 241.697 133.244C241.697 133.619 241.562 133.934 241.291 134.189C241.025 134.439 240.676 134.564 240.244 134.564C239.817 134.564 239.468 134.439 239.197 134.189C238.926 133.934 238.791 133.619 238.791 133.244ZM251.322 131.346C251.322 132.07 251.15 132.676 250.806 133.166C250.468 133.655 249.999 134.023 249.4 134.267C248.806 134.512 248.129 134.635 247.369 134.635C246.614 134.635 245.934 134.512 245.33 134.267C244.731 134.023 244.257 133.655 243.908 133.166C243.559 132.676 243.385 132.07 243.385 131.346C243.385 130.851 243.483 130.408 243.681 130.017C243.885 129.622 244.166 129.286 244.525 129.01C244.885 128.734 245.304 128.523 245.783 128.377C246.267 128.231 246.791 128.158 247.353 128.158C248.114 128.158 248.793 128.288 249.392 128.549C249.991 128.804 250.463 129.168 250.806 129.642C251.15 130.116 251.322 130.684 251.322 131.346ZM248.674 131.135C248.674 130.822 248.619 130.559 248.51 130.346C248.4 130.127 248.247 129.96 248.049 129.846C247.851 129.731 247.619 129.674 247.353 129.674C247.093 129.674 246.861 129.731 246.658 129.846C246.46 129.96 246.304 130.127 246.189 130.346C246.08 130.559 246.025 130.822 246.025 131.135C246.025 131.437 246.082 131.7 246.197 131.924C246.312 132.142 246.468 132.312 246.666 132.432C246.869 132.546 247.103 132.603 247.369 132.603C247.635 132.603 247.864 132.546 248.056 132.432C248.254 132.312 248.405 132.142 248.51 131.924C248.619 131.7 248.674 131.437 248.674 131.135ZM251.088 126.142C251.088 126.736 250.929 127.257 250.611 127.705C250.299 128.148 249.861 128.494 249.299 128.744C248.741 128.989 248.098 129.111 247.369 129.111C246.645 129.111 245.999 128.989 245.431 128.744C244.869 128.494 244.426 128.148 244.103 127.705C243.786 127.257 243.627 126.736 243.627 126.142C243.627 125.445 243.786 124.859 244.103 124.385C244.426 123.911 244.869 123.551 245.431 123.307C245.994 123.062 246.635 122.939 247.353 122.939C248.082 122.939 248.728 123.062 249.291 123.307C249.853 123.551 250.293 123.911 250.611 124.385C250.929 124.859 251.088 125.445 251.088 126.142ZM248.455 126.283C248.455 126.012 248.413 125.78 248.33 125.588C248.247 125.39 248.124 125.239 247.963 125.135C247.801 125.025 247.598 124.971 247.353 124.971C247.119 124.971 246.921 125.023 246.76 125.127C246.598 125.231 246.476 125.382 246.392 125.58C246.309 125.773 246.267 126.007 246.267 126.283C246.267 126.554 246.309 126.791 246.392 126.994C246.476 127.197 246.598 127.356 246.76 127.471C246.926 127.585 247.129 127.642 247.369 127.642C247.614 127.642 247.814 127.585 247.97 127.471C248.132 127.356 248.252 127.197 248.33 126.994C248.413 126.791 248.455 126.554 248.455 126.283ZM252.713 125.892V125.291C252.713 124.859 252.806 124.465 252.994 124.111C253.181 123.757 253.463 123.473 253.838 123.26C254.213 123.046 254.679 122.939 255.236 122.939C255.809 122.939 256.283 123.046 256.658 123.26C257.033 123.473 257.312 123.757 257.494 124.111C257.681 124.465 257.775 124.859 257.775 125.291V125.892C257.775 126.314 257.681 126.702 257.494 127.057C257.312 127.411 257.033 127.695 256.658 127.908C256.288 128.122 255.819 128.228 255.252 128.228C254.689 128.228 254.22 128.122 253.845 127.908C253.47 127.695 253.187 127.411 252.994 127.057C252.806 126.702 252.713 126.314 252.713 125.892ZM254.4 125.291V125.892C254.4 126.049 254.431 126.197 254.494 126.338C254.556 126.478 254.65 126.593 254.775 126.682C254.905 126.765 255.064 126.807 255.252 126.807C255.444 126.807 255.601 126.765 255.72 126.682C255.84 126.593 255.929 126.478 255.986 126.338C256.049 126.197 256.08 126.049 256.08 125.892V125.291C256.08 125.124 256.049 124.971 255.986 124.83C255.929 124.689 255.838 124.577 255.713 124.494C255.588 124.405 255.429 124.361 255.236 124.361C255.054 124.361 254.9 124.405 254.775 124.494C254.65 124.577 254.556 124.689 254.494 124.83C254.431 124.971 254.4 125.124 254.4 125.291ZM258.111 132.291V131.689C258.111 131.262 258.205 130.872 258.392 130.517C258.585 130.163 258.869 129.879 259.244 129.666C259.624 129.452 260.093 129.346 260.65 129.346C261.223 129.346 261.694 129.452 262.064 129.666C262.439 129.879 262.718 130.163 262.9 130.517C263.088 130.872 263.181 131.262 263.181 131.689V132.291C263.181 132.718 263.088 133.109 262.9 133.463C262.718 133.817 262.442 134.101 262.072 134.314C261.702 134.528 261.233 134.635 260.666 134.635C260.103 134.635 259.632 134.528 259.252 134.314C258.872 134.101 258.585 133.817 258.392 133.463C258.205 133.109 258.111 132.718 258.111 132.291ZM259.806 131.689V132.291C259.806 132.452 259.845 132.603 259.924 132.744C260.002 132.885 260.106 132.999 260.236 133.088C260.366 133.171 260.51 133.213 260.666 133.213C260.905 133.213 261.082 133.171 261.197 133.088C261.317 132.999 261.395 132.885 261.431 132.744C261.473 132.603 261.494 132.452 261.494 132.291V131.689C261.494 131.528 261.463 131.377 261.4 131.236C261.338 131.096 261.244 130.984 261.119 130.9C260.994 130.812 260.838 130.767 260.65 130.767C260.463 130.767 260.306 130.812 260.181 130.9C260.056 130.984 259.963 131.096 259.9 131.236C259.838 131.377 259.806 131.528 259.806 131.689ZM261.306 124.736L255.752 133.627L254.525 133.01L260.08 124.119L261.306 124.736Z" fill="black"/>
<g opacity="0.2">
<path d="M337.656 -140.146L-6.70266 58.6698" stroke="#1563EA"/>
<path d="M342.251 -132.188L-2.10793 66.6281" stroke="#1563EA"/>
<path d="M346.846 -124.229L2.4868 74.5863" stroke="#1563EA"/>
<path d="M351.44 -116.271L7.08152 82.5446" stroke="#1563EA"/>
<path d="M356.035 -108.313L11.6762 90.5029" stroke="#1563EA"/>
<path d="M360.63 -100.354L16.271 98.4612" stroke="#1563EA"/>
<path d="M365.224 -92.3962L20.8655 106.419" stroke="#1563EA"/>
<path d="M369.819 -84.438L25.4602 114.378" stroke="#1563EA"/>
<path d="M374.414 -76.4797L30.0549 122.336" stroke="#1563EA"/>
<path d="M379.009 -68.5215L34.6496 130.294" stroke="#1563EA"/>
<path d="M383.603 -60.5632L39.2444 138.252" stroke="#1563EA"/>
<path d="M388.198 -52.605L43.8391 146.211" stroke="#1563EA"/>
<path d="M392.793 -44.6466L48.4338 154.169" stroke="#1563EA"/>
<path d="M397.387 -36.6884L53.0285 162.127" stroke="#1563EA"/>
<path d="M401.982 -28.7301L57.6233 170.086" stroke="#1563EA"/>
<path d="M406.577 -20.7719L62.218 178.044" stroke="#1563EA"/>
<path d="M411.172 -12.8136L66.8127 186.002" stroke="#1563EA"/>
<path d="M415.766 -4.85535L71.4074 193.96" stroke="#1563EA"/>
<path d="M420.361 3.10291L76.0019 201.919" stroke="#1563EA"/>
<path d="M424.956 11.0612L80.5967 209.877" stroke="#1563EA"/>
<path d="M429.55 19.0194L85.1914 217.835" stroke="#1563EA"/>
<path d="M434.145 26.9777L89.7861 225.793" stroke="#1563EA"/>
<path d="M438.74 34.9359L94.3808 233.752" stroke="#1563EA"/>
<path d="M443.334 42.8942L98.9756 241.71" stroke="#1563EA"/>
<path d="M447.929 50.8525L103.57 249.668" stroke="#1563EA"/>
<path d="M452.524 58.8108L108.165 257.626" stroke="#1563EA"/>
<path d="M457.119 66.769L112.76 265.585" stroke="#1563EA"/>
<path d="M461.713 74.7273L117.354 273.543" stroke="#1563EA"/>
<path d="M466.308 82.6855L121.949 281.501" stroke="#1563EA"/>
<path d="M470.903 90.6438L126.544 289.459" stroke="#1563EA"/>
<path d="M475.497 98.6021L131.138 297.418" stroke="#1563EA"/>
<path d="M480.092 106.56L135.733 305.376" stroke="#1563EA"/>
<path d="M484.687 114.519L140.328 313.334" stroke="#1563EA"/>
<path d="M489.281 122.477L144.923 321.293" stroke="#1563EA"/>
<path d="M493.876 130.435L149.517 329.251" stroke="#1563EA"/>
<path d="M498.471 138.393L154.112 337.209" stroke="#1563EA"/>
<path d="M503.066 146.352L158.707 345.167" stroke="#1563EA"/>
<path d="M507.66 154.31L163.301 353.126" stroke="#1563EA"/>
<path d="M512.255 162.268L167.896 361.084" stroke="#1563EA"/>
<path d="M516.85 170.227L172.491 369.042" stroke="#1563EA"/>
<path d="M521.445 178.185L177.086 377.001" stroke="#1563EA"/>
<path d="M526.039 186.143L181.68 384.959" stroke="#1563EA"/>
<path d="M530.634 194.101L186.275 392.917" stroke="#1563EA"/>
<path d="M535.229 202.06L190.87 400.875" stroke="#1563EA"/>
<path d="M539.823 210.018L195.465 408.834" stroke="#1563EA"/>
<path d="M544.418 217.976L200.059 416.792" stroke="#1563EA"/>
<path d="M549.013 225.934L204.654 424.75" stroke="#1563EA"/>
<path d="M553.607 233.893L209.249 432.708" stroke="#1563EA"/>
</g>
</g>
<g clip-path="url(#clip2_4029_3653)">
<rect x="338" y="218.875" width="127" height="127" rx="63.5" fill="#71E0AA" fill-opacity="0.4"/>
<path d="M376.531 267.008L372.766 277.375H371.227L375.562 266H376.555L376.531 267.008ZM379.688 277.375L375.914 267.008L375.891 266H376.883L381.234 277.375H379.688ZM379.492 273.164V274.398H373.102V273.164H379.492ZM388.328 268.922V270.117H384.242V268.922H388.328ZM389.602 268.922V277.375H388.156V268.922H389.602ZM383.891 268.922H385.344L385.125 273C385.089 273.63 385.029 274.188 384.945 274.672C384.867 275.151 384.758 275.562 384.617 275.906C384.482 276.25 384.31 276.531 384.102 276.75C383.898 276.964 383.654 277.122 383.367 277.227C383.081 277.326 382.75 277.375 382.375 277.375H381.922V276.102L382.234 276.078C382.458 276.062 382.648 276.01 382.805 275.922C382.966 275.833 383.102 275.703 383.211 275.531C383.32 275.354 383.409 275.128 383.477 274.852C383.549 274.576 383.604 274.247 383.641 273.867C383.682 273.487 383.714 273.044 383.734 272.539L383.891 268.922ZM396.789 275.453L399.664 268.922H401.055L397.289 277.375H396.289L392.539 268.922H393.93L396.789 275.453ZM393.508 268.922V277.375H392.062V268.922H393.508ZM400.023 277.375V268.922H401.477V277.375H400.023ZM408.789 275.93V271.578C408.789 271.245 408.721 270.956 408.586 270.711C408.456 270.461 408.258 270.268 407.992 270.133C407.727 269.997 407.398 269.93 407.008 269.93C406.643 269.93 406.323 269.992 406.047 270.117C405.776 270.242 405.562 270.406 405.406 270.609C405.255 270.812 405.18 271.031 405.18 271.266H403.734C403.734 270.964 403.812 270.664 403.969 270.367C404.125 270.07 404.349 269.802 404.641 269.562C404.938 269.318 405.292 269.125 405.703 268.984C406.12 268.839 406.583 268.766 407.094 268.766C407.708 268.766 408.25 268.87 408.719 269.078C409.193 269.286 409.562 269.602 409.828 270.023C410.099 270.44 410.234 270.964 410.234 271.594V275.531C410.234 275.812 410.258 276.112 410.305 276.43C410.357 276.747 410.432 277.021 410.531 277.25V277.375H409.023C408.951 277.208 408.893 276.987 408.852 276.711C408.81 276.43 408.789 276.169 408.789 275.93ZM409.039 272.25L409.055 273.266H407.594C407.182 273.266 406.815 273.299 406.492 273.367C406.169 273.43 405.898 273.526 405.68 273.656C405.461 273.786 405.294 273.951 405.18 274.148C405.065 274.341 405.008 274.568 405.008 274.828C405.008 275.094 405.068 275.336 405.188 275.555C405.307 275.773 405.487 275.948 405.727 276.078C405.971 276.203 406.271 276.266 406.625 276.266C407.068 276.266 407.458 276.172 407.797 275.984C408.135 275.797 408.404 275.568 408.602 275.297C408.805 275.026 408.914 274.763 408.93 274.508L409.547 275.203C409.51 275.422 409.411 275.664 409.25 275.93C409.089 276.195 408.872 276.451 408.602 276.695C408.336 276.935 408.018 277.135 407.648 277.297C407.284 277.453 406.872 277.531 406.414 277.531C405.841 277.531 405.339 277.419 404.906 277.195C404.479 276.971 404.146 276.672 403.906 276.297C403.672 275.917 403.555 275.492 403.555 275.023C403.555 274.57 403.643 274.172 403.82 273.828C403.997 273.479 404.253 273.19 404.586 272.961C404.919 272.727 405.32 272.549 405.789 272.43C406.258 272.31 406.781 272.25 407.359 272.25H409.039ZM415.828 268.922V277.375H414.375V268.922H415.828ZM418.664 268.922V270.094H411.594V268.922H418.664ZM421.273 271.828H423.812C424.495 271.828 425.07 271.948 425.539 272.188C426.008 272.422 426.362 272.747 426.602 273.164C426.846 273.576 426.969 274.044 426.969 274.57C426.969 274.961 426.901 275.328 426.766 275.672C426.63 276.01 426.427 276.307 426.156 276.562C425.891 276.818 425.56 277.018 425.164 277.164C424.773 277.305 424.323 277.375 423.812 277.375H420.219V268.922H421.664V276.188H423.812C424.229 276.188 424.562 276.112 424.812 275.961C425.062 275.81 425.242 275.615 425.352 275.375C425.461 275.135 425.516 274.885 425.516 274.625C425.516 274.37 425.461 274.12 425.352 273.875C425.242 273.63 425.062 273.427 424.812 273.266C424.562 273.099 424.229 273.016 423.812 273.016H421.273V271.828ZM429.977 268.922V277.375H428.531V268.922H429.977Z" fill="black"/>
<path d="M385.742 286V297.375H383.109V288.969L380.516 289.727V287.727L385.5 286H385.742ZM397.133 295.344V297.375H389.195V295.656L392.852 291.812C393.174 291.443 393.435 291.112 393.633 290.82C393.831 290.523 393.974 290.255 394.062 290.016C394.156 289.776 394.203 289.56 394.203 289.367C394.203 289.039 394.154 288.766 394.055 288.547C393.961 288.323 393.82 288.154 393.633 288.039C393.451 287.924 393.224 287.867 392.953 287.867C392.682 287.867 392.445 287.945 392.242 288.102C392.039 288.258 391.88 288.471 391.766 288.742C391.656 289.013 391.602 289.318 391.602 289.656H388.961C388.961 288.958 389.13 288.32 389.469 287.742C389.812 287.164 390.289 286.703 390.898 286.359C391.508 286.01 392.214 285.836 393.016 285.836C393.854 285.836 394.557 285.966 395.125 286.227C395.693 286.487 396.12 286.865 396.406 287.359C396.698 287.849 396.844 288.44 396.844 289.133C396.844 289.529 396.781 289.909 396.656 290.273C396.531 290.638 396.352 291 396.117 291.359C395.883 291.714 395.596 292.078 395.258 292.453C394.924 292.828 394.544 293.227 394.117 293.648L392.648 295.344H397.133ZM398.688 296.141C398.688 295.766 398.823 295.453 399.094 295.203C399.365 294.948 399.714 294.82 400.141 294.82C400.573 294.82 400.922 294.948 401.188 295.203C401.458 295.453 401.594 295.766 401.594 296.141C401.594 296.516 401.458 296.831 401.188 297.086C400.922 297.336 400.573 297.461 400.141 297.461C399.714 297.461 399.365 297.336 399.094 297.086C398.823 296.831 398.688 296.516 398.688 296.141ZM411.227 286V287.406L406.977 297.375H404.195L408.453 288.031H403.023V286H411.227ZM412.609 288.789V288.188C412.609 287.755 412.703 287.362 412.891 287.008C413.078 286.654 413.359 286.37 413.734 286.156C414.109 285.943 414.576 285.836 415.133 285.836C415.706 285.836 416.18 285.943 416.555 286.156C416.93 286.37 417.208 286.654 417.391 287.008C417.578 287.362 417.672 287.755 417.672 288.188V288.789C417.672 289.211 417.578 289.599 417.391 289.953C417.208 290.307 416.93 290.591 416.555 290.805C416.185 291.018 415.716 291.125 415.148 291.125C414.586 291.125 414.117 291.018 413.742 290.805C413.367 290.591 413.083 290.307 412.891 289.953C412.703 289.599 412.609 289.211 412.609 288.789ZM414.297 288.188V288.789C414.297 288.945 414.328 289.094 414.391 289.234C414.453 289.375 414.547 289.49 414.672 289.578C414.802 289.661 414.961 289.703 415.148 289.703C415.341 289.703 415.497 289.661 415.617 289.578C415.737 289.49 415.826 289.375 415.883 289.234C415.945 289.094 415.977 288.945 415.977 288.789V288.188C415.977 288.021 415.945 287.867 415.883 287.727C415.826 287.586 415.734 287.474 415.609 287.391C415.484 287.302 415.326 287.258 415.133 287.258C414.951 287.258 414.797 287.302 414.672 287.391C414.547 287.474 414.453 287.586 414.391 287.727C414.328 287.867 414.297 288.021 414.297 288.188ZM418.008 295.188V294.586C418.008 294.159 418.102 293.768 418.289 293.414C418.482 293.06 418.766 292.776 419.141 292.562C419.521 292.349 419.99 292.242 420.547 292.242C421.12 292.242 421.591 292.349 421.961 292.562C422.336 292.776 422.615 293.06 422.797 293.414C422.984 293.768 423.078 294.159 423.078 294.586V295.188C423.078 295.615 422.984 296.005 422.797 296.359C422.615 296.714 422.339 296.997 421.969 297.211C421.599 297.424 421.13 297.531 420.562 297.531C420 297.531 419.529 297.424 419.148 297.211C418.768 296.997 418.482 296.714 418.289 296.359C418.102 296.005 418.008 295.615 418.008 295.188ZM419.703 294.586V295.188C419.703 295.349 419.742 295.5 419.82 295.641C419.898 295.781 420.003 295.896 420.133 295.984C420.263 296.068 420.406 296.109 420.562 296.109C420.802 296.109 420.979 296.068 421.094 295.984C421.214 295.896 421.292 295.781 421.328 295.641C421.37 295.5 421.391 295.349 421.391 295.188V294.586C421.391 294.424 421.359 294.273 421.297 294.133C421.234 293.992 421.141 293.88 421.016 293.797C420.891 293.708 420.734 293.664 420.547 293.664C420.359 293.664 420.203 293.708 420.078 293.797C419.953 293.88 419.859 293.992 419.797 294.133C419.734 294.273 419.703 294.424 419.703 294.586ZM421.203 287.633L415.648 296.523L414.422 295.906L419.977 287.016L421.203 287.633Z" fill="black"/>
<g opacity="0.2">
<path d="M552.656 77.8541L208.297 276.67" stroke="#1563EA"/>
<path d="M557.251 85.8124L212.892 284.628" stroke="#1563EA"/>
<path d="M561.846 93.7706L217.487 292.586" stroke="#1563EA"/>
<path d="M566.44 101.729L222.082 300.545" stroke="#1563EA"/>
<path d="M571.035 109.687L226.676 308.503" stroke="#1563EA"/>
<path d="M575.63 117.646L231.271 316.461" stroke="#1563EA"/>
<path d="M580.224 125.604L235.865 324.419" stroke="#1563EA"/>
<path d="M584.819 133.562L240.46 332.378" stroke="#1563EA"/>
<path d="M589.414 141.52L245.055 340.336" stroke="#1563EA"/>
<path d="M594.009 149.479L249.65 348.294" stroke="#1563EA"/>
<path d="M598.603 157.437L254.244 356.252" stroke="#1563EA"/>
<path d="M603.198 165.395L258.839 364.211" stroke="#1563EA"/>
<path d="M607.793 173.353L263.434 372.169" stroke="#1563EA"/>
<path d="M612.387 181.312L268.029 380.127" stroke="#1563EA"/>
<path d="M616.982 189.27L272.623 388.086" stroke="#1563EA"/>
<path d="M621.577 197.228L277.218 396.044" stroke="#1563EA"/>
<path d="M626.172 205.186L281.813 404.002" stroke="#1563EA"/>
<path d="M630.766 213.145L286.407 411.96" stroke="#1563EA"/>
<path d="M635.361 221.103L291.002 419.919" stroke="#1563EA"/>
<path d="M639.956 229.061L295.597 427.877" stroke="#1563EA"/>
<path d="M644.55 237.019L300.191 435.835" stroke="#1563EA"/>
<path d="M649.145 244.978L304.786 443.793" stroke="#1563EA"/>
<path d="M653.74 252.936L309.381 451.752" stroke="#1563EA"/>
<path d="M658.334 260.894L313.976 459.71" stroke="#1563EA"/>
<path d="M662.929 268.852L318.57 467.668" stroke="#1563EA"/>
<path d="M667.524 276.811L323.165 475.626" stroke="#1563EA"/>
<path d="M672.119 284.769L327.76 483.585" stroke="#1563EA"/>
<path d="M676.713 292.727L332.354 491.543" stroke="#1563EA"/>
<path d="M681.308 300.686L336.949 499.501" stroke="#1563EA"/>
<path d="M685.903 308.644L341.544 507.459" stroke="#1563EA"/>
<path d="M690.497 316.602L346.138 515.418" stroke="#1563EA"/>
<path d="M695.092 324.56L350.733 523.376" stroke="#1563EA"/>
<path d="M699.687 332.519L355.328 531.334" stroke="#1563EA"/>
<path d="M704.281 340.477L359.923 539.293" stroke="#1563EA"/>
</g>
</g>
<g clip-path="url(#clip3_4029_3653)">
<rect x="403" y="358.875" width="145" height="145" rx="72.5" fill="#71E0AA" fill-opacity="0.4"/>
<path d="M448.523 415V426.375H447.039V415H448.523ZM452.18 415V416.234H443.391V415H452.18ZM457.742 424.93V420.578C457.742 420.245 457.674 419.956 457.539 419.711C457.409 419.461 457.211 419.268 456.945 419.133C456.68 418.997 456.352 418.93 455.961 418.93C455.596 418.93 455.276 418.992 455 419.117C454.729 419.242 454.516 419.406 454.359 419.609C454.208 419.812 454.133 420.031 454.133 420.266H452.688C452.688 419.964 452.766 419.664 452.922 419.367C453.078 419.07 453.302 418.802 453.594 418.562C453.891 418.318 454.245 418.125 454.656 417.984C455.073 417.839 455.536 417.766 456.047 417.766C456.661 417.766 457.203 417.87 457.672 418.078C458.146 418.286 458.516 418.602 458.781 419.023C459.052 419.44 459.188 419.964 459.188 420.594V424.531C459.188 424.812 459.211 425.112 459.258 425.43C459.31 425.747 459.385 426.021 459.484 426.25V426.375H457.977C457.904 426.208 457.846 425.987 457.805 425.711C457.763 425.43 457.742 425.169 457.742 424.93ZM457.992 421.25L458.008 422.266H456.547C456.135 422.266 455.768 422.299 455.445 422.367C455.122 422.43 454.852 422.526 454.633 422.656C454.414 422.786 454.247 422.951 454.133 423.148C454.018 423.341 453.961 423.568 453.961 423.828C453.961 424.094 454.021 424.336 454.141 424.555C454.26 424.773 454.44 424.948 454.68 425.078C454.924 425.203 455.224 425.266 455.578 425.266C456.021 425.266 456.411 425.172 456.75 424.984C457.089 424.797 457.357 424.568 457.555 424.297C457.758 424.026 457.867 423.763 457.883 423.508L458.5 424.203C458.464 424.422 458.365 424.664 458.203 424.93C458.042 425.195 457.826 425.451 457.555 425.695C457.289 425.935 456.971 426.135 456.602 426.297C456.237 426.453 455.826 426.531 455.367 426.531C454.794 426.531 454.292 426.419 453.859 426.195C453.432 425.971 453.099 425.672 452.859 425.297C452.625 424.917 452.508 424.492 452.508 424.023C452.508 423.57 452.596 423.172 452.773 422.828C452.951 422.479 453.206 422.19 453.539 421.961C453.872 421.727 454.273 421.549 454.742 421.43C455.211 421.31 455.734 421.25 456.312 421.25H457.992ZM461.586 417.922H463.031V425.188H466.125V417.922H467.578V425.188H470.664V417.922H472.109V426.375H461.586V417.922ZM475.984 417.922V426.375H474.539V417.922H475.984ZM481.531 417.922L477.523 422.766H475.5L475.281 421.5H476.938L479.773 417.922H481.531ZM479.977 426.375L476.867 422.547L477.797 421.5L481.812 426.375H479.977ZM486.453 426.531C485.865 426.531 485.331 426.432 484.852 426.234C484.378 426.031 483.969 425.747 483.625 425.383C483.286 425.018 483.026 424.586 482.844 424.086C482.661 423.586 482.57 423.039 482.57 422.445V422.117C482.57 421.43 482.672 420.818 482.875 420.281C483.078 419.74 483.354 419.281 483.703 418.906C484.052 418.531 484.448 418.247 484.891 418.055C485.333 417.862 485.792 417.766 486.266 417.766C486.87 417.766 487.391 417.87 487.828 418.078C488.271 418.286 488.633 418.578 488.914 418.953C489.195 419.323 489.404 419.76 489.539 420.266C489.674 420.766 489.742 421.312 489.742 421.906V422.555H483.43V421.375H488.297V421.266C488.276 420.891 488.198 420.526 488.062 420.172C487.932 419.818 487.724 419.526 487.438 419.297C487.151 419.068 486.76 418.953 486.266 418.953C485.938 418.953 485.635 419.023 485.359 419.164C485.083 419.299 484.846 419.503 484.648 419.773C484.451 420.044 484.297 420.375 484.188 420.766C484.078 421.156 484.023 421.607 484.023 422.117V422.445C484.023 422.846 484.078 423.224 484.188 423.578C484.302 423.927 484.466 424.234 484.68 424.5C484.898 424.766 485.161 424.974 485.469 425.125C485.781 425.276 486.135 425.352 486.531 425.352C487.042 425.352 487.474 425.247 487.828 425.039C488.182 424.831 488.492 424.552 488.758 424.203L489.633 424.898C489.451 425.174 489.219 425.438 488.938 425.688C488.656 425.938 488.31 426.141 487.898 426.297C487.492 426.453 487.01 426.531 486.453 426.531ZM497.164 421.586V422.758H492.695V421.586H497.164ZM493 417.922V426.375H491.555V417.922H493ZM498.336 417.922V426.375H496.883V417.922H498.336ZM504.109 417.922V426.375H502.656V417.922H504.109ZM506.945 417.922V419.094H499.875V417.922H506.945Z" fill="black"/>
<path d="M459.742 435V446.375H457.109V437.969L454.516 438.727V436.727L459.5 435H459.742ZM471.297 441.93V443.961H463.109L462.953 442.352L467.523 435H469.602L467.344 438.695L465.469 441.93H471.297ZM470.148 435V446.375H467.516V435H470.148ZM472.688 445.141C472.688 444.766 472.823 444.453 473.094 444.203C473.365 443.948 473.714 443.82 474.141 443.82C474.573 443.82 474.922 443.948 475.188 444.203C475.458 444.453 475.594 444.766 475.594 445.141C475.594 445.516 475.458 445.831 475.188 446.086C474.922 446.336 474.573 446.461 474.141 446.461C473.714 446.461 473.365 446.336 473.094 446.086C472.823 445.831 472.688 445.516 472.688 445.141ZM479.57 441.305L477.477 440.812L478.164 435H484.812V437.047H480.312L480.055 439.305C480.18 439.232 480.391 439.146 480.688 439.047C480.99 438.943 481.323 438.891 481.688 438.891C482.25 438.891 482.747 438.977 483.18 439.148C483.617 439.315 483.987 439.562 484.289 439.891C484.591 440.214 484.818 440.612 484.969 441.086C485.125 441.56 485.203 442.102 485.203 442.711C485.203 443.201 485.122 443.674 484.961 444.133C484.805 444.586 484.562 444.995 484.234 445.359C483.911 445.719 483.503 446.005 483.008 446.219C482.513 446.427 481.927 446.531 481.25 446.531C480.745 446.531 480.253 446.453 479.773 446.297C479.294 446.141 478.862 445.917 478.477 445.625C478.096 445.328 477.794 444.971 477.57 444.555C477.352 444.133 477.245 443.661 477.25 443.141H479.898C479.914 443.417 479.979 443.656 480.094 443.859C480.208 444.062 480.362 444.221 480.555 444.336C480.753 444.445 480.979 444.5 481.234 444.5C481.495 444.5 481.711 444.448 481.883 444.344C482.055 444.24 482.19 444.096 482.289 443.914C482.388 443.732 482.458 443.523 482.5 443.289C482.542 443.049 482.562 442.797 482.562 442.531C482.562 442.25 482.531 441.997 482.469 441.773C482.411 441.549 482.318 441.359 482.188 441.203C482.057 441.042 481.888 440.919 481.68 440.836C481.477 440.753 481.232 440.711 480.945 440.711C480.565 440.711 480.266 440.776 480.047 440.906C479.828 441.036 479.669 441.169 479.57 441.305ZM486.609 437.789V437.188C486.609 436.755 486.703 436.362 486.891 436.008C487.078 435.654 487.359 435.37 487.734 435.156C488.109 434.943 488.576 434.836 489.133 434.836C489.706 434.836 490.18 434.943 490.555 435.156C490.93 435.37 491.208 435.654 491.391 436.008C491.578 436.362 491.672 436.755 491.672 437.188V437.789C491.672 438.211 491.578 438.599 491.391 438.953C491.208 439.307 490.93 439.591 490.555 439.805C490.185 440.018 489.716 440.125 489.148 440.125C488.586 440.125 488.117 440.018 487.742 439.805C487.367 439.591 487.083 439.307 486.891 438.953C486.703 438.599 486.609 438.211 486.609 437.789ZM488.297 437.188V437.789C488.297 437.945 488.328 438.094 488.391 438.234C488.453 438.375 488.547 438.49 488.672 438.578C488.802 438.661 488.961 438.703 489.148 438.703C489.341 438.703 489.497 438.661 489.617 438.578C489.737 438.49 489.826 438.375 489.883 438.234C489.945 438.094 489.977 437.945 489.977 437.789V437.188C489.977 437.021 489.945 436.867 489.883 436.727C489.826 436.586 489.734 436.474 489.609 436.391C489.484 436.302 489.326 436.258 489.133 436.258C488.951 436.258 488.797 436.302 488.672 436.391C488.547 436.474 488.453 436.586 488.391 436.727C488.328 436.867 488.297 437.021 488.297 437.188ZM492.008 444.188V443.586C492.008 443.159 492.102 442.768 492.289 442.414C492.482 442.06 492.766 441.776 493.141 441.562C493.521 441.349 493.99 441.242 494.547 441.242C495.12 441.242 495.591 441.349 495.961 441.562C496.336 441.776 496.615 442.06 496.797 442.414C496.984 442.768 497.078 443.159 497.078 443.586V444.188C497.078 444.615 496.984 445.005 496.797 445.359C496.615 445.714 496.339 445.997 495.969 446.211C495.599 446.424 495.13 446.531 494.562 446.531C494 446.531 493.529 446.424 493.148 446.211C492.768 445.997 492.482 445.714 492.289 445.359C492.102 445.005 492.008 444.615 492.008 444.188ZM493.703 443.586V444.188C493.703 444.349 493.742 444.5 493.82 444.641C493.898 444.781 494.003 444.896 494.133 444.984C494.263 445.068 494.406 445.109 494.562 445.109C494.802 445.109 494.979 445.068 495.094 444.984C495.214 444.896 495.292 444.781 495.328 444.641C495.37 444.5 495.391 444.349 495.391 444.188V443.586C495.391 443.424 495.359 443.273 495.297 443.133C495.234 442.992 495.141 442.88 495.016 442.797C494.891 442.708 494.734 442.664 494.547 442.664C494.359 442.664 494.203 442.708 494.078 442.797C493.953 442.88 493.859 442.992 493.797 443.133C493.734 443.273 493.703 443.424 493.703 443.586ZM495.203 436.633L489.648 445.523L488.422 444.906L493.977 436.016L495.203 436.633Z" fill="black"/>
<g opacity="0.2">
<path d="M617.656 217.854L273.297 416.67" stroke="#1563EA"/>
<path d="M622.251 225.812L277.892 424.628" stroke="#1563EA"/>
<path d="M626.846 233.771L282.487 432.586" stroke="#1563EA"/>
<path d="M631.44 241.729L287.082 440.545" stroke="#1563EA"/>
<path d="M636.035 249.687L291.676 448.503" stroke="#1563EA"/>
<path d="M640.63 257.645L296.271 456.461" stroke="#1563EA"/>
<path d="M645.224 265.604L300.865 464.419" stroke="#1563EA"/>
<path d="M649.819 273.562L305.46 472.378" stroke="#1563EA"/>
<path d="M654.414 281.52L310.055 480.336" stroke="#1563EA"/>
<path d="M659.009 289.479L314.65 488.294" stroke="#1563EA"/>
<path d="M663.603 297.437L319.244 496.253" stroke="#1563EA"/>
<path d="M668.198 305.395L323.839 504.211" stroke="#1563EA"/>
<path d="M672.793 313.353L328.434 512.169" stroke="#1563EA"/>
<path d="M677.387 321.312L333.029 520.127" stroke="#1563EA"/>
<path d="M681.982 329.27L337.623 528.086" stroke="#1563EA"/>
<path d="M686.577 337.228L342.218 536.044" stroke="#1563EA"/>
<path d="M691.172 345.186L346.813 544.002" stroke="#1563EA"/>
<path d="M695.766 353.145L351.407 551.96" stroke="#1563EA"/>
<path d="M700.361 361.103L356.002 559.919" stroke="#1563EA"/>
<path d="M704.956 369.061L360.597 567.877" stroke="#1563EA"/>
<path d="M709.55 377.019L365.191 575.835" stroke="#1563EA"/>
<path d="M714.145 384.978L369.786 583.793" stroke="#1563EA"/>
<path d="M718.74 392.936L374.381 591.752" stroke="#1563EA"/>
<path d="M723.334 400.894L378.976 599.71" stroke="#1563EA"/>
<path d="M727.929 408.852L383.57 607.668" stroke="#1563EA"/>
<path d="M732.524 416.811L388.165 615.626" stroke="#1563EA"/>
<path d="M737.119 424.769L392.76 623.585" stroke="#1563EA"/>
<path d="M741.713 432.727L397.354 631.543" stroke="#1563EA"/>
<path d="M746.308 440.686L401.949 639.501" stroke="#1563EA"/>
<path d="M750.903 448.644L406.544 647.459" stroke="#1563EA"/>
<path d="M755.497 456.602L411.138 655.418" stroke="#1563EA"/>
<path d="M760.092 464.56L415.733 663.376" stroke="#1563EA"/>
<path d="M764.687 472.519L420.328 671.334" stroke="#1563EA"/>
<path d="M769.281 480.477L424.923 679.293" stroke="#1563EA"/>
<path d="M773.876 488.435L429.517 687.251" stroke="#1563EA"/>
<path d="M778.471 496.393L434.112 695.209" stroke="#1563EA"/>
</g>
</g>
<g clip-path="url(#clip4_4029_3653)">
<rect x="415" y="85.875" width="91" height="91" rx="45.5" fill="#71E0AA" fill-opacity="0.4"/>
<path d="M436.688 122.758H438.188C438.109 123.477 437.904 124.12 437.57 124.688C437.237 125.255 436.766 125.706 436.156 126.039C435.547 126.367 434.786 126.531 433.875 126.531C433.208 126.531 432.602 126.406 432.055 126.156C431.513 125.906 431.047 125.552 430.656 125.094C430.266 124.63 429.964 124.076 429.75 123.43C429.542 122.779 429.438 122.055 429.438 121.258V120.125C429.438 119.328 429.542 118.607 429.75 117.961C429.964 117.31 430.268 116.753 430.664 116.289C431.065 115.826 431.547 115.469 432.109 115.219C432.672 114.969 433.305 114.844 434.008 114.844C434.867 114.844 435.594 115.005 436.188 115.328C436.781 115.651 437.242 116.099 437.57 116.672C437.904 117.24 438.109 117.898 438.188 118.648H436.688C436.615 118.117 436.479 117.661 436.281 117.281C436.083 116.896 435.802 116.599 435.438 116.391C435.073 116.182 434.596 116.078 434.008 116.078C433.503 116.078 433.057 116.174 432.672 116.367C432.292 116.56 431.971 116.833 431.711 117.188C431.456 117.542 431.263 117.966 431.133 118.461C431.003 118.956 430.938 119.505 430.938 120.109V121.258C430.938 121.815 430.995 122.339 431.109 122.828C431.229 123.318 431.409 123.747 431.648 124.117C431.888 124.487 432.193 124.779 432.562 124.992C432.932 125.201 433.37 125.305 433.875 125.305C434.516 125.305 435.026 125.203 435.406 125C435.786 124.797 436.073 124.505 436.266 124.125C436.464 123.745 436.604 123.289 436.688 122.758ZM443.469 117.922V126.375H442.016V117.922H443.469ZM446.305 117.922V119.094H439.234V117.922H446.305ZM452.586 124.93V120.578C452.586 120.245 452.518 119.956 452.383 119.711C452.253 119.461 452.055 119.268 451.789 119.133C451.523 118.997 451.195 118.93 450.805 118.93C450.44 118.93 450.12 118.992 449.844 119.117C449.573 119.242 449.359 119.406 449.203 119.609C449.052 119.812 448.977 120.031 448.977 120.266H447.531C447.531 119.964 447.609 119.664 447.766 119.367C447.922 119.07 448.146 118.802 448.438 118.562C448.734 118.318 449.089 118.125 449.5 117.984C449.917 117.839 450.38 117.766 450.891 117.766C451.505 117.766 452.047 117.87 452.516 118.078C452.99 118.286 453.359 118.602 453.625 119.023C453.896 119.44 454.031 119.964 454.031 120.594V124.531C454.031 124.812 454.055 125.112 454.102 125.43C454.154 125.747 454.229 126.021 454.328 126.25V126.375H452.82C452.747 126.208 452.69 125.987 452.648 125.711C452.607 125.43 452.586 125.169 452.586 124.93ZM452.836 121.25L452.852 122.266H451.391C450.979 122.266 450.612 122.299 450.289 122.367C449.966 122.43 449.695 122.526 449.477 122.656C449.258 122.786 449.091 122.951 448.977 123.148C448.862 123.341 448.805 123.568 448.805 123.828C448.805 124.094 448.865 124.336 448.984 124.555C449.104 124.773 449.284 124.948 449.523 125.078C449.768 125.203 450.068 125.266 450.422 125.266C450.865 125.266 451.255 125.172 451.594 124.984C451.932 124.797 452.201 124.568 452.398 124.297C452.602 124.026 452.711 123.763 452.727 123.508L453.344 124.203C453.307 124.422 453.208 124.664 453.047 124.93C452.885 125.195 452.669 125.451 452.398 125.695C452.133 125.935 451.815 126.135 451.445 126.297C451.081 126.453 450.669 126.531 450.211 126.531C449.638 126.531 449.135 126.419 448.703 126.195C448.276 125.971 447.943 125.672 447.703 125.297C447.469 124.917 447.352 124.492 447.352 124.023C447.352 123.57 447.44 123.172 447.617 122.828C447.794 122.479 448.049 122.19 448.383 121.961C448.716 121.727 449.117 121.549 449.586 121.43C450.055 121.31 450.578 121.25 451.156 121.25H452.836ZM461.164 124.453L464.039 117.922H465.43L461.664 126.375H460.664L456.914 117.922H458.305L461.164 124.453ZM457.883 117.922V126.375H456.438V117.922H457.883ZM464.398 126.375V117.922H465.852V126.375H464.398ZM473.602 114.242H474.789C474.789 114.753 474.711 115.159 474.555 115.461C474.398 115.758 474.185 115.987 473.914 116.148C473.648 116.31 473.346 116.432 473.008 116.516C472.674 116.599 472.328 116.68 471.969 116.758C471.521 116.852 471.104 117 470.719 117.203C470.339 117.401 470.01 117.682 469.734 118.047C469.464 118.411 469.263 118.885 469.133 119.469C469.008 120.052 468.974 120.773 469.031 121.633V122.352H467.844V121.633C467.844 120.669 467.935 119.828 468.117 119.109C468.305 118.391 468.568 117.784 468.906 117.289C469.245 116.794 469.646 116.401 470.109 116.109C470.578 115.818 471.094 115.617 471.656 115.508C472.062 115.43 472.411 115.346 472.703 115.258C472.995 115.164 473.216 115.039 473.367 114.883C473.523 114.727 473.602 114.513 473.602 114.242ZM471.891 118.406C472.443 118.406 472.935 118.503 473.367 118.695C473.799 118.888 474.167 119.156 474.469 119.5C474.771 119.844 475 120.25 475.156 120.719C475.318 121.182 475.398 121.688 475.398 122.234V122.406C475.398 122.995 475.312 123.542 475.141 124.047C474.974 124.547 474.727 124.984 474.398 125.359C474.076 125.729 473.68 126.018 473.211 126.227C472.747 126.435 472.219 126.539 471.625 126.539C471.031 126.539 470.5 126.435 470.031 126.227C469.568 126.018 469.172 125.729 468.844 125.359C468.516 124.984 468.266 124.547 468.094 124.047C467.927 123.542 467.844 122.995 467.844 122.406V122.234C467.844 122.104 467.867 121.977 467.914 121.852C467.961 121.727 468.018 121.599 468.086 121.469C468.159 121.339 468.224 121.201 468.281 121.055C468.474 120.586 468.737 120.151 469.07 119.75C469.409 119.349 469.812 119.026 470.281 118.781C470.755 118.531 471.292 118.406 471.891 118.406ZM471.609 119.586C471.078 119.586 470.641 119.708 470.297 119.953C469.958 120.198 469.706 120.523 469.539 120.93C469.372 121.331 469.289 121.766 469.289 122.234V122.406C469.289 122.802 469.336 123.177 469.43 123.531C469.523 123.885 469.664 124.201 469.852 124.477C470.044 124.747 470.286 124.961 470.578 125.117C470.875 125.273 471.224 125.352 471.625 125.352C472.026 125.352 472.372 125.273 472.664 125.117C472.956 124.961 473.195 124.747 473.383 124.477C473.57 124.201 473.711 123.885 473.805 123.531C473.898 123.177 473.945 122.802 473.945 122.406V122.234C473.945 121.88 473.898 121.544 473.805 121.227C473.711 120.909 473.568 120.628 473.375 120.383C473.188 120.138 472.945 119.945 472.648 119.805C472.357 119.659 472.01 119.586 471.609 119.586ZM479.414 125.5L481.766 117.922H483.312L479.922 127.68C479.844 127.888 479.74 128.112 479.609 128.352C479.484 128.596 479.323 128.828 479.125 129.047C478.927 129.266 478.688 129.443 478.406 129.578C478.13 129.719 477.799 129.789 477.414 129.789C477.299 129.789 477.154 129.773 476.977 129.742C476.799 129.711 476.674 129.685 476.602 129.664L476.594 128.492C476.635 128.497 476.701 128.503 476.789 128.508C476.883 128.518 476.948 128.523 476.984 128.523C477.312 128.523 477.591 128.479 477.82 128.391C478.049 128.307 478.242 128.164 478.398 127.961C478.56 127.763 478.698 127.49 478.812 127.141L479.414 125.5ZM477.688 117.922L479.883 124.484L480.258 126.008L479.219 126.539L476.109 117.922H477.688ZM489.938 117.922V119.117H485.852V117.922H489.938ZM491.211 117.922V126.375H489.766V117.922H491.211ZM485.5 117.922H486.953L486.734 122C486.698 122.63 486.638 123.188 486.555 123.672C486.477 124.151 486.367 124.562 486.227 124.906C486.091 125.25 485.919 125.531 485.711 125.75C485.508 125.964 485.263 126.122 484.977 126.227C484.69 126.326 484.359 126.375 483.984 126.375H483.531V125.102L483.844 125.078C484.068 125.062 484.258 125.01 484.414 124.922C484.576 124.833 484.711 124.703 484.82 124.531C484.93 124.354 485.018 124.128 485.086 123.852C485.159 123.576 485.214 123.247 485.25 122.867C485.292 122.487 485.323 122.044 485.344 121.539L485.5 117.922Z" fill="black"/>
<path d="M445.219 144.422H445.375C445.896 144.422 446.365 144.365 446.781 144.25C447.198 144.135 447.555 143.958 447.852 143.719C448.148 143.474 448.375 143.159 448.531 142.773C448.693 142.383 448.773 141.911 448.773 141.359V139.008C448.773 138.643 448.742 138.328 448.68 138.062C448.617 137.792 448.526 137.568 448.406 137.391C448.286 137.214 448.143 137.083 447.977 137C447.81 136.911 447.622 136.867 447.414 136.867C447.206 136.867 447.021 136.927 446.859 137.047C446.703 137.161 446.568 137.318 446.453 137.516C446.344 137.708 446.26 137.927 446.203 138.172C446.146 138.411 446.117 138.654 446.117 138.898C446.117 139.174 446.146 139.432 446.203 139.672C446.266 139.906 446.354 140.112 446.469 140.289C446.589 140.461 446.737 140.596 446.914 140.695C447.096 140.794 447.307 140.844 447.547 140.844C447.786 140.844 447.992 140.802 448.164 140.719C448.341 140.63 448.487 140.516 448.602 140.375C448.716 140.229 448.799 140.073 448.852 139.906C448.909 139.74 448.935 139.576 448.93 139.414L449.695 140.016C449.695 140.349 449.62 140.677 449.469 141C449.318 141.323 449.109 141.617 448.844 141.883C448.578 142.143 448.271 142.352 447.922 142.508C447.578 142.664 447.214 142.742 446.828 142.742C446.312 142.742 445.846 142.651 445.43 142.469C445.018 142.286 444.667 142.026 444.375 141.688C444.083 141.349 443.859 140.945 443.703 140.477C443.552 140.003 443.477 139.477 443.477 138.898C443.477 138.341 443.573 137.818 443.766 137.328C443.958 136.839 444.232 136.409 444.586 136.039C444.94 135.664 445.359 135.37 445.844 135.156C446.328 134.943 446.859 134.836 447.438 134.836C447.984 134.836 448.497 134.94 448.977 135.148C449.456 135.352 449.878 135.651 450.242 136.047C450.607 136.443 450.893 136.93 451.102 137.508C451.31 138.086 451.414 138.747 451.414 139.492V140.398C451.414 141.206 451.315 141.935 451.117 142.586C450.919 143.237 450.638 143.81 450.273 144.305C449.909 144.794 449.477 145.206 448.977 145.539C448.482 145.867 447.932 146.115 447.328 146.281C446.729 146.448 446.094 146.531 445.422 146.531H445.219V144.422ZM453.047 145.141C453.047 144.766 453.182 144.453 453.453 144.203C453.724 143.948 454.073 143.82 454.5 143.82C454.932 143.82 455.281 143.948 455.547 144.203C455.818 144.453 455.953 144.766 455.953 145.141C455.953 145.516 455.818 145.831 455.547 146.086C455.281 146.336 454.932 146.461 454.5 146.461C454.073 146.461 453.724 146.336 453.453 146.086C453.182 145.831 453.047 145.516 453.047 145.141ZM463.508 135V146.375H460.875V137.969L458.281 138.727V136.727L463.266 135H463.508ZM466.969 137.789V137.188C466.969 136.755 467.062 136.362 467.25 136.008C467.438 135.654 467.719 135.37 468.094 135.156C468.469 134.943 468.935 134.836 469.492 134.836C470.065 134.836 470.539 134.943 470.914 135.156C471.289 135.37 471.568 135.654 471.75 136.008C471.938 136.362 472.031 136.755 472.031 137.188V137.789C472.031 138.211 471.938 138.599 471.75 138.953C471.568 139.307 471.289 139.591 470.914 139.805C470.544 140.018 470.076 140.125 469.508 140.125C468.945 140.125 468.477 140.018 468.102 139.805C467.727 139.591 467.443 139.307 467.25 138.953C467.062 138.599 466.969 138.211 466.969 137.789ZM468.656 137.188V137.789C468.656 137.945 468.688 138.094 468.75 138.234C468.812 138.375 468.906 138.49 469.031 138.578C469.161 138.661 469.32 138.703 469.508 138.703C469.701 138.703 469.857 138.661 469.977 138.578C470.096 138.49 470.185 138.375 470.242 138.234C470.305 138.094 470.336 137.945 470.336 137.789V137.188C470.336 137.021 470.305 136.867 470.242 136.727C470.185 136.586 470.094 136.474 469.969 136.391C469.844 136.302 469.685 136.258 469.492 136.258C469.31 136.258 469.156 136.302 469.031 136.391C468.906 136.474 468.812 136.586 468.75 136.727C468.688 136.867 468.656 137.021 468.656 137.188ZM472.367 144.188V143.586C472.367 143.159 472.461 142.768 472.648 142.414C472.841 142.06 473.125 141.776 473.5 141.562C473.88 141.349 474.349 141.242 474.906 141.242C475.479 141.242 475.951 141.349 476.32 141.562C476.695 141.776 476.974 142.06 477.156 142.414C477.344 142.768 477.438 143.159 477.438 143.586V144.188C477.438 144.615 477.344 145.005 477.156 145.359C476.974 145.714 476.698 145.997 476.328 146.211C475.958 146.424 475.49 146.531 474.922 146.531C474.359 146.531 473.888 146.424 473.508 146.211C473.128 145.997 472.841 145.714 472.648 145.359C472.461 145.005 472.367 144.615 472.367 144.188ZM474.062 143.586V144.188C474.062 144.349 474.102 144.5 474.18 144.641C474.258 144.781 474.362 144.896 474.492 144.984C474.622 145.068 474.766 145.109 474.922 145.109C475.161 145.109 475.339 145.068 475.453 144.984C475.573 144.896 475.651 144.781 475.688 144.641C475.729 144.5 475.75 144.349 475.75 144.188V143.586C475.75 143.424 475.719 143.273 475.656 143.133C475.594 142.992 475.5 142.88 475.375 142.797C475.25 142.708 475.094 142.664 474.906 142.664C474.719 142.664 474.562 142.708 474.438 142.797C474.312 142.88 474.219 142.992 474.156 143.133C474.094 143.273 474.062 143.424 474.062 143.586ZM475.562 136.633L470.008 145.523L468.781 144.906L474.336 136.016L475.562 136.633Z" fill="black"/>
<g opacity="0.2">
<path d="M629.656 -55.1459L285.297 143.67" stroke="#1563EA"/>
<path d="M634.251 -47.1876L289.892 151.628" stroke="#1563EA"/>
<path d="M638.846 -39.2294L294.487 159.586" stroke="#1563EA"/>
<path d="M643.44 -31.2711L299.082 167.545" stroke="#1563EA"/>
<path d="M648.035 -23.3127L303.676 175.503" stroke="#1563EA"/>
<path d="M652.63 -15.3545L308.271 183.461" stroke="#1563EA"/>
<path d="M657.224 -7.39624L312.865 191.419" stroke="#1563EA"/>
<path d="M661.819 0.562012L317.46 199.378" stroke="#1563EA"/>
<path d="M666.414 8.52026L322.055 207.336" stroke="#1563EA"/>
<path d="M671.009 16.4785L326.65 215.294" stroke="#1563EA"/>
<path d="M675.603 24.4368L331.244 223.252" stroke="#1563EA"/>
<path d="M680.198 32.395L335.839 231.211" stroke="#1563EA"/>
<path d="M684.793 40.3534L340.434 239.169" stroke="#1563EA"/>
<path d="M689.387 48.3116L345.029 247.127" stroke="#1563EA"/>
<path d="M693.982 56.2699L349.623 255.086" stroke="#1563EA"/>
<path d="M698.577 64.2281L354.218 263.044" stroke="#1563EA"/>
<path d="M703.172 72.1864L358.813 271.002" stroke="#1563EA"/>
<path d="M707.766 80.1447L363.407 278.96" stroke="#1563EA"/>
<path d="M712.361 88.1029L368.002 286.919" stroke="#1563EA"/>
<path d="M716.956 96.0612L372.597 294.877" stroke="#1563EA"/>
<path d="M721.55 104.019L377.191 302.835" stroke="#1563EA"/>
<path d="M726.145 111.978L381.786 310.793" stroke="#1563EA"/>
<path d="M730.74 119.936L386.381 318.752" stroke="#1563EA"/>
<path d="M735.334 127.894L390.976 326.71" stroke="#1563EA"/>
<path d="M739.929 135.853L395.57 334.668" stroke="#1563EA"/>
<path d="M744.524 143.811L400.165 342.626" stroke="#1563EA"/>
<path d="M749.119 151.769L404.76 350.585" stroke="#1563EA"/>
<path d="M753.713 159.727L409.354 358.543" stroke="#1563EA"/>
<path d="M758.308 167.686L413.949 366.501" stroke="#1563EA"/>
<path d="M762.903 175.644L418.544 374.459" stroke="#1563EA"/>
</g>
</g>
<g clip-path="url(#clip5_4029_3653)">
<rect x="369.737" y="525.875" width="91" height="91" rx="45.5" fill="#71E0AA" fill-opacity="0.4"/>
<path d="M394.495 555V556.234H389.01V566.375H387.51V555H394.495ZM388.659 559.633H391.76C392.594 559.633 393.297 559.773 393.87 560.055C394.443 560.331 394.878 560.719 395.175 561.219C395.471 561.719 395.62 562.305 395.62 562.977C395.62 563.477 395.537 563.935 395.37 564.352C395.203 564.763 394.956 565.122 394.628 565.43C394.3 565.732 393.896 565.966 393.417 566.133C392.938 566.294 392.385 566.375 391.76 566.375H387.51V555H389.018V565.148H391.76C392.318 565.148 392.768 565.047 393.112 564.844C393.461 564.635 393.716 564.365 393.878 564.031C394.039 563.698 394.12 563.341 394.12 562.961C394.12 562.581 394.039 562.232 393.878 561.914C393.716 561.596 393.461 561.344 393.112 561.156C392.768 560.964 392.318 560.867 391.76 560.867H388.659V559.633ZM398.995 564.086L402.893 557.922H404.346V566.375H402.893V560.211L398.995 566.375H397.557V557.922H398.995V564.086ZM406.792 557.922H408.237V565.188H411.331V557.922H412.784V565.188H415.87V557.922H417.315V566.375H406.792V557.922ZM421.19 557.922V566.375H419.745V557.922H421.19ZM426.737 557.922L422.729 562.766H420.706L420.487 561.5H422.143L424.979 557.922H426.737ZM425.182 566.375L422.073 562.547L423.003 561.5L427.018 566.375H425.182ZM431.659 566.531C431.07 566.531 430.537 566.432 430.057 566.234C429.583 566.031 429.175 565.747 428.831 565.383C428.492 565.018 428.232 564.586 428.05 564.086C427.867 563.586 427.776 563.039 427.776 562.445V562.117C427.776 561.43 427.878 560.818 428.081 560.281C428.284 559.74 428.56 559.281 428.909 558.906C429.258 558.531 429.654 558.247 430.096 558.055C430.539 557.862 430.997 557.766 431.471 557.766C432.076 557.766 432.596 557.87 433.034 558.078C433.477 558.286 433.839 558.578 434.12 558.953C434.401 559.323 434.609 559.76 434.745 560.266C434.88 560.766 434.948 561.312 434.948 561.906V562.555H428.635V561.375H433.503V561.266C433.482 560.891 433.404 560.526 433.268 560.172C433.138 559.818 432.93 559.526 432.643 559.297C432.357 559.068 431.966 558.953 431.471 558.953C431.143 558.953 430.841 559.023 430.565 559.164C430.289 559.299 430.052 559.503 429.854 559.773C429.656 560.044 429.503 560.375 429.393 560.766C429.284 561.156 429.229 561.607 429.229 562.117V562.445C429.229 562.846 429.284 563.224 429.393 563.578C429.508 563.927 429.672 564.234 429.885 564.5C430.104 564.766 430.367 564.974 430.675 565.125C430.987 565.276 431.341 565.352 431.737 565.352C432.247 565.352 432.68 565.247 433.034 565.039C433.388 564.831 433.698 564.552 433.964 564.203L434.839 564.898C434.656 565.174 434.425 565.438 434.143 565.688C433.862 565.938 433.516 566.141 433.104 566.297C432.698 566.453 432.216 566.531 431.659 566.531ZM438.206 557.922V566.375H436.76V557.922H438.206ZM443.753 557.922L439.745 562.766H437.721L437.503 561.5H439.159L441.995 557.922H443.753ZM442.198 566.375L439.089 562.547L440.018 561.5L444.034 566.375H442.198Z" fill="black"/>
<path d="M399.956 584.422H400.112C400.633 584.422 401.102 584.365 401.518 584.25C401.935 584.135 402.292 583.958 402.589 583.719C402.885 583.474 403.112 583.159 403.268 582.773C403.43 582.383 403.51 581.911 403.51 581.359V579.008C403.51 578.643 403.479 578.328 403.417 578.062C403.354 577.792 403.263 577.568 403.143 577.391C403.024 577.214 402.88 577.083 402.714 577C402.547 576.911 402.359 576.867 402.151 576.867C401.943 576.867 401.758 576.927 401.596 577.047C401.44 577.161 401.305 577.318 401.19 577.516C401.081 577.708 400.997 577.927 400.94 578.172C400.883 578.411 400.854 578.654 400.854 578.898C400.854 579.174 400.883 579.432 400.94 579.672C401.003 579.906 401.091 580.112 401.206 580.289C401.326 580.461 401.474 580.596 401.651 580.695C401.833 580.794 402.044 580.844 402.284 580.844C402.524 580.844 402.729 580.802 402.901 580.719C403.078 580.63 403.224 580.516 403.339 580.375C403.453 580.229 403.537 580.073 403.589 579.906C403.646 579.74 403.672 579.576 403.667 579.414L404.432 580.016C404.432 580.349 404.357 580.677 404.206 581C404.055 581.323 403.846 581.617 403.581 581.883C403.315 582.143 403.008 582.352 402.659 582.508C402.315 582.664 401.951 582.742 401.565 582.742C401.05 582.742 400.583 582.651 400.167 582.469C399.755 582.286 399.404 582.026 399.112 581.688C398.82 581.349 398.596 580.945 398.44 580.477C398.289 580.003 398.214 579.477 398.214 578.898C398.214 578.341 398.31 577.818 398.503 577.328C398.695 576.839 398.969 576.409 399.323 576.039C399.677 575.664 400.096 575.37 400.581 575.156C401.065 574.943 401.596 574.836 402.175 574.836C402.721 574.836 403.234 574.94 403.714 575.148C404.193 575.352 404.615 575.651 404.979 576.047C405.344 576.443 405.63 576.93 405.839 577.508C406.047 578.086 406.151 578.747 406.151 579.492V580.398C406.151 581.206 406.052 581.935 405.854 582.586C405.656 583.237 405.375 583.81 405.01 584.305C404.646 584.794 404.214 585.206 403.714 585.539C403.219 585.867 402.669 586.115 402.065 586.281C401.466 586.448 400.831 586.531 400.159 586.531H399.956V584.422ZM407.784 585.141C407.784 584.766 407.919 584.453 408.19 584.203C408.461 583.948 408.81 583.82 409.237 583.82C409.669 583.82 410.018 583.948 410.284 584.203C410.555 584.453 410.69 584.766 410.69 585.141C410.69 585.516 410.555 585.831 410.284 586.086C410.018 586.336 409.669 586.461 409.237 586.461C408.81 586.461 408.461 586.336 408.19 586.086C407.919 585.831 407.784 585.516 407.784 585.141ZM418.245 575V586.375H415.612V577.969L413.018 578.727V576.727L418.003 575H418.245ZM421.706 577.789V577.188C421.706 576.755 421.8 576.362 421.987 576.008C422.175 575.654 422.456 575.37 422.831 575.156C423.206 574.943 423.672 574.836 424.229 574.836C424.802 574.836 425.276 574.943 425.651 575.156C426.026 575.37 426.305 575.654 426.487 576.008C426.675 576.362 426.768 576.755 426.768 577.188V577.789C426.768 578.211 426.675 578.599 426.487 578.953C426.305 579.307 426.026 579.591 425.651 579.805C425.281 580.018 424.813 580.125 424.245 580.125C423.682 580.125 423.214 580.018 422.839 579.805C422.464 579.591 422.18 579.307 421.987 578.953C421.8 578.599 421.706 578.211 421.706 577.789ZM423.393 577.188V577.789C423.393 577.945 423.425 578.094 423.487 578.234C423.55 578.375 423.643 578.49 423.768 578.578C423.899 578.661 424.057 578.703 424.245 578.703C424.438 578.703 424.594 578.661 424.714 578.578C424.833 578.49 424.922 578.375 424.979 578.234C425.042 578.094 425.073 577.945 425.073 577.789V577.188C425.073 577.021 425.042 576.867 424.979 576.727C424.922 576.586 424.831 576.474 424.706 576.391C424.581 576.302 424.422 576.258 424.229 576.258C424.047 576.258 423.893 576.302 423.768 576.391C423.643 576.474 423.55 576.586 423.487 576.727C423.425 576.867 423.393 577.021 423.393 577.188ZM427.104 584.188V583.586C427.104 583.159 427.198 582.768 427.385 582.414C427.578 582.06 427.862 581.776 428.237 581.562C428.617 581.349 429.086 581.242 429.643 581.242C430.216 581.242 430.688 581.349 431.057 581.562C431.432 581.776 431.711 582.06 431.893 582.414C432.081 582.768 432.175 583.159 432.175 583.586V584.188C432.175 584.615 432.081 585.005 431.893 585.359C431.711 585.714 431.435 585.997 431.065 586.211C430.695 586.424 430.227 586.531 429.659 586.531C429.096 586.531 428.625 586.424 428.245 586.211C427.865 585.997 427.578 585.714 427.385 585.359C427.198 585.005 427.104 584.615 427.104 584.188ZM428.8 583.586V584.188C428.8 584.349 428.839 584.5 428.917 584.641C428.995 584.781 429.099 584.896 429.229 584.984C429.359 585.068 429.503 585.109 429.659 585.109C429.899 585.109 430.076 585.068 430.19 584.984C430.31 584.896 430.388 584.781 430.425 584.641C430.466 584.5 430.487 584.349 430.487 584.188V583.586C430.487 583.424 430.456 583.273 430.393 583.133C430.331 582.992 430.237 582.88 430.112 582.797C429.987 582.708 429.831 582.664 429.643 582.664C429.456 582.664 429.3 582.708 429.175 582.797C429.05 582.88 428.956 582.992 428.893 583.133C428.831 583.273 428.8 583.424 428.8 583.586ZM430.3 576.633L424.745 585.523L423.518 584.906L429.073 576.016L430.3 576.633Z" fill="black"/>
<g opacity="0.2">
<path d="M584.393 384.854L240.034 583.67" stroke="#1563EA"/>
<path d="M588.988 392.812L244.629 591.628" stroke="#1563EA"/>
<path d="M593.583 400.771L249.224 599.586" stroke="#1563EA"/>
<path d="M598.177 408.729L253.819 607.545" stroke="#1563EA"/>
<path d="M602.772 416.687L258.413 615.503" stroke="#1563EA"/>
<path d="M607.367 424.645L263.008 623.461" stroke="#1563EA"/>
<path d="M611.961 432.604L267.603 631.419" stroke="#1563EA"/>
<path d="M616.556 440.562L272.197 639.378" stroke="#1563EA"/>
<path d="M621.151 448.52L276.792 647.336" stroke="#1563EA"/>
<path d="M625.746 456.479L281.387 655.294" stroke="#1563EA"/>
<path d="M630.34 464.437L285.981 663.253" stroke="#1563EA"/>
<path d="M634.935 472.395L290.576 671.211" stroke="#1563EA"/>
<path d="M639.53 480.353L295.171 679.169" stroke="#1563EA"/>
<path d="M644.125 488.312L299.766 687.127" stroke="#1563EA"/>
<path d="M648.719 496.27L304.36 695.086" stroke="#1563EA"/>
<path d="M653.314 504.228L308.955 703.044" stroke="#1563EA"/>
<path d="M657.909 512.186L313.55 711.002" stroke="#1563EA"/>
<path d="M662.503 520.145L318.145 718.96" stroke="#1563EA"/>
<path d="M667.098 528.103L322.739 726.919" stroke="#1563EA"/>
<path d="M671.693 536.061L327.334 734.877" stroke="#1563EA"/>
<path d="M676.287 544.019L331.928 742.835" stroke="#1563EA"/>
<path d="M680.882 551.978L336.523 750.793" stroke="#1563EA"/>
<path d="M685.477 559.936L341.118 758.752" stroke="#1563EA"/>
<path d="M690.072 567.894L345.713 766.71" stroke="#1563EA"/>
<path d="M694.666 575.852L350.307 774.668" stroke="#1563EA"/>
<path d="M699.261 583.811L354.902 782.626" stroke="#1563EA"/>
<path d="M703.856 591.769L359.497 790.585" stroke="#1563EA"/>
<path d="M708.45 599.727L364.092 798.543" stroke="#1563EA"/>
<path d="M713.045 607.686L368.686 806.501" stroke="#1563EA"/>
<path d="M717.64 615.644L373.281 814.459" stroke="#1563EA"/>
</g>
</g>
<defs>
<clipPath id="clip0_4029_3653">
<rect y="256.875" width="355.81" height="355.81" rx="177.905" fill="white"/>
</clipPath>
<clipPath id="clip1_4029_3653">
<rect x="123" y="0.875" width="237.207" height="237.207" rx="118.603" fill="white"/>
</clipPath>
<clipPath id="clip2_4029_3653">
<rect x="338" y="218.875" width="127" height="127" rx="63.5" fill="white"/>
</clipPath>
<clipPath id="clip3_4029_3653">
<rect x="403" y="358.875" width="145" height="145" rx="72.5" fill="white"/>
</clipPath>
<clipPath id="clip4_4029_3653">
<rect x="415" y="85.875" width="91" height="91" rx="45.5" fill="white"/>
</clipPath>
<clipPath id="clip5_4029_3653">
<rect x="369.737" y="525.875" width="91" height="91" rx="45.5" fill="white"/>
</clipPath>
</defs>
</svg>
