<svg width="33" height="33" viewBox="0 0 33 33" fill="none" xmlns="http://www.w3.org/2000/svg">
<path d="M16.4962 6.59769C16.5331 7.49979 16.5576 8.4019 16.6067 9.30401C16.6559 10.2613 16.748 11.2187 16.9936 12.1515C17.2883 13.2684 17.841 14.2196 18.7621 14.9376C19.7323 15.6924 20.8744 15.987 22.0657 16.1036C23.0912 16.2079 24.1166 16.2631 25.1421 16.3184C25.5413 16.3429 25.9404 16.3184 26.3641 16.3184C26.3641 14.6921 26.3641 13.072 26.272 11.4457C26.2536 11.1144 26.229 10.783 26.1737 10.4516C26.1062 10.0404 26.0079 9.64153 25.9281 9.23037C25.8483 8.83148 25.6825 8.47554 25.4676 8.13802C25.2834 7.84959 25.0623 7.59184 24.7491 7.42615C24.4912 7.29114 24.2517 7.1009 23.9816 7.00885C23.5763 6.87384 23.1464 6.78793 22.7289 6.70201C21.9367 6.54859 21.1262 6.55473 20.3218 6.50563C19.9779 6.4995 19.634 6.4995 19.2902 6.4995C18.3629 6.4995 17.4296 6.51177 16.5024 6.51177C16.5024 6.54245 16.5024 6.57314 16.5024 6.59769H16.4962Z" fill="#B3B3B3"/>
<path d="M6.70813 16.3551C7.54324 16.3244 8.37836 16.3244 9.20733 16.2446C10.1284 16.1587 11.0556 16.0667 11.9583 15.8642C13.5671 15.5021 14.7523 14.5632 15.4277 13.0351C15.8023 12.1882 15.9497 11.2861 16.0295 10.3779C16.1093 9.4635 16.1523 8.54298 16.2014 7.62246C16.2198 7.26039 16.2014 6.89218 16.2014 6.5117C15.0163 6.5117 13.825 6.52398 12.6399 6.53011C12.2531 6.53011 11.8601 6.54239 11.4732 6.57307C10.9942 6.60989 10.5091 6.64671 10.0302 6.72035C9.68016 6.76945 9.33629 6.8615 8.99242 6.95355C8.6117 7.06401 8.26169 7.22971 7.93624 7.46904C7.67834 7.65928 7.46342 7.88634 7.2792 8.13795C7.00902 8.5123 6.84322 8.94801 6.75111 9.39599C6.64672 9.89921 6.56076 10.4086 6.49935 10.9179C6.44409 11.3536 6.42566 11.7955 6.41338 12.2373C6.38882 13.1517 6.36426 14.06 6.36426 14.9743C6.36426 15.4346 6.36426 15.8949 6.37654 16.3551C6.49935 16.3551 6.60374 16.3551 6.70813 16.3551Z" fill="#B3B3B3"/>
<path d="M22.7962 16.7847C21.9243 16.8461 21.0523 16.9627 20.2295 17.2572C18.3382 17.9323 17.2759 19.313 16.8951 21.2461C16.5513 22.9767 16.5574 24.7318 16.4899 26.4931C16.5021 26.4931 16.5083 26.4992 16.5144 26.5054C18.1724 26.4624 19.8303 26.4256 21.4883 26.3642C22.0409 26.3458 22.5874 26.2906 23.1278 26.1556C23.5208 26.0574 23.9138 25.9653 24.2884 25.7935C24.7428 25.5848 25.1173 25.2841 25.406 24.8853C25.5226 24.7318 25.6086 24.5477 25.6823 24.3698C25.8112 24.0445 25.9402 23.7193 26.0262 23.3817C26.106 23.0565 26.149 22.719 26.1858 22.3876C26.2411 21.8782 26.2779 21.3689 26.3086 20.8595C26.3209 20.6754 26.3086 20.4913 26.3148 20.3072C26.3148 20.2029 26.3516 20.0924 26.3516 19.9881C26.3516 18.8589 26.3577 17.7236 26.3639 16.5945C25.1665 16.6558 23.9813 16.7049 22.7962 16.7847Z" fill="#B3B3B3"/>
<path d="M16.2259 26.1679C16.2136 25.7567 16.2014 25.3394 16.1829 24.9283C16.1338 23.6579 16.0785 22.3876 15.8084 21.1419C15.3417 19.0001 14.0706 17.6255 11.9214 17.0916C10.7792 16.8093 9.61254 16.7479 8.43969 16.6866C7.75809 16.6497 7.08263 16.6375 6.37646 16.6129C6.38261 17.6439 6.39489 18.6749 6.40717 19.7059C6.41331 20.7246 6.46243 21.7371 6.59752 22.7497C6.67735 23.3266 6.81858 23.8789 7.05193 24.4066C7.38966 25.186 8.00985 25.6585 8.78356 25.9408C9.09673 26.0574 9.42218 26.1311 9.74763 26.1986C10.0547 26.2661 10.3678 26.3213 10.6749 26.3397C11.5714 26.395 12.4679 26.4379 13.3583 26.4563C14.3101 26.4747 15.2618 26.4563 16.2198 26.4563C16.2198 26.352 16.2198 26.2599 16.2198 26.1679H16.2259Z" fill="#B3B3B3"/>
</svg>
