<svg width="33" height="33" viewBox="0 0 33 33" fill="none" xmlns="http://www.w3.org/2000/svg">
<path d="M19.9661 14.1384C19.9629 14.0538 19.9441 13.9661 19.916 13.8815C19.9097 13.8659 19.9066 13.8502 19.9003 13.8377C19.7594 13.7281 19.6215 13.6122 19.49 13.4932C19.2927 13.4587 19.0953 13.4305 18.898 13.4274C16.8214 13.4243 14.7448 13.4243 12.6682 13.4243C12.496 13.4243 12.4866 13.4305 12.4866 13.6059V15.8141C12.4866 15.9373 12.5482 15.9989 12.6714 15.9989H18.9701C19.1079 15.9957 19.2488 15.9926 19.3835 15.9769C19.5871 15.9487 19.7781 15.883 19.869 15.6825C19.9191 15.576 19.9567 15.457 19.9598 15.3411C19.9723 14.9402 19.9692 14.5393 19.9661 14.1384ZM22.3527 5.5H10.3755C7.60673 5.5 5.36414 7.7426 5.36414 10.5114V22.4886C5.36414 25.2574 7.60673 27.5 10.3755 27.5H22.3527C25.1215 27.5 27.3641 25.2574 27.3641 22.4886V10.5114C27.3641 7.7426 25.1215 5.5 22.3527 5.5ZM22.8351 21.9875C21.9456 21.9906 21.0592 21.9843 20.1697 21.9937C20.0256 21.9937 19.941 21.9405 19.8658 21.8277C19.1298 20.7315 18.3937 19.6384 17.6608 18.5421C17.5919 18.4419 17.5199 18.4043 17.4009 18.4043C15.8379 18.4075 14.2781 18.4075 12.7152 18.4075C12.5503 18.4075 12.4678 18.4889 12.4678 18.6518V21.7995C12.4678 21.9812 12.4615 21.9875 12.283 21.9875C11.5094 21.9906 10.7326 21.9875 9.95895 21.9875C9.73971 21.9875 9.73657 21.9875 9.73657 21.7714V11.2286C9.73657 11.0887 9.80861 11.0188 9.95269 11.0188H15.1614C15.9476 11.0157 16.7337 11.0094 17.5199 11.0125C17.6765 11.0125 17.8362 11.0125 17.9928 11.0157C18.7665 11.0219 19.5401 10.9687 20.3106 11.072C20.8086 11.1347 21.2722 11.2756 21.6762 11.5826C21.7576 11.6421 21.8391 11.6985 21.9205 11.758C22.1805 12.0493 22.4217 12.3593 22.5156 12.7415C22.6064 13.1017 22.691 13.4712 22.7035 13.8408C22.7192 14.3514 22.738 14.865 22.7161 15.3756C22.7035 15.7013 22.6722 16.0239 22.6127 16.3465C22.4843 17.0262 22.2087 17.6182 21.6042 18.0065C21.2753 18.2195 20.9026 18.3041 20.5299 18.3824C20.4296 18.4012 20.4046 18.4294 20.4735 18.5233C21.2189 19.5288 21.9581 20.5373 22.7035 21.5427C22.7223 21.5678 22.7505 21.5866 22.7725 21.6054C22.8476 21.7056 22.9197 21.8058 22.9948 21.906C22.9823 22.0157 22.9009 21.9875 22.8351 21.9875ZM19.916 13.8815C19.916 13.8815 19.9066 13.8502 19.9003 13.8377C19.8345 13.6592 19.7124 13.5276 19.5119 13.4963C19.5057 13.4963 19.4963 13.4932 19.49 13.4932C19.2927 13.4587 19.0953 13.4305 18.898 13.4274C16.8214 13.4243 14.7448 13.4243 12.6682 13.4243C12.496 13.4243 12.4866 13.4305 12.4866 13.6059V15.8141C12.4866 15.9373 12.5482 15.9989 12.6714 15.9989H18.9701C19.1079 15.9957 19.2488 15.9926 19.3835 15.9769C19.5871 15.9487 19.7781 15.883 19.869 15.6825C19.9191 15.576 19.9567 15.457 19.9598 15.3411C19.9723 14.9402 19.9692 14.5393 19.9661 14.1384C19.9629 14.0538 19.9441 13.9661 19.916 13.8815Z" fill="#B3B3B3"/>
<path d="M19.9004 13.8378C19.7595 13.7281 19.6217 13.6122 19.4901 13.4932C19.4964 13.4932 19.5058 13.4964 19.512 13.4964C19.7125 13.5277 19.8346 13.6592 19.9004 13.8378Z" fill="#999999"/>
<path d="M27.3641 10.5114V15.7264C26.8317 15.8203 26.2867 15.8704 25.726 15.8704C24.6736 15.8704 23.662 15.695 22.7161 15.3756C22.738 14.865 22.7192 14.3514 22.7035 13.8408C22.691 13.4712 22.6064 13.1017 22.5156 12.7415C22.4217 12.3593 22.1805 12.0493 21.9205 11.758C21.8391 11.6985 21.7576 11.6421 21.6762 11.5826C21.2722 11.2756 20.8086 11.1347 20.3106 11.072C19.5401 10.9687 18.7665 11.0219 17.9928 11.0157C17.8362 11.0125 17.6765 11.0125 17.5199 11.0125C16.7838 9.67825 16.3641 8.14351 16.3641 6.50854C16.3641 6.16714 16.3829 5.832 16.4174 5.5H22.3527C25.1215 5.5 27.3641 7.7426 27.3641 10.5114Z" fill="#999999"/>
</svg>
