<svg width="110" height="33" viewBox="0 0 110 33" fill="none" xmlns="http://www.w3.org/2000/svg">
<path d="M0 8.50223V24.4977C0 28.9165 3.5835 32.5 8.00224 32.5H23.9978C28.4165 32.5 32 28.9165 32 24.4977V0.499985H8.00224C3.5835 0.499985 0 4.08348 0 8.50223ZM30.9492 24.4977C30.9492 28.3327 27.8327 31.4492 23.9978 31.4492H8.00224C4.16727 31.4492 1.0508 28.3327 1.0508 24.4977V8.50223C1.0508 4.66726 4.16727 1.55078 8.00224 1.55078H30.9492V24.4977Z" fill="#999999"/>
<path d="M6.75378 10.2356C5.89158 11.3044 5.51437 12.7683 5.77482 13.9538C6.4574 17.0344 9.3224 17.5283 11.424 17.7978C13.0855 18.0133 14.6662 18.3187 14.6303 19.7916C14.5854 21.3274 12.861 21.7046 11.7204 21.7046C8.76556 21.7046 8.66677 19.5222 8.66677 19.5222H5.48743C5.53233 20.3395 5.78381 21.6597 6.7897 22.7913C7.89439 24.0307 9.55591 24.6594 11.7204 24.6594C13.3819 24.6594 14.8907 24.1205 15.9775 23.1596V24.4798H18.9413V20.7077L19.9921 19.5581L22.9828 24.4798H26.4316L22.0757 17.2679L26.4316 12.4899H22.5876L18.9323 16.4955V8.50224H15.9685V10.4422C15.8697 10.3164 15.7709 10.1907 15.6541 10.074C14.5764 8.93334 13.0226 8.34956 11.0378 8.34956C8.73862 8.34956 7.43635 9.37342 6.74479 10.2356H6.75378ZM11.1007 11.1158C12.4299 11.1158 13.7681 11.4122 14.271 13.2713H15.9775V16.1003C13.8489 14.349 9.24157 15.4447 8.7476 13.2713C8.48715 12.1306 9.62776 11.1158 11.1007 11.1158Z" fill="#999999"/>
<path d="M45.1034 12.5886L42.7324 18.9922L40.0291 12.5886H37.2269L41.4391 21.5159C41.3762 21.8123 41.2415 22.0818 41.0439 22.2793C40.8464 22.4769 40.5769 22.5757 40.2446 22.5757C39.9752 22.5757 39.7506 22.5398 39.5441 22.4769C39.3285 22.423 39.1489 22.3422 38.9962 22.2434V24.4977C39.0771 24.5157 39.1579 24.5516 39.2477 24.5785L39.562 24.6773C39.6788 24.7133 39.8135 24.7402 39.9752 24.7582C40.1279 24.7941 40.3075 24.7941 40.541 24.7941C41.2236 24.7941 41.8343 24.5157 42.4001 23.9499C42.9659 23.402 43.4778 22.5398 43.9718 21.3812L47.7709 12.5886H45.1034Z" fill="#999999"/>
<path d="M52.7377 19.3246C52.603 19.4055 52.4234 19.4953 52.1899 19.5761C51.9563 19.639 51.66 19.6749 51.2648 19.6749C50.9954 19.6749 50.7708 19.657 50.5643 19.621C50.3667 19.5851 50.214 19.5222 50.0793 19.4234C49.9446 19.3246 49.8458 19.1899 49.8009 19.0283C49.738 18.8756 49.7021 18.66 49.7021 18.4175V15.6783H47.4119V18.8666C47.4119 19.3336 47.4747 19.7288 47.6094 20.0431C47.7442 20.3754 47.9418 20.6449 48.2112 20.8425C48.4806 21.0401 48.804 21.1748 49.1901 21.2736C49.5853 21.3544 50.0164 21.4083 50.5373 21.4083C50.7349 21.4083 50.9505 21.4083 51.166 21.3724C51.3816 21.3544 51.5971 21.3185 51.7947 21.2915C51.9923 21.2466 52.1809 21.2107 52.3425 21.1568C52.5042 21.1029 52.6389 21.058 52.7377 21.0221V24.5068H55.0279V15.6783H52.7377V19.3246Z" fill="#999999"/>
<path d="M64.0091 23.8062C63.9552 23.7253 63.9103 23.5727 63.8923 23.411C63.8564 23.2493 63.8384 23.0248 63.8384 22.7644V18.0852C63.8384 17.7708 63.7845 17.4565 63.7037 17.1421C63.6049 16.8278 63.4253 16.5494 63.1559 16.2799C62.8774 16.0285 62.4913 15.8129 62.0153 15.6513C61.5213 15.4986 60.8657 15.4177 60.0933 15.4177C59.5275 15.4357 59.0604 15.4986 58.6653 15.6153C58.2701 15.7321 57.9198 15.8937 57.6504 16.0823C57.354 16.2799 57.1385 16.4955 56.9678 16.729C56.8062 16.9625 56.6535 17.196 56.5727 17.4116C56.4739 17.6451 56.411 17.8606 56.3751 18.0402C56.3391 18.2378 56.3212 18.3905 56.3212 18.4893H58.6114L58.7102 18.0043C58.7641 17.8696 58.8449 17.7349 58.9616 17.6181C59.0604 17.5193 59.2131 17.4205 59.4107 17.3487C59.5903 17.2948 59.8238 17.2679 60.1382 17.2679C60.4076 17.2679 60.6322 17.2858 60.8208 17.3307C61.0094 17.3756 61.1351 17.4475 61.2518 17.5463C61.3506 17.6271 61.4315 17.7259 61.4854 17.8606C61.5213 17.9774 61.5482 18.1121 61.5482 18.2558C61.5482 18.3995 61.5123 18.5252 61.4674 18.624C61.4135 18.7049 61.3506 18.7767 61.2698 18.8216C61.189 18.8845 61.1082 18.9204 61.0004 18.9384C60.9016 18.9743 60.8208 18.9743 60.7309 18.9923L58.4946 19.3246C58.1084 19.3784 57.7851 19.4772 57.4797 19.6389C57.1834 19.7916 56.9319 19.9892 56.7163 20.2227C56.5188 20.4562 56.3481 20.7166 56.2314 21.04C56.1146 21.3543 56.0697 21.6866 56.0697 22.0548C56.0697 22.5039 56.1326 22.8991 56.2673 23.2314C56.402 23.5816 56.5996 23.8601 56.8331 24.0936C57.0846 24.3091 57.363 24.4887 57.6953 24.6055C58.0276 24.7223 58.3958 24.7672 58.791 24.7672C59.1862 24.7672 59.5005 24.7312 59.7879 24.6684C60.0663 24.6055 60.2998 24.5067 60.5154 24.39C60.7309 24.2732 60.9106 24.1385 61.0992 23.9948L61.6111 23.4829C61.6111 23.7343 61.6291 23.9319 61.6919 24.0936L61.8266 24.5067H64.3683V24.1385C64.2875 24.1205 64.2336 24.0846 64.1707 24.0397C64.1079 23.9948 64.054 23.9229 64.0091 23.8062ZM61.5572 21.0849C61.5572 21.3813 61.5033 21.6327 61.4405 21.8483C61.3776 22.0818 61.2788 22.2614 61.1441 22.4141C61.0273 22.5668 60.8926 22.6925 60.7489 22.7823C60.5962 22.8811 60.4525 22.944 60.2998 23.0158C60.1382 23.0697 60.0035 23.0967 59.8688 23.1146C59.734 23.1326 59.6173 23.1505 59.5364 23.1505C59.3748 23.1505 59.2221 23.1326 59.0694 23.0877C58.9347 23.0518 58.8179 22.9709 58.7192 22.8901C58.6024 22.7913 58.5216 22.6925 58.4497 22.5398C58.4048 22.4051 58.3689 22.2434 58.3689 22.0548C58.3689 21.8213 58.4048 21.6417 58.4677 21.489C58.5305 21.3363 58.6293 21.2106 58.7641 21.0939C58.8988 20.9951 59.0604 20.9142 59.258 20.8424C59.4556 20.7795 59.6891 20.7256 59.9586 20.6807L60.5693 20.564C60.8028 20.528 60.9824 20.4652 61.1351 20.4023C61.2698 20.3574 61.4135 20.2855 61.5482 20.2047V21.1028L61.5572 21.0849Z" fill="#999999"/>
<path d="M67.4758 18.2917C67.5926 18.0223 67.7722 17.8067 68.0057 17.6271C68.2392 17.4475 68.5356 17.3577 68.9218 17.3577C69.1732 17.3577 69.3888 17.3936 69.5684 17.4385C69.7301 17.5014 69.8828 17.5912 70.0175 17.7169C70.1342 17.8337 70.233 17.9863 70.2959 18.166C70.3767 18.3276 70.4306 18.5521 70.4755 18.7767H72.8645C72.8286 18.3276 72.7478 17.9324 72.613 17.6001C72.4783 17.2678 72.3167 16.9715 72.1191 16.72C71.9035 16.4685 71.67 16.253 71.4185 16.0913C71.1491 15.9296 70.8887 15.7949 70.6013 15.6782C70.3228 15.5794 70.0354 15.4985 69.757 15.4626C69.4606 15.4267 69.1732 15.3997 68.9128 15.3997C68.3021 15.3997 67.7183 15.4985 67.2243 15.7141C66.7124 15.9117 66.2813 16.2081 65.9131 16.6122C65.5448 17.0164 65.2664 17.5103 65.0688 18.0761C64.8712 18.6599 64.7725 19.3245 64.7725 20.0879C64.7725 20.8513 64.8713 21.498 65.0509 22.0818C65.2305 22.6745 65.4999 23.1595 65.8502 23.5547C66.2005 23.9498 66.6316 24.2552 67.1435 24.4708C67.6554 24.6683 68.2572 24.7671 68.9218 24.7671C69.4337 24.7671 69.9007 24.7043 70.2959 24.5696C70.6911 24.4348 71.0234 24.2732 71.3287 24.0576C71.6251 23.86 71.8586 23.6265 72.0742 23.3571C72.2538 23.0877 72.4244 22.8272 72.5412 22.5757C72.6579 22.3063 72.7388 22.0818 72.8106 21.8303C72.8555 21.5968 72.8735 21.4172 72.8735 21.2645H70.4845C70.4845 21.4172 70.4486 21.5788 70.4037 21.7495C70.3408 21.9291 70.242 22.0997 70.1073 22.2614C69.9726 22.4141 69.8109 22.5398 69.6223 22.6476C69.4247 22.7643 69.1912 22.8092 68.9218 22.8092C68.5266 22.8092 68.2123 22.7284 67.9787 22.5398C67.7273 22.3781 67.5656 22.1446 67.4489 21.8752C67.3141 21.6058 67.2513 21.3273 67.2153 20.995C67.1794 20.6807 67.1615 20.3664 67.1615 20.079C67.1615 19.7916 67.1974 19.4952 67.2243 19.1808C67.2782 18.8665 67.3411 18.5701 67.4758 18.2827V18.2917Z" fill="#999999"/>
<path d="M73.2327 17.5284H75.9001V24.5068H78.1903V17.5284H80.8667V15.6783H73.2327V17.5284Z" fill="#999999"/>
<path d="M87.2343 18.8576H83.8574V15.6693H81.5762V24.5068H83.8574V20.7167H87.2343V24.5068H89.5245V15.6693H87.2343V18.8576Z" fill="#999999"/>
<path d="M93.3775 21.1209H93.3505V15.6693H91.0603V24.5068H93.5661L96.6825 19.1719H96.7185V24.5068H99.0087V15.6693H96.6017L93.3775 21.1209Z" fill="#999999"/>
<path d="M105.565 19.3426L109.22 15.6783H106.167L102.862 19.0283V15.6783H100.572V24.5068H102.862V21.7136L103.787 20.7706L106.382 24.5068H109.364L105.565 19.3426Z" fill="#999999"/>
</svg>
