<svg width="33" height="33" viewBox="0 0 33 33" fill="none" xmlns="http://www.w3.org/2000/svg">
<path d="M22.6203 10.5112C22.4688 10.4967 22.3102 10.4895 22.1659 10.5329C21.4015 10.7714 20.6226 10.9955 19.8799 11.2991C17.6731 12.1955 15.4736 13.1208 13.274 14.0533C10.9375 15.0509 8.60089 16.0774 6.27154 17.0967C6.01192 17.2123 5.75951 17.3786 5.55038 17.5666C5.27633 17.8051 5.31239 18.1521 5.60807 18.369C5.74509 18.4702 5.90375 18.5569 6.06961 18.6147C6.77635 18.8533 7.48309 19.0918 8.20425 19.2942C8.71627 19.4388 9.24993 19.5328 9.76917 19.6485C10.2019 19.6051 10.685 19.4822 11.1394 19.193C11.9327 18.687 12.7115 18.1521 13.4976 17.6316C15.0913 16.5762 16.6923 15.5136 18.2861 14.4654C18.3943 14.3931 18.5169 14.3425 18.6395 14.3208C18.7188 14.3063 18.8486 14.3497 18.8774 14.4075C18.9207 14.4798 18.9135 14.61 18.8774 14.6895C18.8197 14.8051 18.726 14.8991 18.6322 14.9931C17.2837 16.2943 15.9279 17.5882 14.5865 18.8894C14.1683 19.2942 13.7572 19.6991 13.3822 20.1473C13.0721 20.5159 13.1009 20.8918 13.4327 21.246C13.6057 21.434 13.8149 21.6003 14.0312 21.7448C15.5745 22.8002 17.125 23.8484 18.6755 24.8966C19.0649 25.1568 19.4616 25.3954 19.9303 25.4749C20.4712 25.5689 20.8606 25.4026 21.1058 24.9111C21.2645 24.6075 21.3871 24.2677 21.452 23.9352C21.6755 22.8147 21.8847 21.6942 22.065 20.5738C22.476 17.9931 22.8799 15.4124 23.2693 12.8244C23.3414 12.3256 23.3703 11.8124 23.3631 11.3064C23.3631 10.8365 23.0818 10.5763 22.6131 10.5329L22.6203 10.5112Z" fill="#B3B3B3"/>
</svg>
