<svg width="33" height="33" viewBox="0 0 33 33" fill="none" xmlns="http://www.w3.org/2000/svg">
<path d="M24.527 23.4841C23.9976 23.4841 23.4755 23.4841 22.9462 23.4841C22.6028 23.4841 22.3024 23.3541 22.0163 23.1859C21.5084 22.8878 21.115 22.4443 20.7288 21.9856C20.3425 21.5269 19.9491 21.0682 19.5414 20.6248C19.3768 20.4413 19.1766 20.2961 18.9405 20.2273C18.776 20.1814 18.6329 20.212 18.4899 20.3037C18.2538 20.4566 18.1251 20.7013 18.0249 20.9688C17.8318 21.4963 17.7889 22.0544 17.7817 22.6125C17.7817 22.8648 17.7102 23.1171 17.5028 23.2624C17.3311 23.3847 17.138 23.4841 16.9162 23.4841C16.4227 23.4841 15.9291 23.4994 15.4356 23.4841C15.1137 23.4688 14.7918 23.4076 14.4699 23.3618C13.9263 23.27 13.397 23.1018 12.8891 22.8725C12.3741 22.6431 11.8806 22.3602 11.4156 22.0315C10.9006 21.6645 10.4285 21.2441 9.99934 20.7777C9.50578 20.2426 9.04799 19.6615 8.64743 19.0423C8.19679 18.3466 7.75331 17.6509 7.33128 16.9399C6.9951 16.3741 6.69467 15.7931 6.39425 15.2121C6.11529 14.6769 5.84347 14.1418 5.59312 13.599C5.20686 12.758 4.84206 11.9018 4.47011 11.0532C4.42719 10.9461 4.39858 10.8314 4.37712 10.7168C4.3199 10.4568 4.4558 10.2428 4.70616 10.1663C4.97797 10.0822 5.24978 10.0899 5.52874 10.0899C6.3871 10.0899 7.24545 10.0899 8.1038 10.0899C8.76188 10.0899 9.05515 10.3422 9.27689 10.9232C9.62023 11.8482 10.0208 12.7504 10.4929 13.6066C10.872 14.3023 11.2654 14.998 11.7447 15.6326C11.9163 15.8619 12.1023 16.076 12.3383 16.2442C12.7175 16.5194 13.0465 16.4047 13.2039 15.9537C13.397 15.3956 13.4399 14.8145 13.4399 14.2335C13.4399 13.6066 13.4399 12.9797 13.4113 12.3528C13.3898 11.9247 13.3469 11.4966 13.1323 11.1143C12.975 10.8467 12.7461 10.6938 12.4743 10.5868C12.367 10.5486 12.2597 10.5256 12.1452 10.5027C12.0451 10.4798 12.0093 10.4263 12.0522 10.3269C12.1595 10.0822 12.3527 9.92932 12.5744 9.82229C12.9249 9.64645 13.2968 9.56236 13.676 9.54707C14.3769 9.52413 15.0779 9.49355 15.7789 9.5012C16.251 9.5012 16.7231 9.57 17.1809 9.72291C17.5457 9.84523 17.746 10.1281 17.7817 10.5027C17.8247 10.9079 17.8175 11.3207 17.8175 11.7336C17.8175 12.1082 17.796 12.4751 17.7889 12.8497C17.7746 13.5455 17.7603 14.2412 17.7603 14.9445C17.7603 15.2962 17.7889 15.6402 17.9463 15.9689C18.1537 16.3971 18.4327 16.4812 18.7688 16.2059C19.0836 15.946 19.3554 15.6402 19.5771 15.2962C19.9848 14.654 20.3854 13.9965 20.7645 13.3314C20.9433 13.0256 21.0721 12.6816 21.2223 12.3605C21.3725 12.0317 21.5156 11.6953 21.6586 11.359C21.7588 11.122 21.8446 10.8773 21.9376 10.6403C22.0878 10.2428 22.2952 10.0975 22.703 10.0975C23.9333 10.0975 25.1564 10.0975 26.3867 10.0975C26.587 10.0975 26.7944 10.1357 26.9804 10.1969C27.3381 10.3192 27.4239 10.5562 27.3238 10.9843C27.195 11.573 26.9089 12.0929 26.6085 12.5975C26.0792 13.4996 25.4712 14.3329 24.8703 15.1815C24.4841 15.7243 24.1121 16.2824 23.7544 16.8481C23.5971 17.0928 23.5256 17.3833 23.6257 17.6814C23.6758 17.8343 23.7473 18.0025 23.8546 18.1172C24.1979 18.4995 24.5556 18.8588 24.9061 19.2258C25.2709 19.608 25.6357 19.9903 25.979 20.3955C26.3009 20.7777 26.6156 21.1829 26.9017 21.5957C27.0806 21.8557 27.2236 22.1538 27.3238 22.452C27.4454 22.8342 27.288 23.163 26.9089 23.3235C26.6228 23.4458 26.3295 23.507 26.0219 23.4994C25.5284 23.4841 25.0348 23.4994 24.5413 23.4994L24.527 23.4841Z" fill="#B3B3B3"/>
</svg>
