<svg width="33" height="33" viewBox="0 0 33 33" fill="none" xmlns="http://www.w3.org/2000/svg">
<path d="M15.3379 24.5C13.5232 24.4295 11.184 24.352 8.85178 24.2533C8.33431 24.2322 7.82393 24.1617 7.31354 24.0771C5.82492 23.8374 4.98136 22.9634 4.71199 21.3845C4.42135 19.6858 4.35756 17.973 4.36465 16.2601C4.37174 14.6812 4.44262 13.1023 4.71199 11.5446C4.99553 9.88111 5.8958 8.97888 7.57582 8.81676C9.13533 8.66874 10.7019 8.54892 12.2685 8.52777C14.9197 8.48548 17.5709 8.49253 20.2149 8.54187C21.6043 8.57006 23.0008 8.68284 24.376 8.85906C25.8788 9.04937 26.7436 9.91635 26.9704 11.3966C27.1547 12.6019 27.254 13.8213 27.3178 15.0337C27.4241 16.9579 27.3461 18.8893 27.098 20.8065C27.0626 21.1026 27.0059 21.3986 26.935 21.6946C26.5947 23.1255 25.7583 23.9079 24.2838 24.0912C23.1993 24.2251 22.1147 24.3167 21.023 24.359C19.3005 24.4295 17.5779 24.4507 15.3308 24.5H15.3379ZM13.5516 19.8972C15.5718 18.7413 17.5283 17.6135 19.5344 16.4575C17.5212 15.3015 15.5577 14.1737 13.5516 13.0248V19.8972Z" fill="#B3B3B3"/>
</svg>
