<svg width="142" height="40" viewBox="0 0 142 40" fill="none" xmlns="http://www.w3.org/2000/svg">
<path fill-rule="evenodd" clip-rule="evenodd" d="M28.7306 33.8948C28.4166 34.0527 28.1026 34.3684 27.7886 34.5263C27.1606 34.8421 26.5327 35.1579 25.9047 35.4737C24.8057 35.9474 23.8637 36.2632 22.7647 36.4211C21.6657 36.579 20.5667 36.7369 19.4677 36.7369C17.2698 36.7369 15.0718 36.2632 13.0308 35.4737C10.9898 34.6842 9.10587 33.4211 7.53589 31.8421C4.55292 28.8421 2.66895 24.579 2.66895 20C2.66895 17.7895 3.13994 15.579 3.92493 13.5263C4.70992 11.4737 5.96591 9.57897 7.53589 8.00003C9.10587 6.42108 10.8328 5.15792 13.0308 4.36845C14.7578 3.73687 16.9558 3.26318 19.1537 3.26318C21.3517 3.26318 23.5497 3.73687 25.5907 4.52634C27.6316 5.31582 29.5156 6.57897 31.0856 8.15792C34.0686 11.1579 35.9525 15.4211 35.9525 20C35.9525 21.1053 35.7955 22.0527 35.6385 23.1579C35.4815 24.2632 35.1675 25.2106 34.6966 26.1579C34.3826 27.1053 33.9116 28.0527 33.2836 28.8421C32.9696 29.3158 32.6556 29.9474 32.1846 30.4211L33.9116 35.3158L28.7306 33.8948Z" fill="white"/>
<path fill-rule="evenodd" clip-rule="evenodd" d="M7.84985 30.2315C8.16385 30.5473 8.47785 31.021 8.79184 31.3368C11.6178 34.1789 15.6998 36.0736 20.0957 36.0736C22.2937 36.0736 24.4917 35.5999 26.3756 34.8104C26.8466 34.6525 27.3176 34.3368 27.6316 34.1789L19.6247 31.4947L24.1777 28.3368L28.5736 30.3894L26.6896 26.7578C25.4336 26.5999 24.3347 26.2841 23.3927 25.6525C22.1367 24.8631 21.0377 23.7578 20.4097 22.4947L21.9797 24.5473C22.6077 25.6525 25.7476 26.1262 26.8466 26.7578C27.9456 27.3894 26.6896 25.6525 28.1026 25.6525H32.3416V18.8631H32.1846C31.0856 18.8631 30.3006 18.3894 29.6726 17.7578C29.0446 16.9683 28.7306 16.021 28.7306 14.9157V14.7578H19.7817C19.6247 15.3894 19.3107 16.021 18.9967 16.3368C18.5257 16.8104 17.7407 16.9683 16.9557 16.9683C16.1708 16.9683 16.9557 16.8104 16.4847 16.3368C16.0138 15.8631 15.6998 15.3894 15.6998 14.7578H11.9318C10.8328 14.7578 9.89083 15.2315 9.26284 15.8631C8.63484 16.4947 8.16385 17.442 8.16385 18.5473V24.3894C8.16385 25.4947 8.63484 26.442 9.26284 27.0736C9.89083 27.7052 10.8328 28.1789 11.9318 28.1789C13.0308 28.1789 13.9728 27.7052 14.6008 27.0736C15.2288 26.442 15.6998 25.4947 15.6998 24.3894V18.5473H16.7987V24.3894C16.7987 25.8104 16.1708 26.9157 15.3858 27.8631C14.4438 28.8104 13.1878 29.2841 11.9318 29.2841C10.5188 29.2841 9.41983 28.6525 8.47785 27.8631C8.37318 27.7578 8.26851 27.6525 8.16385 27.5473V30.2315H7.84985Z" fill="#FFCB00"/>
<path fill-rule="evenodd" clip-rule="evenodd" d="M27.1098 22.2895C26.7927 22.2895 26.4756 22.6053 26.4756 22.9211C26.4756 23.2368 26.7927 23.5526 27.1098 23.5526C27.4268 23.5526 27.7439 23.2368 27.7439 22.9211C27.7439 22.6053 27.4268 22.2895 27.1098 22.2895ZM32.6585 29.2368L31.8659 26.8684H32.8171V15.9737C32.8171 15.3421 32.6585 14.8684 32.1829 14.5526C31.8659 14.2368 31.2317 13.9211 30.7561 13.9211H23.4634C23.3049 13.2895 22.9878 12.8158 22.6707 12.3421C22.1951 11.8684 21.4024 11.3947 20.6098 11.3947C20.2927 11.3947 20.1341 11.3947 19.8171 11.5526C19.5 11.5526 19.3415 11.7105 19.1829 11.8684C18.8659 11.7105 18.3902 11.5526 17.9146 11.5526C17.122 11.5526 16.3293 11.8684 15.8537 12.5C15.5366 12.8158 15.2195 13.4474 15.061 13.9211H11.2561C9.82927 13.9211 8.71951 14.5526 7.76829 15.3421C6.81707 16.2895 6.34146 17.5526 6.34146 18.8158V24.6579V28.7632C4.7561 26.2368 3.80488 23.2368 3.80488 20.0789C3.80488 15.6579 5.54878 11.7105 8.56098 8.71053C11.5732 5.71053 15.5366 3.97368 19.9756 3.97368C24.4146 3.97368 28.378 5.71053 31.3902 8.71053C34.2439 11.5526 36.1463 15.6579 36.1463 20.0789C36.1463 22.1316 35.8293 24.1842 35.0366 26.0789C34.0854 27.1842 33.4512 28.2895 32.6585 29.2368ZM7.13415 30.3421V27.8158C7.23984 27.9211 7.34553 28.0263 7.45122 28.1316C8.40244 29.0789 9.67073 29.5526 10.939 29.5526C12.3659 29.5526 13.4756 28.9211 14.4268 28.1316C15.378 27.1842 15.8537 25.9211 15.8537 24.6579V18.8158H14.7439V24.6579C14.7439 25.7632 14.2683 26.7105 13.6341 27.3421C13 27.9737 12.0488 28.4474 10.939 28.4474C9.82927 28.4474 8.87805 27.9737 8.2439 27.3421C7.60976 26.7105 7.13415 25.7632 7.13415 24.6579V18.8158C7.13415 17.7105 7.60976 16.7632 8.2439 16.1316C8.87805 15.5 9.82927 15.0263 10.939 15.0263H14.7439C14.9024 15.6579 15.2195 16.2895 15.5366 16.6053C16.0122 17.0789 16.8049 17.5526 17.5976 17.5526C18.3902 17.5526 19.1829 17.2368 19.6585 16.6053C20.1341 16.1316 20.4512 15.6579 20.4512 15.0263H27.9024V15.1842C27.9024 16.2895 28.2195 17.2368 28.8537 18.0263C29.4878 18.6579 30.2805 19.1316 31.3902 19.1316H31.5488V25.7632H26.9512C25.6829 25.7632 24.4146 25.4474 23.3049 24.8158C22.1951 24.1842 21.2439 23.2368 20.6098 22.1316L19.6585 22.7632C20.4512 24.0263 21.4024 25.1316 22.6707 25.9211C23.622 26.5526 24.7317 26.8684 26 27.0263L27.5854 29.5526L24.5732 27.8158L19.0244 31.6053L27.2683 34.1316C26.7927 34.4474 26.3171 34.6053 26 34.7632C24.0976 35.5526 21.878 36.0263 19.6585 36.0263C15.2195 36.0263 11.2561 34.2895 8.2439 31.2895C7.76829 30.9737 7.45122 30.6579 7.13415 30.3421ZM31.5488 35.3947C30.2805 36.3421 28.8537 37.2895 27.2683 37.9211C24.8902 39.0263 22.1951 39.5 19.5 39.5C14.1098 39.5 9.19512 37.2895 5.70732 33.8158C2.21951 30.3421 0 25.4474 0 20.0789C0 14.7105 2.21951 9.81579 5.70732 6.18421C9.19512 2.71053 14.1098 0.5 19.5 0.5C24.8902 0.5 29.8049 2.71053 33.2927 6.18421C36.7805 9.65789 39 14.5526 39 19.9211C39 22.4474 38.5244 24.8158 37.5732 27.1842C36.7805 29.3947 35.5122 31.2895 33.9268 33.0263L35.0366 36.3421L31.5488 35.3947ZM27.5854 26.8684L31.2317 32.7105L24.7317 29.0789L21.561 31.2895L33.2927 34.9211L30.5976 27.0263H27.5854V26.8684ZM22.1951 13.9211C22.0366 13.6053 21.878 13.4474 21.7195 13.2895C21.4024 12.9737 20.9268 12.8158 20.4512 12.8158H19.9756C20.2927 13.1316 20.4512 13.6053 20.6098 13.9211H22.1951ZM18.3902 14.2368C19.0244 14.2368 19.3415 14.7105 19.3415 15.1842V15.3421C19.5 15.0263 19.5 14.8684 19.5 14.5526C19.5 14.0789 19.3415 13.6053 19.0244 13.2895C18.7073 12.9737 18.2317 12.8158 17.7561 12.8158C17.2805 12.8158 16.8049 12.9737 16.4878 13.2895C16.1707 13.6053 16.0122 14.0789 16.0122 14.5526C16.0122 15.0263 16.1707 15.5 16.4878 15.8158C16.8049 16.1316 17.2805 16.2895 17.7561 16.2895C18.0732 16.2895 18.2317 16.2895 18.5488 16.1316H18.3902C17.7561 16.1316 17.439 15.6579 17.439 15.1842C17.2805 14.5526 17.7561 14.2368 18.3902 14.2368ZM23.1463 10.2895L23.622 9.18421C22.8293 8.86842 22.1951 8.71053 21.4024 8.71053C20.7683 8.71053 19.9756 8.71053 19.3415 9.02632C18.7073 8.71053 18.0732 8.71053 17.2805 8.71053C16.4878 8.71053 15.6951 8.86842 15.061 9.02632L15.378 10.1316C16.0122 9.97368 16.6463 9.81579 17.2805 9.81579C17.9146 9.81579 18.5488 9.97368 19.0244 10.1316L19.1829 10.2895H19.3415C19.9756 10.1316 20.4512 9.97368 21.0854 9.97368C21.878 9.97368 22.5122 9.97368 23.1463 10.2895ZM28.8537 20.0789C28.5366 20.0789 28.2195 20.3947 28.2195 20.7105C28.2195 21.0263 28.5366 21.3421 28.8537 21.3421C29.1707 21.3421 29.4878 21.0263 29.4878 20.7105C29.6463 20.3947 29.3293 20.0789 28.8537 20.0789ZM25.2073 20.0789C24.8902 20.0789 24.5732 20.3947 24.5732 20.7105C24.5732 21.0263 24.8902 21.3421 25.2073 21.3421C25.5244 21.3421 25.8415 21.0263 25.8415 20.7105C25.8415 20.3947 25.5244 20.0789 25.2073 20.0789Z" fill="#0C0702"/>
<path d="M54.5186 13.6055C54.6755 13.6055 54.8328 13.6051 54.833 13.7627C54.9377 13.868 54.9902 13.9738 54.9902 14.0791V16.1318C54.9902 16.2895 54.9897 16.4472 54.833 16.4473C54.7283 16.5525 54.6232 16.6055 54.5186 16.6055H51.2217V26.0791C51.2217 26.2369 51.2213 26.3945 51.0645 26.3945C50.9599 26.4996 50.8556 26.5527 50.751 26.5527H48.2393C48.0823 26.5527 47.9248 26.5524 47.9248 26.3945C47.8203 26.2894 47.7677 26.1842 47.7676 26.0791V16.6055H44.4707C44.3138 16.6055 44.1573 16.605 44.1572 16.4473C44.0527 16.3421 44.0001 16.237 44 16.1318V14.0791C44 13.9212 44.0002 13.7627 44.1572 13.7627C44.2617 13.6577 44.3662 13.6056 44.4707 13.6055H54.5186ZM65.8232 13.4473C65.9801 13.4473 66.1367 13.4477 66.1367 13.6055C66.2413 13.7107 66.2939 13.8157 66.2939 13.9209V15.8154C66.2939 15.9733 66.2937 16.1318 66.1367 16.1318C66.0323 16.2368 65.9277 16.2889 65.8232 16.2891H60.0137V18.6582H65.5088C65.6657 18.6582 65.8231 18.6578 65.8232 18.8154C65.9279 18.9207 65.9795 19.0266 65.9795 19.1318V20.8682C65.9795 21.0259 65.9798 21.1843 65.8232 21.1846C65.7186 21.2898 65.6134 21.3418 65.5088 21.3418H60.0137V23.71H65.9795C66.1364 23.71 66.2938 23.7104 66.2939 23.8682C66.3986 23.9734 66.4512 24.0793 66.4512 24.1846V26.0791C66.4512 26.2369 66.4507 26.3944 66.2939 26.3945C66.1893 26.4998 66.0842 26.5527 65.9795 26.5527H57.0312C56.9266 26.5527 56.8215 26.4998 56.7168 26.3945C56.6123 26.2894 56.5597 26.1842 56.5596 26.0791V13.9209C56.5596 13.7631 56.56 13.6056 56.7168 13.6055C56.8215 13.5002 56.9266 13.4473 57.0312 13.4473H65.8232ZM71.6318 13.4473C71.7888 13.4473 71.9453 13.4476 71.9453 13.6055C72.05 13.7107 72.1025 13.8157 72.1025 13.9209V23.5527H77.5977C77.7545 23.5527 77.9108 23.5526 77.9111 23.71C78.0158 23.8152 78.0684 23.9211 78.0684 24.0264V26.0791C78.0684 26.2369 78.068 26.3945 77.9111 26.3945C77.8065 26.4997 77.7022 26.5527 77.5977 26.5527H68.9629C68.8582 26.5527 68.7531 26.4998 68.6484 26.3945C68.544 26.2894 68.4923 26.1842 68.4922 26.0791V13.9209C68.4922 13.7631 68.4917 13.6056 68.6484 13.6055C68.7531 13.5002 68.8582 13.4473 68.9629 13.4473H71.6318ZM88.9014 13.4473C89.0584 13.4473 89.2158 13.4476 89.2158 13.6055C89.3203 13.7106 89.3721 13.8157 89.3721 13.9209V15.8154C89.3721 15.9732 89.3726 16.1317 89.2158 16.1318C89.1112 16.2371 89.006 16.2891 88.9014 16.2891H83.0928V18.6582H88.5879C88.7447 18.6582 88.9012 18.6579 88.9014 18.8154C89.006 18.9207 89.0586 19.0266 89.0586 19.1318V20.8682C89.0586 21.0261 89.0584 21.1846 88.9014 21.1846C88.7969 21.2895 88.6923 21.3417 88.5879 21.3418H83.0928V23.71H89.0586C89.2155 23.71 89.372 23.7104 89.3721 23.8682C89.4767 23.9734 89.5293 24.0793 89.5293 24.1846V26.0791C89.5293 26.2369 89.529 26.3945 89.3721 26.3945C89.2675 26.4997 89.1632 26.5527 89.0586 26.5527H80.1094C80.0048 26.5526 79.9004 26.4997 79.7959 26.3945C79.6913 26.2894 79.6388 26.1843 79.6387 26.0791V13.9209C79.6387 13.763 79.6389 13.6055 79.7959 13.6055C79.9005 13.5003 80.0048 13.4474 80.1094 13.4473H88.9014ZM94.083 13.4473C94.3967 13.4474 94.554 13.6053 94.7109 13.9209L97.8506 19.6055L100.99 13.9209C101.147 13.6052 101.304 13.4474 101.618 13.4473H103.659C103.816 13.4473 103.974 13.4476 103.974 13.6055C104.078 13.7106 104.131 13.8157 104.131 13.9209V26.0791C104.131 26.2368 104.13 26.3944 103.974 26.3945C103.869 26.4998 103.764 26.5527 103.659 26.5527H101.933C101.776 26.5527 101.618 26.5524 101.618 26.3945C101.514 26.2894 101.462 26.1842 101.462 26.0791V21.0264H100.049V26.0791C100.049 26.2369 100.048 26.3944 99.8916 26.3945C99.7869 26.4998 99.6818 26.5527 99.5771 26.5527H99.1064C98.9495 26.5527 98.792 26.5524 98.792 26.3945C98.6876 26.2894 98.6358 26.1842 98.6357 26.0791V23.5527H97.2227V26.0791C97.2227 26.2369 97.2223 26.3945 97.0654 26.3945C96.9609 26.4996 96.8565 26.5526 96.752 26.5527H96.2803C96.1234 26.5527 95.9668 26.5524 95.9668 26.3945C95.8622 26.2894 95.8097 26.1843 95.8096 26.0791V21.8154H94.3965V26.0791C94.3965 26.2369 94.3962 26.3945 94.2393 26.3945C94.1347 26.4997 94.0303 26.5526 93.9258 26.5527H92.042C91.885 26.5527 91.7275 26.5524 91.7275 26.3945C91.623 26.2894 91.5704 26.1843 91.5703 26.0791V13.9209C91.5703 13.763 91.5706 13.6055 91.7275 13.6055C91.8322 13.5002 91.9373 13.4473 92.042 13.4473H94.083ZM116.219 13.4473C116.376 13.4473 116.533 13.4476 116.533 13.6055C116.638 13.7107 116.69 13.8157 116.69 13.9209V15.8154C116.69 15.9733 116.69 16.1318 116.533 16.1318C116.429 16.237 116.323 16.2891 116.219 16.2891H110.41V18.6582H115.905C116.062 18.6582 116.219 18.6578 116.219 18.8154C116.323 18.9207 116.376 19.0266 116.376 19.1318V20.8682C116.376 21.0261 116.376 21.1846 116.219 21.1846C116.114 21.2895 116.01 21.3418 115.905 21.3418H110.41V23.71H116.376C116.533 23.71 116.69 23.7104 116.69 23.8682C116.795 23.9734 116.848 24.0793 116.848 24.1846V26.0791C116.848 26.2368 116.847 26.3944 116.69 26.3945C116.586 26.4998 116.481 26.5527 116.376 26.5527H107.428C107.323 26.5527 107.218 26.4998 107.113 26.3945C107.009 26.2894 106.956 26.1843 106.956 26.0791V13.9209C106.956 13.763 106.956 13.6055 107.113 13.6055C107.218 13.5002 107.323 13.4473 107.428 13.4473H116.219ZM128.465 13.6055C128.622 13.6055 128.779 13.6051 128.779 13.7627C128.884 13.868 128.937 13.9738 128.937 14.0791V16.1318C128.937 16.2895 128.936 16.4471 128.779 16.4473C128.675 16.5525 128.57 16.6055 128.465 16.6055H125.168V26.0791C125.168 26.2369 125.168 26.3945 125.011 26.3945C124.906 26.4996 124.802 26.5527 124.697 26.5527H122.186C122.029 26.5527 121.871 26.5524 121.871 26.3945C121.714 26.3945 121.714 26.2369 121.714 26.0791V16.6055H118.417C118.26 16.6055 118.104 16.605 118.104 16.4473C117.999 16.3421 117.946 16.237 117.946 16.1318V14.0791C117.946 13.9212 117.947 13.7627 118.104 13.7627C118.208 13.6577 118.312 13.6055 118.417 13.6055H128.465ZM135.687 13.4473C137.257 13.4473 138.67 13.7633 139.455 14.5527C140.397 15.3421 140.868 16.2893 140.868 17.71C140.868 18.6572 140.711 19.2894 140.24 19.9209C139.769 20.5525 139.298 21.026 138.513 21.3418L141.024 25.9209V26.0791C141.024 26.1842 140.973 26.2894 140.868 26.3945C140.868 26.5524 140.711 26.5527 140.554 26.5527H137.885C137.571 26.5527 137.257 26.3948 137.1 26.0791L135.059 21.9736H133.332V26.0791C133.332 26.2369 133.332 26.3945 133.175 26.3945C133.07 26.4997 132.966 26.5526 132.861 26.5527H130.663C130.558 26.5527 130.453 26.4998 130.349 26.3945C130.244 26.2894 130.192 26.1842 130.192 26.0791V13.9209C130.192 13.7631 130.192 13.6057 130.349 13.6055C130.453 13.5002 130.558 13.4473 130.663 13.4473H135.687ZM133.646 19.1318H135.687V19.2891C136.158 19.2891 136.629 19.1312 136.943 18.8154C137.257 18.4998 137.414 18.1835 137.414 17.71C137.414 17.2367 137.257 16.921 136.943 16.6055C136.629 16.2897 136.315 16.1318 135.687 16.1318H133.646V19.1318Z" fill="black"/>
</svg>
