<svg width="42" height="108" viewBox="0 0 42 108" fill="none" xmlns="http://www.w3.org/2000/svg">
<g clip-path="url(#clip0_4037_10933)">
<mask id="mask0_4037_10933" style="mask-type:alpha" maskUnits="userSpaceOnUse" x="0" y="0" width="42" height="109">
<path d="M19.9402 24.9942C26.271 25.2981 31.513 21.4489 33.0324 15.3967C34.4251 9.7749 31.5889 3.77329 26.271 1.29161C25.0809 0.734497 23.764 0.430618 22.5232 0.00012207H19.3578C19.2059 0.0507686 19.0286 0.152062 18.8767 0.177385C12.014 1.34226 7.48118 7.5971 8.51944 14.4344C9.40575 20.1828 14.3185 24.7156 19.9656 24.9942H19.9402Z" fill="black"/>
<path d="M41.7185 59.2563C41.7185 54.2929 41.8198 49.3042 41.5665 44.3409C41.212 36.9971 34.9572 30.2105 27.6388 29.5014C23.1819 29.0709 18.5984 29.0963 14.1415 29.5014C6.79772 30.1598 0.340284 37.0731 0.137698 44.3662C-0.0902115 51.8112 0.0110815 59.2563 0.112375 66.7013C0.163021 69.6135 1.60645 71.8673 4.29071 73.2094C5.22767 73.6905 6.18996 74.1464 7.17756 74.5515C7.78532 74.8048 8.03856 75.1846 8.0892 75.8177C8.24114 77.5397 8.44373 79.2616 8.64631 80.9836C9.33004 87.0106 10.0138 93.0375 10.6975 99.0644C11.052 102.179 11.4065 105.269 11.7611 108.409H29.9685C30.0445 108.004 30.1204 107.674 30.1458 107.32C31.2853 97.0386 32.4502 86.7827 33.5644 76.5014C33.691 75.3619 34.0455 74.6275 35.1851 74.273C35.7928 74.0957 36.35 73.7918 36.9071 73.4879C39.5913 71.9939 41.4146 69.8161 41.6425 66.676C41.8198 64.2196 41.7438 61.7379 41.7438 59.2816L41.7185 59.2563Z" fill="black"/>
</mask>
<g mask="url(#mask0_4037_10933)">
<rect x="-1.43994" width="46.08" height="40" fill="#FFE8A5"/>
<rect x="-1.43994" y="40" width="46.08" height="68" fill="#FFBE00"/>
</g>
</g>
<defs>
<clipPath id="clip0_4037_10933">
<rect width="42" height="108" fill="white"/>
</clipPath>
</defs>
</svg>
