<svg width="54" height="90" viewBox="0 0 54 90" fill="none" xmlns="http://www.w3.org/2000/svg">
<path d="M0.0178026 45.088C0.0178026 32.7988 0.0178026 20.5151 0.0122134 8.2314C0.0122134 3.67188 3.66755 0.00551333 8.27864 0C20.7649 0 33.2512 0 45.7375 0.00551333C50.41 0.00551333 53.9536 3.46789 53.9815 8.09357C54.0151 13.7117 53.9927 19.3242 53.9927 24.9423C53.9927 43.831 53.9927 62.7141 53.9815 81.6028C53.9815 86.3774 50.7454 89.7681 45.8828 89.9335C42.4231 90.0492 38.9578 89.9776 35.4924 89.9831C26.6336 89.9831 17.7747 89.961 8.9214 89.9941C5.60141 90.0051 2.8627 88.919 1.19153 86.03C0.52642 84.8832 0.0625162 83.4443 0.056927 82.1321C-0.026911 69.7877 0.00662424 57.4379 0.00662424 45.088H0.0122134H0.0178026ZM45.4748 41.2397C45.4748 32.468 45.4748 23.7018 45.4748 14.9301C45.4748 13.1989 44.7426 12.4656 42.9876 12.4656C32.2675 12.4601 21.5418 12.4601 10.8217 12.4656C9.02759 12.4656 8.32894 13.1603 8.32894 14.9025C8.32894 32.3412 8.32894 49.7854 8.32894 67.224C8.32894 68.8725 9.03318 69.6003 10.6764 69.6003C21.5306 69.6058 32.3849 69.6058 43.2391 69.6003C44.9661 69.6003 45.4859 69.06 45.4859 67.3509C45.4859 58.6453 45.4859 49.9453 45.4859 41.2397H45.4748ZM27.0025 76.0344C24.7221 76.0344 22.9615 77.7655 22.9615 80.0095C22.9615 82.2644 24.6997 84.0011 26.9745 84.0066C29.1655 84.0121 31.0267 82.1872 31.0379 80.015C31.049 77.7821 29.2717 76.0344 27.0025 76.0344Z" fill="#FFBE00"/>
</svg>
