<svg width="111" height="111" viewBox="0 0 111 111" fill="none" xmlns="http://www.w3.org/2000/svg">
<path d="M61.724 34.9095C66.349 35.1315 70.1785 32.3195 71.2885 27.898C72.306 23.791 70.234 19.4065 66.349 17.5935C65.4795 17.1865 64.5175 16.9645 63.611 16.65H61.2985C61.1875 16.687 61.058 16.761 60.947 16.7795C55.9335 17.6305 52.622 22.2 53.3805 27.195C54.028 31.3945 57.617 34.706 61.7425 34.9095H61.724Z" fill="#FFBE00"/>
<path d="M77.5231 49.0435C77.2641 43.6785 72.6946 38.7205 67.3481 38.2025C64.0921 37.9065 60.7436 37.9065 57.4876 38.2025C56.1001 38.332 54.7681 38.7575 53.5471 39.4235C55.9336 41.995 57.4691 45.325 57.6541 48.8585C57.7836 51.615 57.7836 54.3715 57.7651 57.0355V60.939C57.7651 62.456 57.8021 64.0285 57.6726 65.638C57.5246 67.8395 56.5811 70.855 53.1401 73.075C53.2326 73.9815 53.3436 74.9065 53.4546 75.813C53.9356 80.216 54.4351 84.619 54.9346 89.022C55.1936 91.279 55.4526 93.5545 55.7116 95.8485H69.0316C69.0686 95.5525 69.1241 95.312 69.1611 95.053C69.9936 87.542 70.8446 80.0495 71.6586 72.5385C71.7511 71.7245 72.0101 71.1695 72.8426 70.929C73.2866 70.7995 73.7121 70.559 74.1006 70.337C76.0801 69.2455 77.3936 67.6545 77.5601 65.3605C77.6896 63.566 77.6526 61.753 77.6341 59.94C77.6156 56.314 77.7081 52.6695 77.5231 49.0435Z" fill="#FFBE00"/>
<path d="M38.1551 34.9095C42.7801 35.1315 46.6096 32.3195 47.7196 27.898C48.7371 23.791 46.6651 19.4065 42.7801 17.5935C41.9106 17.1865 40.9486 16.9645 40.0421 16.65H37.7296C37.6186 16.687 37.4891 16.761 37.3781 16.7795C32.3646 17.6305 29.0531 22.2 29.8116 27.195C30.4591 31.3945 34.0481 34.706 38.1736 34.9095H38.1551Z" fill="#FFBE00"/>
<path d="M54.0653 59.94C54.0468 56.314 54.1393 52.6695 53.9543 49.0435C53.6768 43.6785 49.1258 38.7205 43.7793 38.2025C40.5048 37.9065 37.1748 37.9065 33.9003 38.2025C32.5313 38.332 31.1993 38.7575 29.9598 39.405C32.3463 41.9765 33.9003 45.325 34.0668 48.8585C34.2148 51.615 34.1963 54.3715 34.1963 57.0355V60.939C34.2148 62.456 34.2333 64.0285 34.1038 65.638C33.9558 67.8395 33.0123 70.855 29.5713 73.075C29.6638 73.9815 29.7748 74.9065 29.8673 75.813C30.3668 80.216 30.8663 84.619 31.3658 89.022C31.6248 91.279 31.8838 93.5545 32.1428 95.8485H45.4443C45.4998 95.5525 45.5553 95.312 45.5923 95.053C46.4248 87.542 47.2758 80.0495 48.0898 72.5385C48.1823 71.7245 48.4413 71.1695 49.2738 70.929C49.7178 70.7995 50.1248 70.559 50.5318 70.337C52.5113 69.2455 53.8248 67.6545 53.9913 65.3605C54.1208 63.566 54.0653 61.753 54.0653 59.94Z" fill="#FFBE00"/>
<path d="M14.5677 34.9095C19.1927 35.1315 23.0222 32.3195 24.1322 27.898C25.1497 23.791 23.0777 19.4065 19.1927 17.5935C18.3232 17.1865 17.3612 16.9645 16.4547 16.65H14.1422C14.0312 16.687 13.9017 16.761 13.7907 16.7795C8.77723 17.6305 5.46573 22.2 6.22423 27.195C6.87173 31.3945 10.4607 34.706 14.5862 34.9095H14.5677Z" fill="#FFBE00"/>
<path d="M30.4776 59.9585C30.4776 56.3325 30.5516 52.688 30.3666 49.062C30.1076 43.697 25.5381 38.739 20.1916 38.221C16.9356 37.9065 13.5871 37.925 10.3311 38.221C4.9661 38.7205 0.248596 43.7525 0.100596 49.0805C-0.0659044 54.5195 0.00809564 59.9585 0.0820956 65.3975C0.119096 67.525 1.1736 69.1715 3.1346 70.152C3.8191 70.5035 4.5221 70.8365 5.2436 71.1325C5.68759 71.3175 5.8726 71.595 5.9096 72.0575C6.0206 73.3155 6.1686 74.5735 6.3166 75.8315C6.8161 80.2345 7.3156 84.6375 7.8151 89.0405C8.0741 91.316 8.3331 93.573 8.5921 95.867H21.8936C21.9491 95.571 22.0046 95.3305 22.0231 95.0715C22.8556 87.5605 23.7066 80.068 24.5206 72.557C24.6131 71.7245 24.8721 71.188 25.7046 70.929C26.1486 70.7995 26.5556 70.5775 26.9626 70.3555C28.9236 69.264 30.2556 67.673 30.4221 65.379C30.5516 63.5845 30.4961 61.7715 30.4961 59.977L30.4776 59.9585Z" fill="#FFBE00"/>
<path d="M102.276 55.648V47.656H96.9294V55.648H88.9189V61.013H96.9294V69.0235H102.276V61.013H110.286V55.648H102.276Z" fill="#FFBE00"/>
</svg>
