<svg width="111" height="111" viewBox="0 0 111 111" fill="none" xmlns="http://www.w3.org/2000/svg">
<path d="M14.5677 34.9095C19.1927 35.1315 23.0222 32.3195 24.1322 27.898C25.1497 23.791 23.0777 19.4065 19.1927 17.5935C18.3232 17.1865 17.3612 16.9645 16.4547 16.65H14.1422C14.0312 16.687 13.9017 16.761 13.7907 16.7795C8.77723 17.6305 5.46573 22.2 6.22423 27.195C6.87173 31.3945 10.4607 34.706 14.5862 34.9095H14.5677Z" fill="#FFBE00"/>
<path d="M30.4776 59.94C30.4776 56.314 30.5516 52.6695 30.3666 49.0435C30.1076 43.6785 25.5381 38.7205 20.1916 38.2025C16.9356 37.888 13.5871 37.9065 10.3311 38.2025C4.96609 38.702 0.248594 43.734 0.100594 49.062C-0.0659057 54.501 0.00809744 59.94 0.0820974 65.379C0.119097 67.5065 1.1736 69.153 3.1346 70.1335C3.8191 70.485 4.5221 70.818 5.2436 71.114C5.6876 71.299 5.8726 71.5765 5.9096 72.039C6.0206 73.297 6.1686 74.555 6.3166 75.813C6.8161 80.216 7.31559 84.619 7.81509 89.022C8.07409 91.2975 8.33309 93.5545 8.59209 95.8485H21.8936C21.9491 95.5525 22.0046 95.312 22.0231 95.053C22.8556 87.542 23.7066 80.0495 24.5206 72.5385C24.6131 71.706 24.8721 71.1695 25.7046 70.9105C26.1486 70.781 26.5556 70.559 26.9626 70.337C28.9236 69.2455 30.2556 67.6545 30.4221 65.3605C30.5516 63.566 30.4961 61.753 30.4961 59.9585L30.4776 59.94Z" fill="#FFBE00"/>
</svg>
