<svg width="111" height="111" viewBox="0 0 111 111" fill="none" xmlns="http://www.w3.org/2000/svg">
<path d="M37.5999 34.9095C42.2249 35.1315 46.0545 32.3195 47.1645 27.898C48.182 23.791 46.1099 19.4065 42.2249 17.5935C41.3554 17.1865 40.3935 16.9645 39.487 16.65H37.1745C37.0635 16.687 36.934 16.761 36.823 16.7795C31.8095 17.6305 28.498 22.2 29.2565 27.195C29.904 31.3945 33.493 34.706 37.6185 34.9095H37.5999Z" fill="#FFBE00"/>
<path d="M53.5102 59.94C53.4917 56.314 53.5842 52.6695 53.3992 49.0435C53.1402 43.6785 48.5707 38.7205 43.2242 38.2025C39.9682 37.9065 36.6197 37.9065 33.3637 38.2025C32.1242 38.3135 30.9217 38.665 29.7932 39.22C32.2722 41.81 33.8817 45.2325 34.0667 48.8585C34.2147 51.615 34.1962 54.3715 34.1962 57.0355V60.939C34.2147 62.456 34.2332 64.0285 34.1037 65.638C33.9372 67.9505 32.9197 71.1325 29.0532 73.3895C29.1457 74.2035 29.2382 74.999 29.3307 75.813C29.8117 80.216 30.3112 84.619 30.8107 89.022C31.0697 91.279 31.3287 93.5545 31.5877 95.8485H44.9077C44.9447 95.5525 45.0002 95.312 45.0372 95.053C45.8697 87.542 46.7207 80.0495 47.5347 72.5385C47.6272 71.7245 47.8862 71.1695 48.7187 70.929C49.1627 70.7995 49.5882 70.559 49.9767 70.337C51.9562 69.2455 53.2697 67.6545 53.4362 65.3605C53.5657 63.566 53.5287 61.753 53.5102 59.94Z" fill="#FFBE00"/>
<path d="M14.5677 34.9095C19.1927 35.1315 23.0222 32.3195 24.1322 27.898C25.1497 23.791 23.0777 19.4065 19.1927 17.5935C18.3232 17.1865 17.3612 16.9645 16.4547 16.65H14.1422C14.0312 16.687 13.9017 16.761 13.7907 16.7795C8.77723 17.6305 5.46573 22.2 6.22423 27.195C6.87173 31.3945 10.4607 34.706 14.5862 34.9095H14.5677Z" fill="#FFBE00"/>
<path d="M30.4776 59.94C30.4776 56.314 30.5516 52.6695 30.3666 49.0435C30.1076 43.6785 25.5381 38.7205 20.1916 38.2025C16.9356 37.888 13.5871 37.9065 10.3311 38.2025C4.96609 38.702 0.248596 43.734 0.100596 49.062C-0.0659042 54.501 0.00809539 59.94 0.0820954 65.379C0.119095 67.5065 1.17359 69.153 3.13459 70.1335C3.81909 70.485 4.5221 70.818 5.2436 71.114C5.68759 71.299 5.87259 71.5765 5.90959 72.039C6.02059 73.297 6.16859 74.555 6.31659 75.813C6.81609 80.216 7.3156 84.619 7.8151 89.022C8.0741 91.2975 8.3331 93.5545 8.5921 95.8485H21.8936C21.9491 95.5525 22.0046 95.312 22.0231 95.053C22.8556 87.542 23.7066 80.0495 24.5206 72.5385C24.6131 71.706 24.8721 71.1695 25.7046 70.9105C26.1486 70.781 26.5556 70.559 26.9626 70.337C28.9236 69.2455 30.2556 67.6545 30.4221 65.3605C30.5516 63.566 30.4961 61.753 30.4961 59.9585L30.4776 59.94Z" fill="#FFBE00"/>
</svg>
