<svg width="273" height="36" viewBox="0 0 273 36" fill="none" xmlns="http://www.w3.org/2000/svg">
<path d="M24.3018 29.5578C24.033 29.7412 23.7548 29.9177 23.4707 30.0836C22.9565 30.385 22.4176 30.6561 21.86 30.8944C20.9936 31.2648 20.0815 31.5487 19.1411 31.7415C18.2008 31.9343 17.2534 32.0336 16.3119 32.0336C14.4113 32.0336 12.5916 31.6538 10.9246 30.9669C9.18952 30.2518 7.63404 29.2108 6.34151 27.9233C3.78934 25.3833 2.21155 21.8747 2.21155 18.0004C2.21155 16.1089 2.59308 14.2979 3.28337 12.6389C4.00183 10.912 5.04899 9.36396 6.34269 8.07643C7.63638 6.7889 9.1907 5.7479 10.9258 5.03286C12.5928 4.34587 14.4124 3.96616 16.3131 3.96616C18.2137 3.96616 20.0333 4.34587 21.7003 5.03286C23.4354 5.7479 24.9909 6.79007 26.2846 8.07643C28.8368 10.6164 30.4146 14.125 30.4146 17.9993C30.4146 18.8837 30.3277 19.7693 30.1575 20.6456C29.9884 21.5184 29.7337 22.3771 29.4003 23.209C29.088 23.9859 28.7041 24.7383 28.2522 25.4557C27.9669 25.9079 27.6581 26.3425 27.3247 26.7584L28.7523 30.9201L24.3042 29.559L24.3018 29.5578Z" fill="white"/>
<path d="M6.66341 26.5553C6.91815 26.8591 7.18699 27.1512 7.46756 27.4304C9.89178 29.843 13.2422 31.3362 16.9425 31.3362C18.7833 31.3362 20.5794 30.9623 22.2288 30.259C22.6104 30.0966 22.9837 29.9155 23.3488 29.718L16.4777 27.615L20.3693 24.9546L24.0297 26.6207L22.4578 23.6437C21.4517 23.5386 20.5078 23.2161 19.6755 22.7243C18.6107 22.0957 17.7279 21.189 17.1304 20.1083L18.4182 21.7732C18.9324 22.7032 21.5421 23.1028 22.4578 23.6437C23.3406 24.1648 22.3826 22.7149 23.4791 22.7149H27.0561V17.1769C27.0209 17.1804 26.9857 17.1816 26.9493 17.1816C26.0524 17.1816 25.3574 16.8299 24.8726 16.2691C24.356 15.6709 24.0954 14.8402 24.0954 13.9557C24.0954 13.9195 24.0978 13.8845 24.1013 13.8494H16.5211C16.4354 14.3705 16.1865 14.8378 15.8273 15.1942C15.3788 15.6405 14.7578 15.727 14.0734 15.727C13.389 15.727 14.1063 15.6405 13.6578 15.1942C13.2986 14.8367 13.0485 14.3693 12.9628 13.8471H9.82838V13.8494C8.95848 13.8494 8.16724 14.2046 7.59318 14.7759C7.01911 15.3473 6.66223 16.1347 6.66223 17.0016V21.7989C6.66223 22.6647 7.01911 23.4521 7.59318 24.0235C8.16724 24.5948 8.95848 24.95 9.82838 24.95C10.6983 24.95 11.4907 24.5948 12.0648 24.0235C12.6388 23.4521 12.9957 22.6647 12.9957 21.7989V17.0016H13.9666V21.7989C13.9666 22.9311 13.5017 23.9604 12.7515 24.707C12.0025 25.4524 10.9671 25.9162 9.82956 25.9162C8.692 25.9162 7.65774 25.4535 6.90759 24.707C6.82306 24.6217 6.74089 24.534 6.66341 24.4417V26.5553Z" fill="#FFCB00"/>
<path d="M21.0419 18.1093C20.7449 18.1093 20.5031 18.35 20.5031 18.6455C20.5031 18.9411 20.7437 19.1818 21.0419 19.1818C21.3401 19.1818 21.5808 18.9423 21.5808 18.6455C21.5808 18.3488 21.3401 18.1093 21.0419 18.1093ZM24.1142 18.1093C23.8172 18.1093 23.5753 18.35 23.5753 18.6455C23.5753 18.9411 23.816 19.1818 24.1142 19.1818C24.4124 19.1818 24.653 18.9423 24.653 18.6455C24.653 18.3488 24.4112 18.1093 24.1142 18.1093ZM19.3268 9.87003C18.8232 9.67842 18.2961 9.57677 17.7795 9.56275C17.2559 9.54873 16.7394 9.62233 16.2675 9.78123L16.0902 9.84082L15.9188 9.76604C15.4645 9.56742 14.9644 9.46227 14.4525 9.44825C13.9278 9.43423 13.3913 9.51485 12.8771 9.68659L12.5695 8.77294C13.1894 8.56497 13.8397 8.468 14.4784 8.48552C15.0501 8.50188 15.6112 8.60937 16.1325 8.8115C16.6619 8.65494 17.2301 8.58367 17.8053 8.59886C18.4346 8.61638 19.0709 8.73789 19.6719 8.96689L19.3268 9.86886V9.87003ZM15.3048 13.1379C15.7697 13.1379 16.1465 13.513 16.1465 13.9745C16.1465 14.0224 16.1419 14.0703 16.1348 14.117C16.2346 13.916 16.2909 13.6894 16.2909 13.4499C16.2909 13.0339 16.1219 12.6589 15.8495 12.3867C15.576 12.1156 15.1992 11.9474 14.7824 11.9474C14.3657 11.9474 13.9888 12.1156 13.7153 12.3878C13.4429 12.6589 13.2739 13.0339 13.2739 13.4499C13.2739 13.8658 13.4429 14.2397 13.7165 14.5119C13.99 14.7841 14.3668 14.9524 14.7836 14.9524C15.0207 14.9524 15.245 14.8975 15.4445 14.8005C15.3999 14.8075 15.3541 14.8122 15.3072 14.8122C14.8423 14.8122 14.4654 14.4371 14.4654 13.9756C14.4654 13.5141 14.8423 13.1391 15.3072 13.1391L15.3048 13.1379ZM18.4886 12.8844C18.4135 12.6636 18.2878 12.4661 18.1258 12.3049C17.8523 12.0338 17.4755 11.8656 17.0587 11.8656C16.9401 11.8656 16.8239 11.8784 16.7124 11.9053C16.9413 12.188 17.108 12.521 17.1949 12.8844H18.4898H18.4886ZM22.993 23.6812L26.0477 28.5509L20.671 25.4863L18.046 27.2797L27.7804 30.2602L25.5253 23.6812H22.9919H22.993ZM26.3153 30.8186C25.213 31.6704 24.0097 32.3749 22.7359 32.9182C20.7226 33.7769 18.5402 34.2337 16.3121 34.2337C11.8076 34.2337 7.72931 32.417 4.77799 29.4785C1.8255 26.5413 0 22.4836 0 18.0006C0 13.5176 1.8255 9.45876 4.77799 6.52152C7.72931 3.5831 11.8076 1.76631 16.3121 1.76631C20.8165 1.76631 24.8948 3.5831 27.8462 6.52152C30.7987 9.45876 32.6241 13.5176 32.6241 18.0006C32.6241 20.0768 32.2203 22.1202 31.4549 24.027C30.7329 25.8239 29.6881 27.4935 28.3545 28.9458L29.3113 31.737L26.3153 30.8198V30.8186ZM6.03177 26.5553C6.28652 26.8591 6.55535 27.1512 6.83593 27.4304C9.26014 29.8431 12.6106 31.3362 16.3109 31.3362C18.1517 31.3362 19.9478 30.9623 21.5972 30.259C21.9787 30.0966 22.3521 29.9155 22.7172 29.7181L15.846 27.615L20.624 24.3483L23.182 25.8064L21.825 23.6438C20.8189 23.5386 19.875 23.2162 19.0427 22.7243C17.9779 22.0957 17.0951 21.1891 16.4976 20.1083L17.3463 19.6445C17.8605 20.5745 18.6201 21.3538 19.5358 21.8947C20.4186 22.4158 21.4481 22.7161 22.5458 22.7161H26.4245V17.1781C26.3893 17.1816 26.3541 17.1828 26.3177 17.1828C25.4208 17.1828 24.7258 16.8311 24.241 16.2703C23.7244 15.6721 23.4638 14.8414 23.4638 13.9569C23.4638 13.9207 23.4661 13.8857 23.4697 13.8506H17.2278C17.1421 14.3717 16.8932 14.839 16.534 15.1954C16.0855 15.6417 15.4657 15.9186 14.7801 15.9186C14.0945 15.9186 13.4758 15.6429 13.0262 15.1954C12.667 14.8379 12.4169 14.3705 12.3324 13.8483H9.19792V13.8506C8.32802 13.8506 7.5356 14.2058 6.96154 14.7771C6.38748 15.3484 6.0306 16.1359 6.0306 17.0028V21.8001C6.0306 22.6659 6.38748 23.4533 6.96154 24.0247C7.5356 24.596 8.32685 24.9512 9.19792 24.9512C10.069 24.9512 10.8591 24.596 11.4331 24.0247C12.0072 23.4533 12.3641 22.6659 12.3641 21.8001V17.0028H13.3349V21.8001C13.3349 22.9322 12.87 23.9616 12.1199 24.7081C11.3709 25.4536 10.3355 25.9174 9.19792 25.9174C8.06036 25.9174 7.02493 25.4547 6.27595 24.7081C6.19025 24.6229 6.10925 24.5352 6.03177 24.4429V26.5565V26.5553ZM27.2463 25.7153C27.8603 24.853 28.3662 23.9253 28.7583 22.9509C29.3829 21.397 29.7116 19.7181 29.7116 18.0006C29.7116 14.318 28.2113 10.9835 25.7871 8.57081C23.3628 6.15816 20.0124 4.665 16.3121 4.665C12.6118 4.665 9.26131 6.15816 6.8371 8.57081C4.41289 10.9835 2.91258 14.318 2.91258 18.0006C2.91258 20.6726 3.70265 23.1612 5.06208 25.2479V21.8001V17.0017C5.06208 15.8695 5.52697 14.839 6.27713 14.0936C7.02611 13.3482 8.06153 12.8844 9.19909 12.8844V12.8867H12.3664C12.4732 12.4322 12.7069 12.0268 13.0274 11.7078V11.7055C13.4758 11.2592 14.0957 10.9823 14.7812 10.9823C15.1604 10.9823 15.5208 11.0676 15.8425 11.2195C16.0256 11.1167 16.2205 11.0372 16.4189 10.9846C16.629 10.9286 16.8439 10.9005 17.0599 10.9005C17.7443 10.9005 18.3641 11.1774 18.8138 11.6237C19.1542 11.9626 19.3949 12.3983 19.4923 12.8856H25.645C26.1275 12.8856 26.5654 13.0818 26.8835 13.3973V13.3996C27.2005 13.7151 27.3977 14.1509 27.3977 14.6299V23.6823H26.5513L27.2486 25.7164L27.2463 25.7153ZM22.5775 19.8291C22.2805 19.8291 22.0386 20.0686 22.0386 20.3654C22.0386 20.6621 22.2793 20.9016 22.5775 20.9016C22.8756 20.9016 23.1163 20.6621 23.1163 20.3654C23.1163 20.0686 22.8756 19.8291 22.5775 19.8291Z" fill="#191B1C"/>
<path d="M119.837 22.9275L117.735 19.1467C118.327 18.8674 118.792 18.4749 119.129 17.969C119.466 17.4631 119.635 16.8485 119.635 16.1253C119.635 14.999 119.249 14.1262 118.475 13.507C117.701 12.8866 116.631 12.577 115.261 12.577H110.979C110.865 12.577 110.772 12.6156 110.699 12.6927C110.626 12.7698 110.59 12.8656 110.59 12.9789V23.0349C110.59 23.1378 110.628 23.2289 110.707 23.306C110.784 23.3831 110.876 23.4228 110.979 23.4228H113.112C113.226 23.4228 113.323 23.3866 113.4 23.3142C113.478 23.2417 113.516 23.1483 113.516 23.0349V19.642H115.011L116.724 23.0046C116.848 23.2838 117.06 23.4228 117.362 23.4228H119.557C119.651 23.4228 119.729 23.389 119.791 23.3224C119.853 23.2546 119.885 23.1798 119.885 23.098C119.885 23.0466 119.87 22.9894 119.838 22.9275H119.837ZM116.263 17.0319C116.03 17.2539 115.689 17.3649 115.243 17.3649H113.515V14.8086H115.243C115.689 14.8086 116.03 14.9277 116.263 15.1649C116.497 15.4021 116.613 15.7175 116.613 16.1101C116.613 16.5027 116.497 16.8099 116.263 17.0319Z" fill="white"/>
<path d="M109.156 12.577H100.702C100.589 12.577 100.492 12.6156 100.415 12.6927C100.337 12.7698 100.299 12.8656 100.299 12.9789V14.7139C100.299 14.8272 100.337 14.9207 100.415 14.9932C100.492 15.0656 100.589 15.1018 100.702 15.1018H103.442V23.0349C103.442 23.1483 103.481 23.2417 103.56 23.3142C103.637 23.3866 103.734 23.4228 103.847 23.4228H106.011C106.125 23.4228 106.221 23.3866 106.299 23.3142C106.376 23.2417 106.416 23.1483 106.416 23.0349V15.1018H109.156C109.27 15.1018 109.366 15.0656 109.444 14.9932C109.521 14.9207 109.561 14.8284 109.561 14.7139V12.9789C109.561 12.8656 109.522 12.7698 109.444 12.6927C109.366 12.6156 109.27 12.577 109.156 12.577Z" fill="white"/>
<path d="M98.9112 21.0988H93.8668V19.0845H98.444C98.5579 19.0845 98.6541 19.046 98.7328 18.9688C98.8103 18.8917 98.849 18.7959 98.849 18.6826V17.2724C98.849 17.1591 98.8103 17.0633 98.7328 16.9861C98.6553 16.909 98.559 16.8705 98.444 16.8705H93.8668V14.903H98.7868C98.9007 14.903 98.9969 14.8667 99.0744 14.7943C99.1519 14.7219 99.1918 14.6296 99.1918 14.5162V12.9822C99.1918 12.8689 99.1531 12.7731 99.0744 12.6959C98.9958 12.6188 98.9007 12.5803 98.7868 12.5803H91.4378C91.324 12.5803 91.2301 12.6188 91.1573 12.6959C91.0845 12.7731 91.0481 12.8689 91.0481 12.9822V23.0382C91.0481 23.141 91.0868 23.2322 91.1643 23.3093C91.2418 23.3864 91.3334 23.4261 91.4367 23.4261H98.9101C99.0239 23.4261 99.1202 23.3899 99.1977 23.3175C99.2752 23.245 99.3139 23.1516 99.3139 23.0382V21.5042C99.3139 21.3908 99.2752 21.295 99.1977 21.2179C99.1202 21.1408 99.0239 21.1011 98.9101 21.1011L98.9112 21.0988Z" fill="white"/>
<path d="M75.978 21.0988H70.9335V19.0845H75.5108C75.6235 19.0845 75.7209 19.046 75.7984 18.9688C75.877 18.8917 75.9158 18.7948 75.9158 18.6826V17.2724C75.9158 17.1602 75.8759 17.0621 75.7984 16.9861C75.7209 16.909 75.6246 16.8705 75.5108 16.8705H70.9335V14.903H75.8536C75.9674 14.903 76.0637 14.8667 76.1412 14.7943C76.2187 14.7219 76.2574 14.6296 76.2574 14.5162V12.9822C76.2574 12.8689 76.2187 12.7731 76.1412 12.6959C76.0637 12.6188 75.9674 12.5803 75.8536 12.5803H68.5046C68.3907 12.5803 68.2968 12.6188 68.2241 12.6959C68.1513 12.7731 68.1149 12.8689 68.1149 12.9822V23.0382C68.1149 23.141 68.1536 23.2322 68.2311 23.3093C68.3086 23.3864 68.4037 23.4261 68.5035 23.4261H75.9768C76.0884 23.4261 76.1881 23.3887 76.2645 23.3175C76.3408 23.2462 76.3807 23.1504 76.3807 23.0382V21.5042C76.3807 21.392 76.3419 21.295 76.2645 21.2179C76.187 21.1408 76.0907 21.1011 75.9768 21.1011L75.978 21.0988Z" fill="white"/>
<path d="M66.4032 20.9902H61.732V12.9636C61.732 12.8526 61.6944 12.7556 61.6228 12.6843C61.5512 12.6131 61.4573 12.5757 61.3422 12.5757H59.1622C59.0589 12.5757 58.9662 12.6131 58.8899 12.6843C58.8124 12.7556 58.7725 12.8491 58.7725 12.9636V23.0348C58.7725 23.1376 58.8112 23.2288 58.8899 23.3059C58.9673 23.383 59.0624 23.4227 59.1622 23.4227H66.402C66.5135 23.4227 66.6133 23.3853 66.6896 23.314C66.7659 23.2428 66.807 23.147 66.807 23.0348V21.3921C66.807 21.2811 66.7683 21.183 66.6896 21.1058C66.6121 21.0287 66.5159 20.9902 66.402 20.9902H66.4032Z" fill="white"/>
<path d="M56.6406 21.0988H51.5961V19.0845H56.1734C56.2861 19.0845 56.3835 19.046 56.4622 18.9688C56.5396 18.8917 56.5784 18.7948 56.5784 18.6826V17.2724C56.5784 17.1602 56.5385 17.0621 56.4622 16.9861C56.3847 16.909 56.2884 16.8705 56.1734 16.8705H51.5961V14.903H56.5162C56.63 14.903 56.7263 14.8667 56.8038 14.7943C56.8813 14.7219 56.92 14.6296 56.92 14.5162V12.9822C56.92 12.8689 56.8813 12.7731 56.8038 12.6959C56.7263 12.6188 56.63 12.5803 56.5162 12.5803H49.1672C49.0533 12.5803 48.9594 12.6188 48.8866 12.6959C48.8139 12.7731 48.7775 12.8689 48.7775 12.9822V23.0382C48.7775 23.141 48.8162 23.2322 48.8949 23.3093C48.9723 23.3864 49.0674 23.4261 49.1672 23.4261H56.6406C56.7533 23.4261 56.8519 23.3887 56.9282 23.3175C57.0057 23.2462 57.0456 23.1504 57.0456 23.0382V21.5042C57.0456 21.392 57.0069 21.295 56.9282 21.2179C56.8507 21.1408 56.7545 21.1011 56.6406 21.1011V21.0988Z" fill="white"/>
<path d="M47.0038 12.577H38.549C38.4351 12.577 38.3388 12.6156 38.2614 12.6927C38.1839 12.7698 38.1451 12.8656 38.1451 12.9789V14.7139C38.1451 14.8273 38.1839 14.9207 38.2614 14.9932C38.3388 15.0656 38.4351 15.1018 38.549 15.1018H41.289V23.035C41.289 23.1483 41.3289 23.2429 41.4064 23.3142C41.4827 23.3855 41.5848 23.4229 41.694 23.4229H43.8576C43.9691 23.4229 44.0689 23.3855 44.1452 23.3142C44.2227 23.2429 44.2626 23.1471 44.2626 23.035V15.1018H47.0026C47.1165 15.1018 47.2128 15.0656 47.2902 14.9932C47.3677 14.9207 47.4065 14.8284 47.4065 14.7139V12.9789C47.4065 12.8656 47.3677 12.7698 47.2902 12.6927C47.2128 12.6156 47.1165 12.577 47.0026 12.577H47.0038Z" fill="white"/>
<path d="M88.5265 12.577H86.7668C86.5073 12.577 86.3207 12.6903 86.2068 12.9182L83.5126 17.6909L80.8348 12.9182C80.7209 12.6915 80.5342 12.577 80.2748 12.577H78.515C78.4012 12.577 78.3049 12.6156 78.2274 12.6927C78.1499 12.7698 78.1112 12.8656 78.1112 12.9789V23.0349C78.1112 23.1483 78.1499 23.2417 78.2274 23.3142C78.3049 23.3866 78.4012 23.4228 78.515 23.4228H80.0823C80.1914 23.4205 80.2842 23.3843 80.3593 23.3142C80.4345 23.2441 80.4744 23.1541 80.4755 23.0455V19.4948H81.7129V23.0455C81.7152 23.1541 81.754 23.2441 81.8303 23.3142C81.9054 23.3843 81.9982 23.4205 82.1073 23.4228H82.5546C82.6638 23.4205 82.7565 23.3843 82.8317 23.3142C82.908 23.2441 82.9467 23.1541 82.9491 23.0455V20.898H84.1852V23.0455C84.1876 23.1541 84.2263 23.2441 84.3015 23.3142C84.3766 23.3843 84.4693 23.4205 84.5797 23.4228H85.027C85.1361 23.4205 85.2289 23.3843 85.304 23.3142C85.3792 23.2441 85.4191 23.1541 85.4202 23.0455V18.7938H86.6576V23.0455C86.6599 23.1541 86.6987 23.2441 86.775 23.3142C86.8501 23.3843 86.9429 23.4205 87.052 23.4228H88.523C88.6369 23.4228 88.7331 23.3866 88.8106 23.3142C88.8881 23.2417 88.928 23.1483 88.928 23.0349V12.9789C88.928 12.8656 88.8893 12.7698 88.8106 12.6927C88.7331 12.6156 88.6369 12.577 88.523 12.577H88.5265Z" fill="white"/>
<path d="M150.926 12.0902L139.107 23.9098M139.107 12.0902L150.926 23.9098" stroke="white" stroke-width="1.26639" stroke-linecap="round" stroke-linejoin="round"/>
<g clip-path="url(#clip0_4029_27585)">
<path d="M187.55 35.4971C197.162 35.4971 204.953 27.8319 204.953 18.3764C204.953 8.92091 197.162 1.25571 187.55 1.25571C177.939 1.25571 170.147 8.92091 170.147 18.3764C170.147 27.8319 177.939 35.4971 187.55 35.4971Z" fill="white"/>
<path d="M186.43 15.009C185.912 15.009 185.492 15.4231 185.492 15.9356C185.492 16.448 185.912 16.8621 186.43 16.8621C186.949 16.8621 187.366 16.448 187.366 15.9356C187.366 15.4231 186.946 15.009 186.43 15.009Z" fill="#2C68FF"/>
<path d="M187.55 1.12831C177.939 1.12831 170.147 8.83595 170.147 18.3446C170.147 25.8756 175.034 32.2716 181.843 34.6082C182.46 33.3053 182.834 31.8952 183.11 30.4822C183.813 26.8745 183.908 23.1539 183.392 19.5143C183.251 18.5299 183.07 17.5165 183.329 16.5552C183.695 15.1943 184.913 14.1809 186.252 13.7003C187.591 13.2196 189.045 13.1907 190.47 13.2138C191.337 13.2283 192.238 13.2689 193.001 13.6742C193.324 13.8451 193.606 14.0796 193.839 14.3547C193.531 14.2736 193.208 14.2504 192.892 14.2823C192.785 14.291 192.679 14.3083 192.584 14.3547C192.489 14.401 192.402 14.4792 192.373 14.5805C192.316 14.7745 192.477 14.9772 192.667 15.0524C192.857 15.1277 193.07 15.1133 193.275 15.1248C193.479 15.1364 193.683 15.177 193.879 15.2407C194.052 15.2957 194.219 15.3738 194.375 15.4694C194.409 15.4926 194.444 15.5157 194.478 15.5389C194.611 15.9645 194.662 16.4133 194.628 16.8534C194.527 18.1071 193.79 19.2537 192.805 20.0471C191.82 20.8433 190.603 21.3095 189.367 21.5961C189.834 26.2201 189.727 30.9165 188.944 35.5C197.902 34.7964 204.951 27.387 204.951 18.3446C204.951 8.83595 197.159 1.12831 187.547 1.12831H187.55ZM183.545 14.1404C183.418 14.5226 183.081 14.8498 182.676 14.8787L182.877 14.6992C182.658 14.9251 182.304 15.0003 181.999 14.9222C181.691 14.8469 181.429 14.6355 181.242 14.3836C181.054 14.1288 180.939 13.8306 180.844 13.5323C180.455 12.2613 180.493 10.8917 180.746 9.58587C180.859 9.00099 181.034 8.39295 181.475 7.98759C181.642 7.83414 181.864 7.70963 182.088 7.75306C182.376 7.80808 182.546 8.10631 182.635 8.38427C183.004 9.48453 182.817 10.7035 183.128 11.8211C183.237 12.2062 183.401 12.5769 183.511 12.9619C183.62 13.347 183.669 13.764 183.542 14.1462L183.545 14.1404ZM187.536 8.44797C187.496 8.78673 187.38 9.11392 187.285 9.444C187.127 9.98255 187.026 10.5385 186.98 11.0973C186.957 11.381 186.949 11.6648 186.877 11.9399C186.661 12.7911 185.748 13.0633 185.068 12.5392C184.858 12.3742 184.697 12.1628 184.61 11.9138C184.472 11.5287 184.49 11.1031 184.55 10.6948C184.72 9.53086 185.227 8.41322 185.995 7.51274C186.111 7.37666 186.24 7.24057 186.407 7.16819C186.727 7.035 187.116 7.18845 187.323 7.46352C187.53 7.73858 187.576 8.10341 187.539 8.44218L187.536 8.44797Z" fill="#2C68FF"/>
<path d="M257.966 16.4973C257.687 15.4086 257.074 14.5689 255.899 14.291C255.009 14.0796 254.114 14.1491 253.342 14.6558C252.723 15.0582 252.184 15.5823 251.614 16.0456C250.169 13.376 247.335 13.8277 245.639 15.8574C245.599 15.6344 245.582 15.4955 245.553 15.3623C245.369 14.5544 244.859 14.1636 244.059 14.207C243.261 14.2504 242.838 14.6847 242.769 15.5505C242.749 15.7937 242.749 16.0398 242.749 16.283C242.749 18.8686 242.749 21.4543 242.749 24.0399C242.749 24.3439 242.76 24.6537 242.803 24.9519C242.907 25.6961 243.535 26.1651 244.289 26.0841C245.127 25.9972 245.573 25.421 245.579 24.3757C245.588 22.6674 245.573 20.9533 245.591 19.245C245.596 18.8223 245.625 18.3822 245.743 17.9797C246.057 16.9374 246.826 16.4712 247.848 16.6363C248.605 16.7579 249.026 17.392 249.029 18.4546C249.037 20.3685 249.029 22.2823 249.037 24.1962C249.037 24.5176 249.08 24.8477 249.164 25.1575C249.345 25.7974 249.91 26.1506 250.575 26.0841C251.393 26.003 251.845 25.4442 251.856 24.4308C251.873 22.8006 251.836 21.1734 251.876 19.5433C251.891 18.9208 251.98 18.2751 252.181 17.6902C252.467 16.8534 253.264 16.4828 254.174 16.6363C254.851 16.7492 255.257 17.279 255.329 18.1593C255.352 18.4227 255.352 18.6891 255.355 18.9526C255.355 20.7043 255.349 22.4532 255.36 24.2049C255.36 24.5089 255.395 24.8187 255.473 25.1083C255.66 25.8032 256.262 26.1709 256.979 26.0667C257.75 25.9567 258.173 25.4355 258.182 24.4771C258.199 22.3605 258.202 20.244 258.176 18.1245C258.171 17.5802 258.099 17.0242 257.963 16.4944V16.4886L257.966 16.4973Z" fill="white"/>
<path d="M271.413 23.8893C270.791 23.5245 270.575 23.0149 270.584 22.3142C270.595 20.9736 270.61 19.6243 270.503 18.2895C270.345 16.2946 269.092 14.8903 267.134 14.4126C265.651 14.0506 264.154 14.1056 262.677 14.4502C262.202 14.5602 261.732 14.7484 261.309 14.9888C260.612 15.3883 260.368 16.0369 260.607 16.6305C260.82 17.1603 261.378 17.3775 262.193 17.2095C262.838 17.0764 263.463 16.8274 264.111 16.7637C264.857 16.6942 265.637 16.671 266.365 16.81C267.223 16.975 267.707 17.7915 267.624 18.7152C267.37 18.7152 267.105 18.7094 266.843 18.7152C265.671 18.7354 264.497 18.7007 263.33 18.7934C261.666 18.9265 260.37 20.0992 260.1 21.6019C259.593 24.3844 261.897 26.5589 264.793 26.0522C266.224 25.8032 267.339 25.0735 268.28 23.8227C268.384 24.1181 268.441 24.286 268.499 24.4539C268.85 25.4239 269.677 26.0667 270.595 26.0956C271.292 26.1188 271.937 25.7482 272.093 25.2444C272.294 24.5842 271.917 24.1875 271.416 23.8922L271.413 23.8893ZM263.964 23.8198C263.307 23.6808 262.91 23.2263 262.798 22.4879C262.714 21.9349 263.057 21.2892 263.595 21.0286C263.797 20.9302 264.022 20.8202 264.235 20.8173C265.363 20.7941 266.489 20.8086 267.658 20.8086C267.627 22.5719 265.617 24.1702 263.967 23.8169L263.964 23.8198Z" fill="white"/>
<path d="M240.618 23.8893C239.944 23.5361 239.757 22.9773 239.765 22.2679C239.783 21.0084 239.826 19.7402 239.725 18.4864C239.59 16.7752 238.83 15.3681 237.142 14.705C235.003 13.8653 232.84 13.9956 230.721 14.8613C230.499 14.9511 230.298 15.119 230.119 15.2783C229.711 15.6431 229.592 16.0948 229.8 16.6073C230.004 17.114 230.425 17.2993 230.94 17.2501C231.326 17.2124 231.703 17.0908 232.089 17.0387C233.039 16.9055 233.992 16.6826 234.945 16.6884C236.155 16.6971 236.889 17.5541 236.808 18.7152C236.575 18.7152 236.333 18.7152 236.091 18.7152C234.919 18.7325 233.745 18.6949 232.578 18.7847C230.96 18.9092 229.725 19.9631 229.33 21.4282C228.945 22.8614 229.535 24.5784 230.744 25.3863C231.968 26.2057 233.316 26.2896 234.703 25.8814C235.823 25.5513 236.702 24.868 237.445 23.8111C237.571 24.1354 237.64 24.3207 237.712 24.506C238.113 25.476 238.945 26.0956 239.846 26.0956C240.531 26.0956 241.145 25.7424 241.283 25.2473C241.464 24.6045 241.153 24.176 240.618 23.8922V23.8893ZM233.422 23.8546C232.648 23.7851 232.126 23.3015 232.023 22.5545C231.919 21.7988 232.273 21.1995 233.013 20.9331C233.241 20.852 233.491 20.797 233.73 20.7941C234.755 20.7796 235.777 20.7854 236.849 20.7854C236.765 22.5227 235.072 23.9964 233.419 23.8517L233.422 23.8546Z" fill="white"/>
<path d="M219.82 14.9366C217.963 13.8827 216.005 13.9145 214.121 14.7397C211.533 15.8748 210.231 18.692 210.816 21.4977C211.084 22.7717 211.637 23.8835 212.705 24.6856C214.922 26.3533 217.367 26.446 219.898 25.5947C220.427 25.4152 220.926 25.0041 221.32 24.59C221.657 24.2397 221.654 23.7214 221.346 23.2842C221.046 22.8556 220.606 22.7977 220.137 22.902C219.857 22.9628 219.595 23.1018 219.316 23.1597C218.415 23.3363 217.511 23.6171 216.606 23.62C215.124 23.6287 214.064 22.8383 213.664 21.5672H214.389C215.685 21.5585 216.984 21.6048 218.274 21.5295C219.722 21.4427 220.969 20.9186 221.591 19.494C222.273 17.9334 221.47 15.8834 219.817 14.9424L219.82 14.9366ZM217.914 19.384C216.474 19.5172 215.026 19.5491 213.465 19.6272C213.698 18.2056 214.355 17.3427 215.509 16.8795C216.313 16.561 217.151 16.5407 217.983 16.7868C218.734 17.0098 219.08 17.4933 219.048 18.2229C219.022 18.8165 218.639 19.3145 217.914 19.384Z" fill="white"/>
<path d="M227.45 23.5448C227.036 23.2407 226.658 22.7717 226.48 22.2939C226.287 21.7814 226.304 21.1763 226.301 20.6117C226.287 17.5599 226.301 14.5052 226.29 11.4505C226.29 11.1089 226.258 10.7556 226.172 10.4255C226.022 9.85515 225.619 9.53665 225.023 9.47874C224.11 9.38898 223.488 9.97965 223.474 11.022C223.451 12.9156 223.465 14.8063 223.465 16.7028C223.465 18.3127 223.419 19.9226 223.485 21.5266C223.52 22.3924 223.647 23.2784 223.909 24.0978C224.315 25.3689 225.472 26.1188 226.716 26.1014C227.473 26.0898 228.159 25.6439 228.308 25.0649C228.47 24.4481 228.179 24.0746 227.456 23.5448H227.45Z" fill="white"/>
</g>
<defs>
<clipPath id="clip0_4029_27585">
<rect width="102" height="35" fill="white" transform="translate(170.147 0.5)"/>
</clipPath>
</defs>
</svg>
