<svg width="273" height="35" viewBox="0 0 273 35" fill="none" xmlns="http://www.w3.org/2000/svg">
<path d="M25.1547 29.058C24.8859 29.2414 24.6077 29.4178 24.3236 29.5837C23.8094 29.8852 23.2705 30.1562 22.7129 30.3946C21.8465 30.7649 20.9344 31.0488 19.994 31.2416C19.0537 31.4344 18.1063 31.5337 17.1648 31.5337C15.2642 31.5337 13.4445 31.154 11.7775 30.467C10.0424 29.752 8.48694 28.711 7.19442 27.4234C4.64225 24.8834 3.06445 21.3749 3.06445 17.5006C3.06445 15.609 3.44599 13.7981 4.13627 12.139C4.85473 10.4122 5.9019 8.86411 7.19559 7.57658C8.48929 6.28906 10.0436 5.24805 11.7787 4.53302C13.4457 3.84602 15.2653 3.46631 17.166 3.46631C19.0666 3.46631 20.8862 3.84602 22.5532 4.53302C24.2883 5.24805 25.8438 6.29022 27.1375 7.57658C29.6897 10.1166 31.2675 13.6252 31.2675 17.4994C31.2675 18.3839 31.1806 19.2695 31.0104 20.1458C30.8414 21.0185 30.5866 21.8773 30.2532 22.7091C29.9409 23.4861 29.557 24.2385 29.1051 24.9559C28.8198 25.408 28.5111 25.8427 28.1777 26.2586L29.6052 30.4203L25.1571 29.0591L25.1547 29.058Z" fill="white"/>
<path d="M7.51607 26.0554C7.77081 26.3591 8.03965 26.6512 8.32022 26.9305C10.7444 29.3431 14.0949 30.8363 17.7952 30.8363C19.636 30.8363 21.4321 30.4624 23.0815 29.7591C23.463 29.5967 23.8364 29.4156 24.2015 29.2181L17.3303 27.1151L21.222 24.4547L24.8823 26.1208L23.3104 23.1438C22.3043 23.0387 21.3605 22.7162 20.5282 22.2243C19.4634 21.5958 18.5806 20.6891 17.983 19.6084L19.2709 21.2733C19.785 22.2033 22.3947 22.6029 23.3104 23.1438C24.1932 23.6649 23.2353 22.215 24.3318 22.215H27.9088V16.677C27.8736 16.6805 27.8384 16.6817 27.802 16.6817C26.9051 16.6817 26.2101 16.33 25.7252 15.7692C25.2087 15.171 24.9481 14.3403 24.9481 13.4558C24.9481 13.4196 24.9504 13.3846 24.954 13.3495H17.3737C17.288 13.8706 17.0392 14.3379 16.6799 14.6943C16.2315 15.1406 15.6105 15.2271 14.9261 15.2271C14.2416 15.2271 14.9589 15.1406 14.5105 14.6943C14.1512 14.3368 13.9012 13.8694 13.8155 13.3472H10.681V13.3495C9.81114 13.3495 9.0199 13.7047 8.44584 14.276C7.87177 14.8473 7.51489 15.6348 7.51489 16.5017V21.299C7.51489 22.1647 7.87177 22.9522 8.44584 23.5235C9.0199 24.0949 9.81114 24.4501 10.681 24.4501C11.5509 24.4501 12.3434 24.0949 12.9174 23.5235C13.4915 22.9522 13.8484 22.1647 13.8484 21.299V16.5017H14.8192V21.299C14.8192 22.4311 14.3543 23.4605 13.6042 24.207C12.8552 24.9524 11.8198 25.4163 10.6822 25.4163C9.54466 25.4163 8.5104 24.9536 7.76025 24.207C7.67572 24.1217 7.59355 24.0341 7.51607 23.9418V26.0554Z" fill="#FFCB00"/>
<path d="M21.8947 17.6093C21.5977 17.6093 21.3559 17.85 21.3559 18.1456C21.3559 18.4412 21.5965 18.6819 21.8947 18.6819C22.1929 18.6819 22.4336 18.4424 22.4336 18.1456C22.4336 17.8488 22.1929 17.6093 21.8947 17.6093ZM24.9669 17.6093C24.6699 17.6093 24.4281 17.85 24.4281 18.1456C24.4281 18.4412 24.6688 18.6819 24.9669 18.6819C25.2651 18.6819 25.5058 18.4424 25.5058 18.1456C25.5058 17.8488 25.264 17.6093 24.9669 17.6093ZM20.1796 9.37007C19.6759 9.17846 19.1488 9.07681 18.6323 9.06279C18.1087 9.04877 17.5922 9.12238 17.1202 9.28128L16.943 9.34086L16.7716 9.26609C16.3173 9.06747 15.8172 8.96232 15.3053 8.9483C14.7806 8.93428 14.2441 9.01489 13.7299 9.18664L13.4223 8.27299C14.0421 8.06502 14.6925 7.96804 15.3311 7.98557C15.9029 8.00193 16.464 8.10942 16.9852 8.31154C17.5147 8.15498 18.0829 8.08371 18.6581 8.0989C19.2874 8.11643 19.9236 8.23794 20.5247 8.46693L20.1796 9.3689V9.37007ZM16.1576 12.638C16.6225 12.638 16.9993 13.013 16.9993 13.4745C16.9993 13.5224 16.9946 13.5703 16.9876 13.617C17.0874 13.4161 17.1437 13.1894 17.1437 12.9499C17.1437 12.534 16.9747 12.1589 16.7023 11.8867C16.4288 11.6157 16.052 11.4474 15.6352 11.4474C15.2184 11.4474 14.8416 11.6157 14.5681 11.8879C14.2957 12.1589 14.1267 12.534 14.1267 12.9499C14.1267 13.3658 14.2957 13.7397 14.5692 14.0119C14.8428 14.2842 15.2196 14.4524 15.6364 14.4524C15.8735 14.4524 16.0977 14.3975 16.2973 14.3005C16.2527 14.3075 16.2069 14.3122 16.16 14.3122C15.6951 14.3122 15.3182 13.9372 15.3182 13.4757C15.3182 13.0142 15.6951 12.6391 16.16 12.6391L16.1576 12.638ZM19.3414 12.3844C19.2662 12.1636 19.1406 11.9662 18.9786 11.8049C18.7051 11.5339 18.3282 11.3656 17.9115 11.3656C17.7929 11.3656 17.6767 11.3785 17.5652 11.4053C17.7941 11.6881 17.9608 12.0211 18.0477 12.3844H19.3425H19.3414ZM23.8458 23.1812L26.9004 28.0509L21.5237 24.9863L18.8988 26.7797L28.6332 29.7602L26.378 23.1812H23.8447H23.8458ZM27.1681 30.3187C26.0658 31.1704 24.8625 31.8749 23.5887 32.4182C21.5754 33.277 19.393 33.7338 17.1649 33.7338C12.6604 33.7338 8.58209 31.917 5.63077 28.9786C2.67828 26.0413 0.852783 21.9836 0.852783 17.5007C0.852783 13.0177 2.67828 8.95881 5.63077 6.02156C8.58209 3.08315 12.6604 1.26636 17.1649 1.26636C21.6693 1.26636 25.7476 3.08315 28.6989 6.02156C31.6514 8.95881 33.4769 13.0177 33.4769 17.5007C33.4769 19.5768 33.0731 21.6203 32.3077 23.527C31.5857 25.324 30.5409 26.9935 29.2073 28.4458L30.164 31.237L27.1681 30.3199V30.3187ZM6.88455 26.0554C7.1393 26.3591 7.40814 26.6512 7.68871 26.9305C10.1129 29.3431 13.4634 30.8363 17.1637 30.8363C19.0044 30.8363 20.8006 30.4624 22.45 29.759C22.8315 29.5966 23.2048 29.4155 23.5699 29.2181L16.6988 27.1151L21.4768 23.8483L24.0348 25.3064L22.6777 23.1438C21.6717 23.0387 20.7278 22.7162 19.8955 22.2243C18.8307 21.5957 17.9479 20.6891 17.3503 19.6084L18.1991 19.1445C18.7133 20.0745 19.4729 20.8538 20.3885 21.3948C21.2713 21.9159 22.3009 22.2161 23.3985 22.2161H27.2773V16.6781C27.2421 16.6816 27.2069 16.6828 27.1705 16.6828C26.2736 16.6828 25.5786 16.3311 25.0937 15.7703C24.5772 15.1721 24.3166 14.3414 24.3166 13.457C24.3166 13.4208 24.3189 13.3857 24.3224 13.3507H18.0805C17.9948 13.8717 17.746 14.3391 17.3867 14.6954C16.9383 15.1417 16.3184 15.4186 15.6329 15.4186C14.9473 15.4186 14.3286 15.1429 13.879 14.6954C13.5197 14.3379 13.2697 13.8706 13.1852 13.3483H10.0507V13.3507C9.18081 13.3507 8.38839 13.7058 7.81432 14.2772C7.24026 14.8485 6.88338 15.636 6.88338 16.5029V21.3001C6.88338 22.1659 7.24026 22.9534 7.81432 23.5247C8.38839 24.096 9.17963 24.4512 10.0507 24.4512C10.9218 24.4512 11.7118 24.096 12.2859 23.5247C12.86 22.9534 13.2169 22.1659 13.2169 21.3001V16.5029H14.1877V21.3001C14.1877 22.4323 13.7228 23.4616 12.9727 24.2082C12.2237 24.9536 11.1883 25.4174 10.0507 25.4174C8.91314 25.4174 7.87772 24.9548 7.12874 24.2082C7.04304 24.1229 6.96203 24.0353 6.88455 23.943V26.0565V26.0554ZM28.0991 25.2153C28.713 24.3531 29.219 23.4254 29.6111 22.451C30.2357 20.8971 30.5644 19.2181 30.5644 17.5007C30.5644 13.818 29.064 10.4835 26.6398 8.07086C24.2156 5.65821 20.8652 4.16505 17.1649 4.16505C13.4646 4.16505 10.1141 5.65821 7.68989 8.07086C5.26567 10.4835 3.76536 13.818 3.76536 17.5007C3.76536 20.1727 4.55543 22.6613 5.91487 24.748V21.3001V16.5017C5.91487 15.3696 6.37975 14.3391 7.12991 13.5937C7.87889 12.8483 8.91432 12.3844 10.0519 12.3844V12.3868H13.2192C13.326 11.9323 13.5596 11.5269 13.8801 11.2079V11.2056C14.3286 10.7592 14.9484 10.4823 15.634 10.4823C16.0132 10.4823 16.3736 10.5676 16.6953 10.7195C16.8784 10.6167 17.0733 10.5373 17.2717 10.4847C17.4818 10.4286 17.6967 10.4006 17.9127 10.4006C18.5971 10.4006 19.2169 10.6775 19.6666 11.1238C20.007 11.4626 20.2477 11.8984 20.3451 12.3856H26.4978C26.9803 12.3856 27.4182 12.5819 27.7363 12.8973V12.8997C28.0533 13.2151 28.2505 13.6509 28.2505 14.13V23.1824H27.4041L28.1014 25.2165L28.0991 25.2153ZM23.4302 19.3291C23.1332 19.3291 22.8914 19.5686 22.8914 19.8654C22.8914 20.1622 23.1321 20.4017 23.4302 20.4017C23.7284 20.4017 23.9691 20.1622 23.9691 19.8654C23.9691 19.5686 23.7284 19.3291 23.4302 19.3291Z" fill="#191B1C"/>
<path d="M120.69 22.4276L118.588 18.6468C119.18 18.3676 119.645 17.975 119.982 17.4691C120.319 16.9632 120.488 16.3487 120.488 15.6254C120.488 14.4992 120.101 13.6264 119.328 13.0072C118.554 12.3868 117.484 12.0771 116.114 12.0771H111.832C111.718 12.0771 111.624 12.1157 111.552 12.1928C111.479 12.2699 111.442 12.3657 111.442 12.4791V22.5351C111.442 22.6379 111.481 22.729 111.56 22.8062C111.637 22.8833 111.729 22.923 111.832 22.923H113.965C114.079 22.923 114.175 22.8868 114.253 22.8143C114.33 22.7419 114.369 22.6484 114.369 22.5351V19.1422H115.863L117.576 22.5047C117.701 22.784 117.913 22.923 118.215 22.923H120.41C120.504 22.923 120.582 22.8891 120.644 22.8225C120.706 22.7548 120.738 22.68 120.738 22.5982C120.738 22.5468 120.722 22.4895 120.691 22.4276H120.69ZM117.116 16.5321C116.882 16.7541 116.542 16.8651 116.096 16.8651H114.368V14.3087H116.096C116.542 14.3087 116.882 14.4279 117.116 14.6651C117.35 14.9022 117.466 15.2177 117.466 15.6103C117.466 16.0028 117.35 16.3101 117.116 16.5321Z" fill="#260707"/>
<path d="M110.009 12.0771H101.555C101.441 12.0771 101.345 12.1157 101.268 12.1928C101.19 12.2699 101.151 12.3657 101.151 12.4791V14.2141C101.151 14.3274 101.19 14.4209 101.268 14.4933C101.345 14.5657 101.441 14.602 101.555 14.602H104.295V22.5351C104.295 22.6484 104.334 22.7419 104.413 22.8143C104.49 22.8868 104.586 22.923 104.7 22.923H106.864C106.978 22.923 107.074 22.8868 107.151 22.8143C107.229 22.7419 107.269 22.6484 107.269 22.5351V14.602H110.009C110.123 14.602 110.219 14.5657 110.296 14.4933C110.374 14.4209 110.414 14.3286 110.414 14.2141V12.4791C110.414 12.3657 110.375 12.2699 110.296 12.1928C110.219 12.1157 110.123 12.0771 110.009 12.0771Z" fill="#260707"/>
<path d="M99.764 20.5988H94.7195V18.5846H99.2968C99.4107 18.5846 99.5069 18.546 99.5856 18.4689C99.6631 18.3918 99.7018 18.296 99.7018 18.1826V16.7724C99.7018 16.6591 99.6631 16.5633 99.5856 16.4862C99.5081 16.4091 99.4118 16.3705 99.2968 16.3705H94.7195V14.403H99.6396C99.7534 14.403 99.8497 14.3668 99.9272 14.2944C100.005 14.2219 100.045 14.1296 100.045 14.0163V12.4822C100.045 12.3689 100.006 12.2731 99.9272 12.196C99.8485 12.1189 99.7534 12.0803 99.6396 12.0803H92.2906C92.1768 12.0803 92.0828 12.1189 92.0101 12.196C91.9373 12.2731 91.9009 12.3689 91.9009 12.4822V22.5383C91.9009 22.6411 91.9396 22.7322 92.0171 22.8093C92.0946 22.8864 92.1861 22.9262 92.2895 22.9262H99.7628C99.8767 22.9262 99.973 22.89 100.05 22.8175C100.128 22.7451 100.167 22.6516 100.167 22.5383V21.0042C100.167 20.8909 100.128 20.7951 100.05 20.718C99.973 20.6409 99.8767 20.6011 99.7628 20.6011L99.764 20.5988Z" fill="#260707"/>
<path d="M76.8307 20.5988H71.7862V18.5846H76.3634C76.4761 18.5846 76.5736 18.546 76.6511 18.4689C76.7297 18.3918 76.7684 18.2948 76.7684 18.1826V16.7724C76.7684 16.6603 76.7285 16.5621 76.6511 16.4862C76.5736 16.4091 76.4773 16.3705 76.3634 16.3705H71.7862V14.403H76.7062C76.8201 14.403 76.9164 14.3668 76.9939 14.2944C77.0713 14.2219 77.1101 14.1296 77.1101 14.0163V12.4822C77.1101 12.3689 77.0713 12.2731 76.9939 12.196C76.9164 12.1189 76.8201 12.0803 76.7062 12.0803H69.3573C69.2434 12.0803 69.1495 12.1189 69.0767 12.196C69.0039 12.2731 68.9675 12.3689 68.9675 12.4822V22.5383C68.9675 22.6411 69.0063 22.7322 69.0838 22.8093C69.1612 22.8864 69.2563 22.9262 69.3561 22.9262H76.8295C76.941 22.9262 77.0408 22.8888 77.1171 22.8175C77.1934 22.7462 77.2333 22.6504 77.2333 22.5383V21.0042C77.2333 20.8921 77.1946 20.7951 77.1171 20.718C77.0396 20.6409 76.9434 20.6011 76.8295 20.6011L76.8307 20.5988Z" fill="#260707"/>
<path d="M67.2559 20.4904H62.5848V12.4638C62.5848 12.3528 62.5472 12.2559 62.4756 12.1846C62.404 12.1133 62.3101 12.0759 62.195 12.0759H60.015C59.9117 12.0759 59.8189 12.1133 59.7426 12.1846C59.6652 12.2559 59.6252 12.3493 59.6252 12.4638V22.535C59.6252 22.6379 59.664 22.729 59.7426 22.8061C59.8201 22.8832 59.9152 22.9229 60.015 22.9229H67.2548C67.3663 22.9229 67.4661 22.8856 67.5424 22.8143C67.6187 22.743 67.6598 22.6472 67.6598 22.535V20.8923C67.6598 20.7813 67.621 20.6832 67.5424 20.6061C67.4649 20.529 67.3686 20.4904 67.2548 20.4904H67.2559Z" fill="#260707"/>
<path d="M57.4933 20.5988H52.4488V18.5846H57.026C57.1387 18.5846 57.2362 18.546 57.3148 18.4689C57.3923 18.3918 57.431 18.2948 57.431 18.1826V16.7724C57.431 16.6603 57.3911 16.5621 57.3148 16.4862C57.2373 16.4091 57.1411 16.3705 57.026 16.3705H52.4488V14.403H57.3688C57.4827 14.403 57.579 14.3668 57.6564 14.2944C57.7339 14.2219 57.7727 14.1296 57.7727 14.0163V12.4822C57.7727 12.3689 57.7339 12.2731 57.6564 12.196C57.579 12.1189 57.4827 12.0803 57.3688 12.0803H50.0199C49.906 12.0803 49.8121 12.1189 49.7393 12.196C49.6665 12.2731 49.6301 12.3689 49.6301 12.4822V22.5383C49.6301 22.6411 49.6689 22.7322 49.7475 22.8093C49.825 22.8864 49.9201 22.9262 50.0199 22.9262H57.4933C57.606 22.9262 57.7046 22.8888 57.7809 22.8175C57.8584 22.7462 57.8983 22.6504 57.8983 22.5383V21.0042C57.8983 20.8921 57.8595 20.7951 57.7809 20.718C57.7034 20.6409 57.6071 20.6011 57.4933 20.6011V20.5988Z" fill="#260707"/>
<path d="M47.8565 12.0771H39.4016C39.2878 12.0771 39.1915 12.1157 39.114 12.1928C39.0365 12.2699 38.9978 12.3657 38.9978 12.4791V14.2141C38.9978 14.3274 39.0365 14.4209 39.114 14.4933C39.1915 14.5657 39.2878 14.602 39.4016 14.602H42.1416V22.5351C42.1416 22.6484 42.1816 22.7431 42.259 22.8143C42.3354 22.8856 42.4375 22.923 42.5467 22.923H44.7103C44.8218 22.923 44.9216 22.8856 44.9979 22.8143C45.0754 22.7431 45.1153 22.6473 45.1153 22.5351V14.602H47.8553C47.9692 14.602 48.0654 14.5657 48.1429 14.4933C48.2204 14.4209 48.2591 14.3286 48.2591 14.2141V12.4791C48.2591 12.3657 48.2204 12.2699 48.1429 12.1928C48.0654 12.1157 47.9692 12.0771 47.8553 12.0771H47.8565Z" fill="#260707"/>
<path d="M89.3794 12.0771H87.6197C87.3602 12.0771 87.1736 12.1905 87.0597 12.4183L84.3655 17.191L81.6877 12.4183C81.5738 12.1916 81.3871 12.0771 81.1277 12.0771H79.368C79.2541 12.0771 79.1578 12.1157 79.0803 12.1928C79.0029 12.2699 78.9641 12.3657 78.9641 12.4791V22.5351C78.9641 22.6484 79.0029 22.7419 79.0803 22.8143C79.1578 22.8868 79.2541 22.923 79.368 22.923H80.9352C81.0444 22.9207 81.1371 22.8844 81.2122 22.8143C81.2874 22.7442 81.3273 22.6543 81.3285 22.5456V18.995H82.5658V22.5456C82.5681 22.6543 82.6069 22.7442 82.6832 22.8143C82.7583 22.8844 82.8511 22.9207 82.9602 22.923H83.4075C83.5167 22.9207 83.6094 22.8844 83.6846 22.8143C83.7609 22.7442 83.7996 22.6543 83.802 22.5456V20.3982H85.0381V22.5456C85.0405 22.6543 85.0792 22.7442 85.1544 22.8143C85.2295 22.8844 85.3222 22.9207 85.4326 22.923H85.8799C85.989 22.9207 86.0818 22.8844 86.1569 22.8143C86.2321 22.7442 86.272 22.6543 86.2731 22.5456V18.294H87.5105V22.5456C87.5128 22.6543 87.5516 22.7442 87.6279 22.8143C87.703 22.8844 87.7958 22.9207 87.9049 22.923H89.3759C89.4898 22.923 89.586 22.8868 89.6635 22.8143C89.741 22.7419 89.7809 22.6484 89.7809 22.5351V12.4791C89.7809 12.3657 89.7422 12.2699 89.6635 12.1928C89.586 12.1157 89.4898 12.0771 89.3759 12.0771H89.3794Z" fill="#260707"/>
<path d="M151.779 11.5901L139.959 23.4098M139.959 11.5901L151.779 23.4098" stroke="black" stroke-width="1.26639" stroke-linecap="round" stroke-linejoin="round"/>
<g clip-path="url(#clip0_230_27514)">
<path d="M188.403 34.997C198.015 34.997 205.806 27.3318 205.806 17.8763C205.806 8.42081 198.015 0.755615 188.403 0.755615C178.792 0.755615 171 8.42081 171 17.8763C171 27.3318 178.792 34.997 188.403 34.997Z" fill="white"/>
<path d="M187.283 14.509C186.765 14.509 186.344 14.9231 186.344 15.4356C186.344 15.9481 186.765 16.3621 187.283 16.3621C187.801 16.3621 188.219 15.9481 188.219 15.4356C188.219 14.9231 187.798 14.509 187.283 14.509Z" fill="#2C68FF"/>
<path d="M188.403 0.628418C178.792 0.628418 171 8.33606 171 17.8447C171 25.3757 175.886 31.7717 182.696 34.1083C183.312 32.8054 183.687 31.3953 183.963 29.9823C184.666 26.3746 184.761 22.654 184.245 19.0144C184.104 18.03 183.923 17.0166 184.182 16.0553C184.548 14.6944 185.766 13.681 187.105 13.2004C188.443 12.7197 189.898 12.6908 191.323 12.714C192.19 12.7284 193.091 12.769 193.854 13.1743C194.176 13.3452 194.459 13.5797 194.692 13.8548C194.384 13.7737 194.061 13.7505 193.744 13.7824C193.638 13.7911 193.531 13.8084 193.436 13.8548C193.341 13.9011 193.255 13.9793 193.226 14.0806C193.169 14.2746 193.33 14.4773 193.52 14.5526C193.71 14.6278 193.923 14.6134 194.127 14.6249C194.332 14.6365 194.536 14.6771 194.732 14.7408C194.905 14.7958 195.072 14.8739 195.227 14.9695C195.262 14.9927 195.296 15.0158 195.331 15.039C195.463 15.4646 195.515 15.9134 195.481 16.3535C195.38 17.6072 194.643 18.7538 193.658 19.5472C192.673 20.3434 191.455 20.8096 190.22 21.0962C190.686 25.7202 190.58 30.4166 189.797 35.0001C198.755 34.2965 205.803 26.8871 205.803 17.8447C205.803 8.33606 198.012 0.628418 188.4 0.628418H188.403ZM184.398 13.6405C184.271 14.0227 183.934 14.3499 183.528 14.3788L183.73 14.1993C183.511 14.4252 183.157 14.5004 182.852 14.4223C182.544 14.347 182.282 14.1356 182.094 13.8837C181.907 13.6289 181.792 13.3307 181.697 13.0325C181.308 11.7614 181.346 10.3918 181.599 9.08598C181.711 8.5011 181.887 7.89306 182.328 7.4877C182.495 7.33424 182.716 7.20974 182.941 7.25317C183.229 7.30818 183.399 7.60641 183.488 7.88437C183.857 8.98464 183.669 10.2036 183.98 11.3213C184.09 11.7063 184.254 12.077 184.363 12.4621C184.473 12.8471 184.522 13.2641 184.395 13.6463L184.398 13.6405ZM188.389 7.94807C188.348 8.28684 188.233 8.61402 188.138 8.9441C187.98 9.48265 187.879 10.0386 187.833 10.5974C187.81 10.8811 187.801 11.1649 187.729 11.44C187.513 12.2912 186.601 12.5634 185.921 12.0393C185.711 11.8743 185.55 11.6629 185.463 11.4139C185.325 11.0288 185.342 10.6032 185.403 10.1949C185.573 9.03097 186.079 7.91333 186.848 7.01285C186.963 6.87676 187.093 6.74068 187.26 6.66829C187.58 6.5351 187.968 6.68856 188.176 6.96363C188.383 7.23869 188.429 7.60352 188.392 7.94228L188.389 7.94807Z" fill="#2C68FF"/>
<path d="M258.819 15.9973C258.54 14.9087 257.926 14.069 256.752 13.791C255.862 13.5796 254.966 13.6491 254.195 14.1558C253.576 14.5583 253.037 15.0824 252.467 15.5456C251.022 12.8761 248.188 13.3277 246.492 15.3574C246.452 15.1345 246.435 14.9955 246.406 14.8623C246.222 14.0545 245.712 13.6636 244.911 13.707C244.114 13.7505 243.691 14.1848 243.621 15.0505C243.601 15.2937 243.601 15.5399 243.601 15.7831C243.601 18.3687 243.601 20.9543 243.601 23.5399C243.601 23.844 243.613 24.1538 243.656 24.452C243.76 25.1961 244.387 25.6652 245.142 25.5841C245.98 25.4973 246.426 24.9211 246.432 23.8758C246.44 22.1675 246.426 20.4534 246.443 18.7451C246.449 18.3224 246.478 17.8823 246.596 17.4798C246.91 16.4374 247.679 15.9713 248.701 16.1363C249.458 16.2579 249.878 16.892 249.881 17.9546C249.89 19.8685 249.881 21.7824 249.89 23.6963C249.89 24.0177 249.933 24.3478 250.017 24.6576C250.198 25.2975 250.762 25.6507 251.428 25.5841C252.245 25.503 252.697 24.9442 252.709 23.9308C252.726 22.3007 252.689 20.6735 252.729 19.0433C252.743 18.4208 252.833 17.7751 253.034 17.1903C253.319 16.3535 254.117 15.9829 255.027 16.1363C255.703 16.2492 256.109 16.7791 256.181 17.6593C256.204 17.9228 256.204 18.1892 256.207 18.4527C256.207 20.2044 256.202 21.9532 256.213 23.705C256.213 24.009 256.248 24.3188 256.325 24.6084C256.513 25.3033 257.114 25.671 257.831 25.5667C258.603 25.4567 259.026 24.9355 259.035 23.9771C259.052 21.8606 259.055 19.744 259.029 17.6246C259.023 17.0802 258.951 16.5243 258.816 15.9944V15.9886L258.819 15.9973Z" fill="black"/>
<path d="M272.266 23.3893C271.644 23.0245 271.428 22.5149 271.436 21.8142C271.448 20.4736 271.462 19.1243 271.356 17.7895C271.198 15.7946 269.945 14.3903 267.987 13.9125C266.504 13.5506 265.007 13.6056 263.53 13.9502C263.055 14.0602 262.585 14.2484 262.162 14.4887C261.465 14.8883 261.22 15.5369 261.459 16.1304C261.672 16.6603 262.231 16.8775 263.046 16.7095C263.691 16.5763 264.316 16.3273 264.964 16.2636C265.709 16.1941 266.49 16.171 267.218 16.3099C268.076 16.475 268.56 17.2915 268.476 18.2151C268.223 18.2151 267.958 18.2094 267.696 18.2151C266.524 18.2354 265.349 18.2007 264.183 18.2933C262.519 18.4265 261.223 19.5992 260.953 21.1019C260.446 23.8844 262.749 26.0589 265.646 25.5522C267.077 25.3032 268.191 24.5735 269.133 23.3227C269.237 23.618 269.294 23.786 269.352 23.9539C269.703 24.9239 270.529 25.5666 271.448 25.5956C272.145 25.6188 272.79 25.2482 272.945 24.7443C273.147 24.0842 272.77 23.6875 272.269 23.3922L272.266 23.3893ZM264.817 23.3198C264.16 23.1808 263.763 22.7262 263.651 21.9879C263.567 21.4349 263.91 20.7892 264.448 20.5286C264.65 20.4302 264.874 20.3201 265.087 20.3172C266.216 20.2941 267.342 20.3085 268.511 20.3085C268.479 22.0719 266.47 23.6701 264.82 23.3169L264.817 23.3198Z" fill="black"/>
<path d="M241.47 23.3893C240.797 23.0361 240.61 22.4773 240.618 21.7679C240.635 20.5084 240.679 19.2402 240.578 17.9864C240.443 16.2752 239.682 14.8681 237.995 14.205C235.856 13.3653 233.693 13.4956 231.574 14.3614C231.352 14.4511 231.151 14.6191 230.972 14.7783C230.563 15.1431 230.445 15.5948 230.653 16.1073C230.857 16.614 231.277 16.7993 231.793 16.7501C232.179 16.7125 232.556 16.5908 232.942 16.5387C233.892 16.4055 234.845 16.1826 235.798 16.1884C237.007 16.1971 237.742 17.0541 237.661 18.2152C237.428 18.2152 237.186 18.2152 236.944 18.2152C235.772 18.2326 234.597 18.1949 233.431 18.2847C231.813 18.4092 230.578 19.4631 230.183 20.9282C229.797 22.3614 230.388 24.0784 231.597 24.8863C232.821 25.7057 234.168 25.7896 235.556 25.3814C236.676 25.0513 237.554 24.368 238.297 23.3112C238.424 23.6354 238.493 23.8207 238.565 24.0061C238.965 24.976 239.798 25.5956 240.699 25.5956C241.384 25.5956 241.997 25.2424 242.136 24.7473C242.317 24.1045 242.006 23.676 241.47 23.3922V23.3893ZM234.275 23.3546C233.5 23.2851 232.979 22.8016 232.875 22.0545C232.772 21.2988 233.126 20.6995 233.866 20.4331C234.093 20.352 234.344 20.297 234.583 20.2941C235.608 20.2796 236.63 20.2854 237.701 20.2854C237.618 22.0227 235.925 23.4965 234.272 23.3517L234.275 23.3546Z" fill="black"/>
<path d="M220.673 14.4366C218.815 13.3826 216.857 13.4145 214.974 14.2397C212.386 15.3747 211.084 18.1919 211.669 20.9976C211.936 22.2716 212.489 23.3835 213.558 24.1855C215.775 25.8533 218.219 25.9459 220.75 25.0947C221.28 24.9151 221.778 24.504 222.173 24.0899C222.51 23.7396 222.507 23.2213 222.199 22.7841C221.899 22.3556 221.459 22.2977 220.989 22.4019C220.71 22.4627 220.448 22.6017 220.169 22.6596C219.267 22.8362 218.363 23.1171 217.459 23.12C215.976 23.1287 214.917 22.3382 214.516 21.0671H215.242C216.538 21.0584 217.836 21.1047 219.126 21.0295C220.575 20.9426 221.821 20.4185 222.443 18.994C223.126 17.4333 222.322 15.3834 220.67 14.4424L220.673 14.4366ZM218.766 18.8839C217.327 19.0171 215.878 19.049 214.318 19.1272C214.551 17.7055 215.207 16.8427 216.362 16.3794C217.165 16.0609 218.003 16.0406 218.836 16.2867C219.587 16.5097 219.933 16.9932 219.901 17.7229C219.875 18.3164 219.492 18.8145 218.766 18.8839Z" fill="black"/>
<path d="M228.303 23.0447C227.888 22.7407 227.511 22.2716 227.333 21.7939C227.14 21.2814 227.157 20.6762 227.154 20.1116C227.14 17.0598 227.154 14.0051 227.143 10.9505C227.143 10.6088 227.111 10.2556 227.024 9.92548C226.875 9.35508 226.472 9.03658 225.876 8.97867C224.963 8.88892 224.341 9.47958 224.326 10.5219C224.303 12.4156 224.318 14.3063 224.318 16.2028C224.318 17.8126 224.272 19.4225 224.338 21.0266C224.373 21.8923 224.499 22.7783 224.761 23.5977C225.167 24.8688 226.325 25.6187 227.569 25.6014C228.326 25.5898 229.011 25.1439 229.161 24.5648C229.322 23.9481 229.031 23.5746 228.309 23.0447H228.303Z" fill="black"/>
</g>
<defs>
<clipPath id="clip0_230_27514">
<rect width="102" height="35" fill="white" transform="translate(171)"/>
</clipPath>
</defs>
</svg>
