<svg width="50" height="108" viewBox="0 0 50 108" fill="none" xmlns="http://www.w3.org/2000/svg">
<g clip-path="url(#clip0_4037_10945)">
<mask id="mask0_4037_10945" style="mask-type:alpha" maskUnits="userSpaceOnUse" x="0" y="0" width="50" height="108">
<path d="M23.8768 24.9114C30.1866 25.4162 35.8655 21.2517 37.178 15.1437C38.5157 8.98526 35.1336 2.90254 29.1518 0.731945C28.3442 0.429071 27.486 0.252395 26.6531 0H23.4982C23.2962 0.0757185 23.1196 0.151437 22.9177 0.176676C16.8349 1.16102 12.2918 6.71371 12.5442 12.8974C12.7966 19.182 17.7183 24.4066 23.8768 24.8861V24.9114Z" fill="black"/>
<path d="M47.7532 66.8596C45.204 57.5462 42.6801 48.2329 40.1309 38.9195C38.4146 32.6349 33.6948 29.0761 27.2082 29.1013C25.6939 29.1013 24.1795 29.1013 22.6651 29.1013C16.2038 29.1013 11.4588 32.7611 9.76771 38.97C7.04184 49.0658 4.26549 59.1616 1.51437 69.2321C1.00958 71.0746 0.504791 72.9171 0 74.81C4.29072 76.0973 8.45525 77.3845 12.6198 78.596C13.4527 78.8484 13.806 79.2017 13.8818 80.0599C14.5885 87.4803 15.3204 94.9007 16.0271 102.321C16.2038 104.214 16.4057 106.082 16.6076 108H33.2405C34.1996 98.2575 35.1587 88.616 36.0926 78.9493C40.7114 77.5611 45.2545 76.173 49.8734 74.7596C49.1162 72.0337 48.4095 69.434 47.7028 66.8091L47.7532 66.8596Z" fill="black"/>
</mask>
<g mask="url(#mask0_4037_10945)">
<rect x="-1.43994" width="51.84" height="69" fill="#FFE8A5"/>
<rect x="-1.43994" y="69" width="51.84" height="39" fill="#FFBE00"/>
</g>
</g>
<defs>
<clipPath id="clip0_4037_10945">
<rect width="50" height="108" fill="white"/>
</clipPath>
</defs>
</svg>
